{"glyphs":{"0":{"ha":963,"x_min":68,"x_max":894,"o":"m 68 501 q 181 880 68 736 q 482 1024 293 1024 q 782 880 669 1024 q 894 501 894 736 q 784 124 894 265 q 482 -18 674 -18 q 178 123 289 -18 q 68 501 68 264 m 203 501 q 276 210 203 315 q 482 104 350 104 q 687 210 614 104 q 760 501 760 315 q 687 796 760 690 q 482 901 614 901 q 276 795 350 901 q 203 501 203 689 z "},"1":{"ha":506,"x_min":49,"x_max":390,"o":"m 260 882 l 49 882 l 49 1004 l 390 1004 l 390 0 l 260 0 l 260 882 z "},"2":{"ha":799,"x_min":60,"x_max":742,"o":"m 742 1 l 64 0 l 64 104 l 388 383 q 553 553 510 489 q 596 699 596 618 q 544 847 596 793 q 403 900 493 900 q 253 837 310 900 q 196 667 197 774 l 60 667 q 157 925 63 828 q 404 1022 251 1022 q 645 937 556 1022 q 735 707 735 851 q 678 514 735 601 q 486 308 622 426 l 278 128 l 742 128 l 742 1 z "},"3":{"ha":789,"x_min":42,"x_max":738,"o":"m 356 519 l 256 519 l 256 610 l 540 883 l 89 883 l 89 1004 l 713 1004 l 713 894 l 438 632 q 653 531 569 615 q 738 315 738 447 q 637 74 738 165 q 381 -17 536 -17 q 135 72 229 -17 q 42 313 42 160 l 176 313 q 232 160 176 215 q 383 106 288 106 q 540 163 482 106 q 599 318 599 221 q 535 465 599 411 q 356 519 472 519 z "},"4":{"ha":883,"x_min":47,"x_max":817,"o":"m 817 203 l 697 203 l 697 0 l 567 0 l 567 203 l 47 203 l 47 324 l 521 1004 l 697 1004 l 697 324 l 817 324 l 817 203 m 194 324 l 567 324 l 567 860 l 194 324 z "},"5":{"ha":821,"x_min":67,"x_max":771,"o":"m 406 -17 q 159 74 251 -17 q 67 314 67 164 l 201 314 q 257 161 201 217 q 408 106 313 106 q 571 167 510 106 q 632 332 632 229 q 572 494 632 431 q 410 557 513 557 q 292 531 347 557 q 201 460 236 504 l 86 489 l 208 1004 l 711 1004 l 711 879 l 307 879 l 240 613 q 435 674 321 674 q 678 579 586 674 q 771 338 771 485 q 669 82 771 181 q 406 -17 568 -17 z "},"6":{"ha":849,"x_min":57,"x_max":792,"o":"m 196 686 l 431 1004 l 589 1004 l 338 671 q 443 692 390 692 q 694 592 597 692 q 792 343 792 493 q 688 85 792 186 q 426 -17 583 -17 q 164 87 271 -17 q 57 343 57 190 q 88 506 57 432 q 196 686 118 579 m 260 510 q 228 477 260 510 q 196 342 196 444 q 260 172 196 239 q 426 106 325 106 q 590 172 526 106 q 654 342 654 239 q 590 510 654 444 q 426 576 526 576 q 260 510 325 576 z "},"7":{"ha":722,"x_min":11,"x_max":713,"o":"m 11 1004 l 713 1004 l 713 879 l 332 0 l 190 0 l 575 879 l 11 879 l 11 1004 z "},"8":{"ha":868,"x_min":65,"x_max":804,"o":"m 65 279 q 115 438 65 369 q 247 538 164 507 q 101 758 101 600 q 194 949 101 876 q 436 1022 286 1022 q 676 949 585 1022 q 767 757 767 875 q 728 622 767 679 q 619 538 690 565 q 754 440 704 510 q 804 278 804 371 q 703 65 804 146 q 435 -17 601 -17 q 166 65 267 -17 q 65 279 65 146 m 226 750 q 283 632 226 676 q 433 588 339 588 q 583 631 528 588 q 639 747 639 674 q 583 862 639 819 q 433 904 528 904 q 283 862 340 904 q 226 750 226 819 m 199 289 q 263 154 199 204 q 435 104 328 104 q 606 154 542 104 q 669 289 669 204 q 606 422 669 372 q 433 471 542 471 q 263 422 326 471 q 199 289 199 372 z "},"9":{"ha":849,"x_min":57,"x_max":792,"o":"m 653 318 l 418 0 l 260 0 l 511 333 q 406 313 458 313 q 154 412 251 313 q 57 663 57 511 q 162 920 57 818 q 422 1022 267 1022 q 685 918 579 1022 q 792 661 792 814 q 761 499 792 574 q 653 318 731 425 m 653 663 q 588 833 653 767 q 422 900 524 900 q 258 833 322 900 q 194 663 194 765 q 258 494 194 560 q 422 428 322 428 q 588 494 524 428 q 653 663 653 560 z "}," ":{"ha":379,"x_min":0,"x_max":0,"o":""},"!":{"ha":408,"x_min":104,"x_max":303,"o":"m 254 301 l 153 301 q 129 771 129 478 l 129 1004 l 279 1004 l 279 771 q 254 301 279 486 m 204 -19 q 133 10 163 -19 q 104 79 104 39 q 133 149 104 119 q 204 178 163 178 q 274 149 244 178 q 303 79 303 119 q 274 10 303 39 q 204 -19 244 -19 z "},"\"":{"ha":517,"x_min":72,"x_max":444,"o":"m 217 919 l 183 632 l 108 632 l 72 919 q 90 985 67 963 q 147 1008 113 1008 q 200 985 178 1008 q 217 919 222 963 m 444 919 l 411 632 l 336 632 l 300 919 q 317 985 294 963 q 375 1008 340 1008 q 428 985 406 1008 q 444 919 450 963 z "},"#":{"ha":967,"x_min":61,"x_max":904,"o":"m 86 401 l 225 401 l 264 603 l 103 603 l 128 725 l 289 725 l 343 1004 l 472 1004 l 418 725 l 631 725 l 685 1004 l 815 1004 l 761 725 l 904 725 l 881 603 l 736 603 l 697 401 l 853 401 l 829 279 l 672 279 l 618 0 l 489 0 l 543 279 l 329 279 l 275 0 l 146 0 l 200 279 l 61 279 l 86 401 m 354 401 l 567 401 l 607 603 l 393 603 l 354 401 z "},"$":{"ha":801,"x_min":44,"x_max":747,"o":"m 357 -135 l 357 -15 q 134 67 218 -7 q 44 263 50 142 l 183 263 q 231 154 185 196 q 357 104 278 113 l 357 450 l 307 461 q 58 733 58 518 q 140 930 58 851 q 357 1019 221 1008 l 357 1140 l 446 1140 l 446 1021 q 648 936 572 1010 q 731 742 724 863 l 596 742 q 553 849 592 808 q 446 900 514 890 l 446 556 l 500 543 q 747 279 747 488 q 666 77 747 156 q 446 -14 585 -1 l 446 -135 l 357 -135 m 335 582 l 357 576 l 357 900 q 235 847 279 889 q 192 738 192 804 q 335 582 192 617 m 472 422 l 446 428 l 446 107 q 569 160 524 118 q 614 268 614 203 q 472 422 614 389 z "},"%":{"ha":1294,"x_min":58,"x_max":1238,"o":"m 565 767 q 494 583 565 656 q 311 511 422 511 q 130 583 201 511 q 58 767 58 656 q 129 951 58 879 q 311 1024 200 1024 q 494 951 422 1024 q 565 767 565 879 m 1094 1003 l 332 0 l 199 0 l 961 1003 l 1094 1003 m 458 767 q 417 877 458 835 q 311 919 376 919 q 206 877 246 919 q 165 767 165 835 q 206 658 165 700 q 311 615 247 615 q 417 658 376 615 q 458 767 458 700 m 1238 238 q 1166 54 1238 126 q 983 -18 1094 -18 q 801 54 872 -18 q 729 238 729 126 q 801 422 729 350 q 983 493 872 493 q 1166 422 1094 493 q 1238 238 1238 350 m 1129 238 q 1089 348 1129 306 q 983 390 1049 390 q 878 348 918 390 q 838 238 838 306 q 878 128 838 171 q 983 86 919 86 q 1088 128 1047 86 q 1129 238 1129 171 z "},"&":{"ha":982,"x_min":64,"x_max":964,"o":"m 811 0 l 732 90 q 421 -18 611 -18 q 162 58 260 -18 q 64 261 64 135 q 310 569 64 443 q 218 697 244 644 q 192 804 192 749 q 259 960 192 899 q 432 1021 326 1021 q 599 963 535 1021 q 664 813 664 906 q 622 675 664 738 q 483 547 579 613 l 724 274 q 758 469 758 358 l 885 469 q 808 178 885 300 l 964 0 l 811 0 m 315 806 q 337 728 315 767 q 417 622 358 689 q 542 810 542 699 q 512 887 542 858 q 431 915 482 915 q 347 885 378 915 q 315 806 315 856 m 200 271 q 262 142 200 189 q 433 94 324 94 q 657 176 572 94 l 375 496 q 241 392 282 444 q 200 271 200 339 z "},"'":{"ha":289,"x_min":72,"x_max":217,"o":"m 217 919 l 183 632 l 108 632 l 72 919 q 90 985 67 963 q 147 1008 113 1008 q 200 985 178 1008 q 217 919 222 963 z "},"(":{"ha":388,"x_min":67,"x_max":388,"o":"m 388 -240 l 279 -240 q 124 55 182 -118 q 67 413 67 228 q 122 765 67 592 q 279 1064 178 939 l 388 1064 q 251 774 303 946 q 200 413 200 601 q 249 55 200 228 q 388 -240 299 -118 z "},")":{"ha":388,"x_min":0,"x_max":321,"o":"m 110 -240 l 0 -240 q 138 55 89 -118 q 188 413 188 228 q 137 774 188 603 q 0 1064 86 946 l 110 1064 q 265 765 210 939 q 321 413 321 592 q 264 55 321 228 q 110 -240 207 -118 z "},"*":{"ha":571,"x_min":38,"x_max":533,"o":"m 128 788 l 38 819 l 65 892 l 151 863 q 258 811 211 843 q 246 928 246 864 l 246 1024 l 324 1024 l 324 928 q 311 811 324 868 q 417 863 367 846 l 504 893 l 533 819 l 442 788 q 328 761 392 769 q 404 672 372 724 l 458 594 l 394 550 l 340 626 q 283 729 307 674 q 229 626 265 675 l 174 550 l 108 594 l 163 672 q 242 761 196 721 q 128 788 174 771 z "},"+":{"ha":917,"x_min":111,"x_max":806,"o":"m 111 524 l 403 524 l 403 815 l 514 815 l 514 524 l 806 524 l 806 413 l 514 413 l 514 119 l 403 119 l 403 413 l 111 413 l 111 524 z "},",":{"ha":383,"x_min":92,"x_max":290,"o":"m 290 54 q 240 -76 290 -21 q 117 -142 190 -132 l 117 -83 q 187 -51 160 -76 q 214 7 214 -25 q 176 -1 200 -1 q 117 22 142 -1 q 92 83 92 46 q 117 152 92 125 q 185 179 143 179 q 260 144 229 179 q 290 54 290 110 z "},"-":{"ha":599,"x_min":88,"x_max":511,"o":"m 88 310 l 88 426 l 511 426 l 511 310 l 88 310 z "},".":{"ha":383,"x_min":92,"x_max":290,"o":"m 261 13 q 247 -2 261 13 q 192 -17 232 -17 q 122 13 151 -17 q 92 81 92 42 q 122 150 92 121 q 192 179 151 179 q 261 150 232 179 q 290 81 290 121 q 261 13 290 42 z "},"/":{"ha":522,"x_min":0,"x_max":522,"o":"m 129 0 l 0 0 l 392 1003 l 522 1003 l 129 0 z "},":":{"ha":411,"x_min":106,"x_max":304,"o":"m 275 533 q 260 518 275 533 q 206 504 246 504 q 135 533 165 504 q 106 600 106 561 q 135 669 106 640 q 206 699 165 699 q 275 669 246 699 q 304 600 304 640 q 275 533 304 561 m 275 13 q 260 -2 275 13 q 206 -17 246 -17 q 135 13 165 -17 q 106 81 106 42 q 135 150 106 121 q 206 179 165 179 q 275 150 246 179 q 304 81 304 121 q 275 13 304 42 z "},";":{"ha":411,"x_min":106,"x_max":304,"o":"m 275 533 q 260 518 275 533 q 206 504 246 504 q 135 533 165 504 q 106 600 106 561 q 135 669 106 640 q 206 699 165 699 q 275 669 246 699 q 304 600 304 640 q 275 533 304 561 m 304 54 q 254 -76 304 -21 q 131 -142 204 -132 l 131 -83 q 201 -51 174 -76 q 228 7 228 -25 q 190 -1 214 -1 q 131 22 156 -1 q 106 83 106 46 q 131 152 106 125 q 199 179 157 179 q 274 144 243 179 q 304 54 304 110 z "},"<":{"ha":917,"x_min":111,"x_max":806,"o":"m 806 157 l 806 29 l 111 275 l 111 411 l 806 657 l 806 529 l 246 343 l 806 157 z "},"=":{"ha":917,"x_min":111,"x_max":806,"o":"m 111 617 l 806 617 l 806 504 l 111 504 l 111 617 m 111 325 l 806 325 l 806 213 l 111 213 l 111 325 z "},">":{"ha":917,"x_min":111,"x_max":806,"o":"m 806 275 l 111 29 l 111 157 l 671 343 l 111 529 l 111 657 l 806 411 l 806 275 z "},"?":{"ha":740,"x_min":46,"x_max":694,"o":"m 396 243 l 275 243 l 275 278 q 300 381 275 333 q 351 455 325 429 q 426 518 378 481 q 492 573 469 551 q 536 633 515 594 q 557 714 557 671 q 507 848 557 796 q 372 900 457 900 q 235 843 290 900 q 181 700 181 786 l 46 700 q 140 931 46 839 q 375 1022 235 1022 q 608 939 521 1022 q 694 721 694 856 q 680 626 694 669 q 635 549 665 583 q 583 494 606 514 q 519 446 560 475 q 426 363 456 400 q 396 278 396 326 l 396 243 m 342 -19 q 271 10 300 -19 q 242 79 242 39 q 271 149 242 119 q 342 178 300 178 q 410 149 381 178 q 440 79 440 119 q 410 10 440 39 q 342 -19 381 -19 z "},"@":{"ha":1283,"x_min":61,"x_max":1222,"o":"m 360 308 q 421 445 360 393 q 593 506 482 497 l 789 521 l 789 539 q 642 679 789 679 q 526 649 567 679 q 485 561 485 618 l 379 561 q 452 717 379 658 q 646 775 525 775 q 838 710 769 775 q 907 526 907 644 l 907 285 q 986 204 907 204 q 1090 276 1050 204 q 1129 465 1129 349 q 993 804 1129 672 q 644 936 857 936 q 295 794 436 936 q 154 440 154 651 q 294 83 154 226 q 644 -60 435 -60 q 947 43 813 -60 l 992 -32 q 644 -146 842 -146 q 228 22 396 -146 q 61 440 61 189 q 228 855 61 688 q 644 1022 396 1022 q 1059 865 896 1022 q 1222 465 1222 708 q 1153 217 1222 313 q 972 121 1083 121 q 803 243 824 121 q 717 154 778 188 q 578 121 656 121 q 418 172 476 121 q 360 308 360 222 m 631 422 q 481 313 481 410 q 607 215 481 215 q 742 265 693 215 q 790 404 790 315 l 790 436 l 631 422 z "},"A":{"ha":919,"x_min":17,"x_max":903,"o":"m 158 0 l 17 0 l 383 1004 l 535 1004 l 903 0 l 760 0 l 669 250 l 247 250 l 158 0 m 442 788 l 289 368 l 629 368 l 475 788 q 458 846 463 822 q 442 788 454 825 z "},"B":{"ha":888,"x_min":117,"x_max":833,"o":"m 117 0 l 117 1004 l 500 1004 q 731 933 647 1004 q 815 739 815 863 q 665 504 815 567 q 833 268 833 450 q 748 72 833 143 q 514 0 663 0 l 117 0 m 492 883 l 253 883 l 253 561 l 500 561 q 631 605 585 561 q 676 726 676 649 q 628 842 676 801 q 492 883 581 883 m 511 443 l 253 443 l 253 121 l 511 121 q 646 164 599 121 q 693 285 693 207 q 645 401 693 360 q 511 443 597 443 z "},"C":{"ha":1032,"x_min":57,"x_max":982,"o":"m 533 -15 q 188 126 318 -15 q 57 501 57 268 q 191 877 57 733 q 540 1021 325 1021 q 830 928 710 1021 q 978 681 950 835 l 832 681 q 725 834 804 778 q 536 890 646 890 q 292 785 383 890 q 200 503 200 679 q 292 221 200 326 q 536 115 383 115 q 728 170 646 115 q 838 318 810 225 l 982 318 q 826 76 950 168 q 533 -15 703 -15 z "},"D":{"ha":1003,"x_min":117,"x_max":946,"o":"m 449 0 l 117 0 l 117 1004 l 443 1004 q 807 865 668 1004 q 946 501 946 726 q 808 139 946 278 q 449 0 671 0 m 433 879 l 253 879 l 253 126 l 439 126 q 706 228 607 126 q 804 501 804 329 q 705 778 804 676 q 433 879 606 879 z "},"E":{"ha":810,"x_min":117,"x_max":729,"o":"m 729 0 l 117 0 l 117 1004 l 729 1004 l 729 879 l 253 879 l 253 565 l 682 565 l 682 444 l 253 444 l 253 126 l 729 126 l 729 0 z "},"F":{"ha":771,"x_min":117,"x_max":722,"o":"m 647 426 l 253 426 l 253 0 l 117 0 l 117 1004 l 722 1004 l 722 879 l 253 879 l 253 550 l 647 550 l 647 426 z "},"G":{"ha":1063,"x_min":57,"x_max":985,"o":"m 547 893 q 293 785 386 893 q 200 496 200 676 q 295 215 200 317 q 549 113 390 113 q 771 185 685 113 q 857 403 857 258 l 857 432 l 521 432 l 521 553 l 985 553 l 985 -1 l 871 -1 l 861 135 q 733 25 819 67 q 538 -17 646 -17 q 190 125 324 -17 q 57 499 57 267 q 193 875 57 729 q 550 1021 329 1021 q 832 933 715 1021 q 974 701 949 846 l 829 701 q 726 844 801 794 q 547 893 650 893 z "},"H":{"ha":1003,"x_min":117,"x_max":886,"o":"m 253 0 l 117 0 l 117 1004 l 253 1004 l 253 572 l 750 572 l 750 1004 l 886 1004 l 886 0 l 750 0 l 750 446 l 253 446 l 253 0 z "},"I":{"ha":371,"x_min":117,"x_max":253,"o":"m 253 1004 l 253 0 l 117 0 l 117 1004 l 253 1004 z "},"J":{"ha":735,"x_min":28,"x_max":625,"o":"m 28 279 l 28 329 l 160 329 l 160 279 q 202 156 160 203 q 325 110 244 110 q 449 156 408 110 q 489 283 489 201 l 489 1004 l 625 1004 l 625 278 q 542 63 625 143 q 325 -17 460 -17 q 106 65 185 -17 q 28 279 28 146 z "},"K":{"ha":893,"x_min":117,"x_max":868,"o":"m 253 1004 l 253 435 l 700 1004 l 863 1004 l 526 578 l 868 0 l 710 0 l 436 463 l 253 231 l 253 0 l 117 0 l 117 1004 l 253 1004 z "},"L":{"ha":725,"x_min":117,"x_max":694,"o":"m 253 1004 l 253 126 l 694 126 l 694 0 l 117 0 l 117 1004 l 253 1004 z "},"M":{"ha":1194,"x_min":117,"x_max":1078,"o":"m 250 0 l 117 0 l 117 1004 l 250 1004 l 596 160 l 942 1004 l 1078 1004 l 1078 0 l 944 0 l 944 397 q 953 724 944 639 l 660 0 l 532 0 l 240 721 q 250 429 250 653 l 250 0 z "},"N":{"ha":1019,"x_min":117,"x_max":903,"o":"m 253 0 l 117 0 l 117 1004 l 253 1004 l 767 228 l 767 1004 l 903 1004 l 903 0 l 767 0 l 253 776 l 253 0 z "},"O":{"ha":1079,"x_min":57,"x_max":1022,"o":"m 888 877 q 955 805 888 877 q 1022 503 1022 732 q 887 128 1022 274 q 538 -17 751 -17 q 191 128 325 -17 q 57 503 57 274 q 192 876 57 731 q 539 1022 326 1022 q 888 877 753 1022 m 879 503 q 785 784 879 678 q 539 890 692 890 q 293 784 386 890 q 200 503 200 678 q 293 221 200 328 q 539 114 386 114 q 785 222 692 114 q 879 503 879 329 z "},"P":{"ha":868,"x_min":117,"x_max":831,"o":"m 507 358 l 253 358 l 253 0 l 117 0 l 117 1004 l 507 1004 q 742 916 654 1004 q 831 682 831 828 q 742 449 831 540 q 507 358 653 358 m 483 882 l 253 882 l 253 481 l 478 481 q 633 535 578 481 q 688 683 688 589 q 633 830 688 778 q 483 882 579 882 z "},"Q":{"ha":1079,"x_min":57,"x_max":1022,"o":"m 908 -67 l 800 56 q 538 -17 682 -17 q 191 128 325 -17 q 57 503 57 274 q 192 876 57 731 q 539 1022 326 1022 q 888 877 753 1022 q 1022 503 1022 732 q 892 133 1022 279 l 997 14 l 908 -67 m 879 503 q 785 784 879 678 q 539 890 692 890 q 293 784 386 890 q 200 503 200 678 q 293 221 200 328 q 539 114 386 114 q 708 158 635 114 l 576 307 l 665 388 l 799 238 q 879 503 879 342 z "},"R":{"ha":908,"x_min":117,"x_max":849,"o":"m 253 0 l 117 0 l 117 1004 l 496 1004 q 748 924 657 1004 q 839 703 839 843 q 788 526 839 599 q 644 424 738 454 l 849 0 l 697 0 l 510 397 l 253 397 l 253 0 m 253 882 l 253 518 l 497 518 q 644 567 592 518 q 696 701 696 615 q 643 835 696 789 q 496 882 590 882 l 253 882 z "},"S":{"ha":801,"x_min":44,"x_max":747,"o":"m 58 733 q 153 942 58 863 q 404 1022 249 1022 q 635 947 547 1022 q 731 742 722 872 l 593 742 q 538 858 588 817 q 403 900 488 900 q 251 856 308 900 q 194 738 194 811 q 335 586 194 619 l 500 547 q 747 279 747 490 q 651 64 747 144 q 393 -17 554 -17 q 144 58 239 -17 q 44 263 50 133 l 183 263 q 242 148 186 190 q 393 106 299 106 q 552 149 493 106 q 611 268 611 193 q 472 419 611 388 l 307 457 q 58 733 58 514 z "},"T":{"ha":781,"x_min":19,"x_max":760,"o":"m 19 879 l 19 1004 l 760 1004 l 760 879 l 458 879 l 458 0 l 322 0 l 322 879 l 19 879 z "},"U":{"ha":988,"x_min":110,"x_max":878,"o":"m 110 357 l 110 1004 l 246 1004 l 246 365 q 310 180 246 244 q 494 115 375 115 q 676 181 613 115 q 740 365 740 246 l 740 1004 l 878 1004 l 878 357 q 775 84 878 185 q 494 -17 672 -17 q 213 83 317 -17 q 110 357 110 183 z "},"V":{"ha":929,"x_min":14,"x_max":915,"o":"m 396 0 l 14 1004 l 160 1004 l 404 363 q 467 174 439 274 q 531 364 496 271 l 774 1004 l 915 1004 l 538 0 l 396 0 z "},"W":{"ha":1396,"x_min":21,"x_max":1375,"o":"m 319 0 l 21 1004 l 163 1004 l 346 390 q 388 208 374 285 q 435 390 401 274 l 625 1004 l 772 1004 l 961 390 q 1007 208 988 306 q 1051 389 1028 311 l 1236 1004 l 1375 1004 l 1072 0 l 942 0 l 699 794 l 453 0 l 319 0 z "},"X":{"ha":896,"x_min":22,"x_max":876,"o":"m 367 501 l 24 1004 l 186 1004 l 343 781 q 450 604 406 689 l 715 1004 l 872 1004 l 536 503 l 876 0 l 715 0 l 561 221 q 451 397 507 301 l 182 0 l 22 0 l 367 501 z "},"Y":{"ha":842,"x_min":14,"x_max":828,"o":"m 354 408 l 14 1004 l 167 1004 l 390 603 q 424 536 400 586 l 457 603 l 679 1004 l 828 1004 l 490 408 l 490 0 l 354 0 l 354 408 z "},"Z":{"ha":810,"x_min":50,"x_max":760,"o":"m 760 0 l 50 0 l 50 126 l 589 879 l 58 879 l 58 1004 l 758 1004 l 758 882 l 215 126 l 760 126 l 760 0 z "},"[":{"ha":388,"x_min":82,"x_max":381,"o":"m 201 -1 l 381 -1 l 381 -104 l 82 -104 l 82 1119 l 381 1119 l 381 1015 l 201 1015 l 201 -1 z "},"\\":{"ha":522,"x_min":0,"x_max":522,"o":"m 131 1003 l 522 0 l 393 0 l 0 1003 l 131 1003 z "},"]":{"ha":388,"x_min":7,"x_max":306,"o":"m 7 -104 l 7 -1 l 186 -1 l 186 1015 l 7 1015 l 7 1119 l 306 1119 l 306 -104 l 7 -104 z "},"^":{"ha":694,"x_min":99,"x_max":596,"o":"m 214 556 l 99 556 l 283 1004 l 411 1004 l 596 556 l 481 556 l 347 889 l 214 556 z "},"_":{"ha":736,"x_min":83,"x_max":653,"o":"m 83 -128 l 83 -25 l 653 -25 l 653 -128 l 83 -128 z "},"`":{"ha":340,"x_min":61,"x_max":281,"o":"m 281 1067 l 181 1067 l 61 1251 l 189 1251 l 281 1067 z "},"a":{"ha":742,"x_min":61,"x_max":656,"o":"m 293 -17 q 123 40 185 -17 q 61 189 61 96 q 127 338 61 282 q 314 404 193 394 l 528 421 l 528 440 q 368 594 528 594 q 241 560 286 594 q 196 464 196 525 l 82 464 q 162 634 82 569 q 374 699 242 699 q 580 629 504 699 q 656 426 656 560 l 656 0 l 544 0 l 531 110 q 440 17 504 51 q 293 -17 375 -17 m 331 85 q 476 141 424 85 q 529 293 529 197 l 529 329 l 356 315 q 193 193 193 300 q 229 113 193 140 q 331 85 265 85 z "},"b":{"ha":833,"x_min":94,"x_max":783,"o":"m 213 0 l 94 0 l 94 1022 l 225 1022 l 225 563 q 323 663 258 628 q 472 699 388 699 q 699 597 615 699 q 783 336 783 496 q 697 81 783 179 q 464 -17 610 -17 q 319 19 382 -17 q 222 124 256 56 l 213 0 m 226 342 q 284 167 226 233 q 440 101 342 101 q 596 168 539 101 q 653 342 653 235 q 596 514 653 447 q 440 581 539 581 q 284 514 342 581 q 226 342 226 447 z "},"c":{"ha":742,"x_min":50,"x_max":699,"o":"m 50 339 q 142 599 50 499 q 383 699 235 699 q 595 631 511 699 q 697 450 679 564 l 567 450 q 502 548 550 514 q 388 582 454 582 q 237 516 294 582 q 179 340 179 450 q 234 165 179 231 q 382 100 289 100 q 501 134 451 100 q 568 229 550 168 l 699 229 q 592 51 679 118 q 382 -17 504 -17 q 141 81 232 -17 q 50 339 50 178 z "},"d":{"ha":833,"x_min":50,"x_max":739,"o":"m 367 -17 q 135 81 221 -17 q 50 338 50 179 q 137 598 50 497 q 372 699 224 699 q 513 665 451 699 q 610 569 575 632 l 610 1022 l 739 1022 l 739 0 l 622 0 l 611 124 q 514 19 578 56 q 367 -17 450 -17 m 238 168 q 266 135 238 168 q 393 101 294 101 q 550 168 492 101 q 608 342 608 235 q 550 514 608 447 q 393 581 492 581 q 238 515 294 581 q 182 342 182 449 q 238 168 182 235 z "},"e":{"ha":753,"x_min":50,"x_max":703,"o":"m 388 -17 q 144 82 238 -17 q 50 339 50 181 q 142 599 50 499 q 382 699 235 699 q 614 607 526 699 q 701 364 701 515 l 701 315 l 176 314 q 238 149 183 207 q 390 92 293 92 q 581 211 546 92 l 703 211 q 596 42 678 101 q 388 -17 514 -17 m 382 589 q 244 540 297 589 q 179 401 192 492 l 571 401 q 519 538 571 486 q 382 589 468 589 z "},"f":{"ha":440,"x_min":22,"x_max":418,"o":"m 22 679 l 122 679 l 122 788 q 181 965 122 907 q 338 1022 239 1022 q 418 1017 383 1022 l 418 904 l 360 904 q 276 876 300 904 q 253 788 253 847 l 253 679 l 414 679 l 414 569 l 253 569 l 253 0 l 122 0 l 122 569 l 22 569 l 22 679 z "},"g":{"ha":831,"x_min":51,"x_max":736,"o":"m 51 357 q 140 601 51 504 q 372 699 228 699 q 516 663 454 699 q 610 564 578 628 l 619 679 l 736 679 l 736 28 q 644 -228 736 -133 q 396 -322 551 -322 q 168 -249 257 -322 q 60 -46 79 -175 l 190 -46 q 257 -162 203 -121 q 396 -204 311 -204 q 549 -147 492 -204 q 607 8 607 -89 l 607 144 q 510 51 574 85 q 367 18 447 18 q 138 115 225 18 q 51 357 51 211 m 182 360 q 238 197 182 261 q 389 132 294 132 q 544 195 486 132 q 601 360 601 258 q 545 522 601 460 q 390 585 489 585 q 238 521 294 585 q 182 360 182 457 z "},"h":{"ha":799,"x_min":94,"x_max":713,"o":"m 225 1 l 94 1 l 94 1022 l 225 1022 l 225 575 q 318 665 258 632 q 456 699 378 699 q 648 624 583 699 q 713 415 713 549 l 713 0 l 582 0 l 582 386 q 419 579 582 579 q 276 520 328 579 q 225 371 225 461 l 225 1 z "},"i":{"ha":319,"x_min":72,"x_max":244,"o":"m 219 866 q 207 853 219 866 q 158 840 194 840 q 97 866 122 840 q 72 926 72 892 q 97 988 72 963 q 158 1013 122 1013 q 219 988 194 1013 q 244 926 244 963 q 219 866 244 892 m 94 0 l 94 679 l 225 679 l 225 0 l 94 0 z "},"j":{"ha":319,"x_min":-78,"x_max":246,"o":"m 160 840 q 99 865 124 840 q 74 926 74 890 q 99 988 74 963 q 160 1013 124 1013 q 220 988 194 1013 q 246 926 246 963 q 220 866 246 892 q 160 840 194 840 m -78 -308 l -56 -190 q 7 -200 -18 -200 q 74 -173 53 -200 q 94 -87 94 -146 l 94 679 l 225 679 l 225 -100 q 171 -262 225 -203 q 18 -321 117 -321 q -78 -308 -33 -321 z "},"k":{"ha":706,"x_min":97,"x_max":693,"o":"m 228 0 l 97 0 l 97 1022 l 228 1022 l 228 360 l 529 679 l 693 679 l 433 408 l 692 0 l 542 0 l 343 314 l 228 193 l 228 0 z "},"l":{"ha":325,"x_min":97,"x_max":228,"o":"m 228 0 l 97 0 l 97 1022 l 228 1022 l 228 0 z "},"m":{"ha":1197,"x_min":94,"x_max":1111,"o":"m 225 0 l 94 0 l 94 679 l 211 679 l 224 590 q 303 669 250 640 q 426 699 357 699 q 642 561 585 699 q 724 662 665 625 q 861 699 782 699 q 1044 631 978 699 q 1111 444 1111 563 l 1111 0 l 983 0 l 983 413 q 942 536 983 492 q 832 581 901 581 q 713 532 758 581 q 668 403 668 483 l 668 0 l 539 0 l 539 414 q 499 536 539 493 q 389 579 458 579 q 269 531 314 579 q 225 403 225 483 l 225 0 z "},"n":{"ha":799,"x_min":94,"x_max":713,"o":"m 225 0 l 94 0 l 94 679 l 213 679 l 226 575 q 319 666 258 633 q 451 699 379 699 q 647 624 582 699 q 713 415 713 550 l 713 0 l 582 0 l 582 386 q 418 579 582 579 q 276 519 328 579 q 225 360 225 460 l 225 0 z "},"o":{"ha":807,"x_min":50,"x_max":757,"o":"m 150 83 q 100 133 150 83 q 50 340 50 183 q 150 597 50 497 q 404 697 250 697 q 657 597 557 697 q 757 340 757 497 q 657 83 757 183 q 404 -17 557 -17 q 150 83 250 -17 m 244 514 q 213 481 244 514 q 182 340 182 447 q 244 167 182 233 q 404 100 306 100 q 565 167 503 100 q 626 340 626 235 q 565 513 626 446 q 404 581 503 581 q 244 514 306 581 z "},"p":{"ha":833,"x_min":94,"x_max":783,"o":"m 94 -304 l 94 679 l 213 679 l 222 557 q 321 662 256 625 q 468 699 386 699 q 698 601 613 699 q 783 344 783 503 q 699 83 783 185 q 468 -18 615 -18 q 322 15 386 -18 q 225 111 258 49 l 225 -304 l 94 -304 m 226 339 q 284 167 226 233 q 440 100 342 100 q 596 167 539 100 q 653 339 653 233 q 596 513 653 446 q 440 579 539 579 q 284 513 342 579 q 226 339 226 447 z "},"q":{"ha":833,"x_min":50,"x_max":739,"o":"m 50 344 q 136 601 50 503 q 367 699 222 699 q 513 662 449 699 q 611 557 578 625 l 622 679 l 739 679 l 739 -304 l 610 -304 l 610 111 q 511 15 575 49 q 365 -18 447 -18 q 135 83 219 -18 q 50 344 50 185 m 238 513 q 210 479 238 513 q 182 339 182 446 q 238 166 182 232 q 393 100 294 100 q 550 167 492 100 q 608 339 608 233 q 550 513 608 446 q 393 579 492 579 q 238 513 294 579 z "},"r":{"ha":511,"x_min":94,"x_max":483,"o":"m 483 685 l 483 565 l 425 565 q 278 511 332 565 q 225 360 225 457 l 225 0 l 94 0 l 94 678 l 217 678 l 225 575 q 296 661 246 629 q 414 693 346 693 q 483 685 444 693 z "},"s":{"ha":622,"x_min":39,"x_max":572,"o":"m 39 197 l 164 197 q 201 116 164 146 q 303 86 238 86 q 409 113 371 86 q 447 186 447 139 q 426 244 447 222 q 354 278 406 265 l 235 306 q 57 494 57 349 q 128 643 57 588 q 313 699 199 699 q 491 641 424 699 q 561 486 558 583 l 436 486 q 400 567 433 538 q 308 597 367 597 q 214 572 247 597 q 181 499 181 546 q 281 406 181 431 l 400 376 q 531 313 489 356 q 572 194 572 269 q 497 41 572 99 q 300 -17 422 -17 q 110 42 181 -17 q 39 197 39 100 z "},"t":{"ha":442,"x_min":22,"x_max":419,"o":"m 286 0 l 156 0 l 156 569 l 22 569 l 22 679 l 156 679 l 156 892 l 286 892 l 286 679 l 419 679 l 419 569 l 286 569 l 286 0 z "},"u":{"ha":788,"x_min":86,"x_max":693,"o":"m 564 679 l 693 679 l 693 0 l 576 0 l 563 103 q 471 16 533 49 q 333 -17 408 -17 q 151 57 217 -17 q 86 257 86 131 l 86 679 l 217 679 l 217 300 q 379 99 217 99 q 517 156 469 99 q 564 321 564 213 l 564 679 z "},"v":{"ha":707,"x_min":11,"x_max":697,"o":"m 285 0 l 11 679 l 150 679 l 299 300 q 353 138 338 194 q 410 300 365 188 l 561 679 l 697 679 l 414 0 l 285 0 z "},"w":{"ha":1067,"x_min":18,"x_max":1049,"o":"m 240 0 l 18 679 l 153 679 l 265 326 q 307 165 290 244 q 351 326 319 235 l 465 679 l 599 679 l 711 326 q 756 165 735 254 q 799 326 772 243 l 913 679 l 1049 679 l 817 0 l 693 0 l 575 364 q 532 522 543 461 q 488 363 522 478 l 369 0 l 240 0 z "},"x":{"ha":669,"x_min":14,"x_max":656,"o":"m 164 0 l 14 0 l 251 336 l 15 679 l 167 679 l 339 426 l 507 679 l 656 679 l 419 336 l 651 0 l 500 0 l 331 249 l 164 0 z "},"y":{"ha":692,"x_min":11,"x_max":682,"o":"m 29 -304 l 29 -197 l 117 -197 q 206 -179 172 -197 q 261 -101 239 -161 l 285 -36 l 11 679 l 149 679 l 346 132 l 547 679 l 682 679 l 361 -153 q 274 -278 326 -239 q 143 -318 222 -318 q 29 -304 88 -318 z "},"z":{"ha":635,"x_min":53,"x_max":582,"o":"m 582 0 l 53 0 l 53 106 l 419 569 l 53 569 l 53 679 l 582 679 l 582 572 l 213 110 l 582 110 l 582 0 z "},"{":{"ha":442,"x_min":63,"x_max":435,"o":"m 63 454 l 63 561 q 193 671 193 561 l 193 971 q 236 1078 193 1038 q 350 1119 279 1119 l 435 1119 l 435 1015 l 369 1015 q 326 999 342 1015 q 311 953 311 982 l 311 658 q 208 508 311 540 q 311 357 311 475 l 311 63 q 326 15 311 32 q 369 -1 342 -1 l 435 -1 l 435 -104 l 350 -104 q 235 -64 278 -104 q 193 43 193 -24 l 193 344 q 63 454 193 454 z "},"|":{"ha":449,"x_min":172,"x_max":276,"o":"m 172 -121 l 172 1099 l 276 1099 l 276 -121 l 172 -121 z "},"}":{"ha":442,"x_min":7,"x_max":379,"o":"m 93 -104 l 7 -104 l 7 -1 l 72 -1 q 115 15 100 -1 q 131 63 131 32 l 131 357 q 235 508 131 474 q 131 658 131 540 l 131 953 q 115 999 131 982 q 72 1015 100 1015 l 7 1015 l 7 1119 l 93 1119 q 207 1078 164 1119 q 250 971 250 1038 l 250 671 q 379 561 250 561 l 379 454 q 250 344 250 454 l 250 43 q 208 -64 250 -24 q 93 -104 165 -104 z "},"~":{"ha":917,"x_min":111,"x_max":806,"o":"m 701 526 l 806 526 q 756 365 806 428 q 624 303 706 303 q 506 333 567 303 q 391 394 444 364 q 300 425 338 425 q 238 398 257 425 q 215 315 218 371 l 111 315 q 161 474 111 413 q 293 535 211 535 q 406 503 346 535 q 520 442 465 472 q 617 411 575 411 q 701 526 697 411 z "},"¡":{"ha":408,"x_min":104,"x_max":303,"o":"m 204 1024 q 274 994 244 1024 q 303 925 303 965 q 274 857 303 886 q 204 828 244 828 q 133 856 163 828 q 104 925 104 885 q 133 994 104 965 q 204 1024 163 1024 m 153 704 l 254 704 q 279 235 279 519 l 279 0 l 129 0 l 129 235 q 153 704 129 525 z "},"¢":{"ha":779,"x_min":64,"x_max":722,"o":"m 343 -1 l 343 150 q 141 264 218 169 q 64 500 64 358 q 140 738 64 642 q 343 853 217 833 l 343 1004 l 457 1004 l 457 853 q 636 774 567 839 q 721 608 706 710 l 589 608 q 403 739 556 739 q 253 674 310 739 q 196 500 196 608 q 254 329 196 394 q 404 264 313 264 q 590 393 553 264 l 722 393 q 634 227 704 292 q 457 149 564 163 l 457 -1 l 343 -1 z "},"£":{"ha":872,"x_min":42,"x_max":815,"o":"m 517 0 l 42 0 l 42 126 q 161 194 115 136 q 207 329 207 251 q 185 453 207 381 l 49 453 l 49 560 l 147 560 q 115 717 115 649 q 206 937 115 851 q 444 1022 297 1022 q 675 945 586 1022 q 772 733 764 868 l 635 733 q 578 858 629 815 q 440 900 526 900 q 299 851 351 900 q 247 718 247 803 q 282 560 247 661 l 614 560 l 614 453 l 319 453 q 338 333 338 392 q 306 208 338 264 q 218 126 275 151 l 500 126 q 642 174 600 126 q 685 322 683 221 l 815 322 q 739 83 815 165 q 517 0 663 0 z "},"¤":{"ha":928,"x_min":75,"x_max":851,"o":"m 765 114 l 657 221 q 464 161 568 161 q 271 221 357 161 l 161 114 l 75 201 l 185 308 q 126 497 126 396 q 185 689 126 601 l 75 796 l 161 883 l 271 776 q 464 838 356 838 q 657 776 572 838 l 765 883 l 851 796 l 743 690 q 803 497 803 601 q 743 307 803 393 l 851 201 l 765 114 m 682 497 q 618 651 682 588 q 464 715 554 715 q 310 651 374 715 q 247 497 247 588 q 311 345 247 408 q 464 282 375 282 q 617 345 553 282 q 682 497 682 408 z "},"¥":{"ha":865,"x_min":28,"x_max":838,"o":"m 328 497 l 28 1004 l 182 1004 l 433 550 l 685 1004 l 838 1004 l 540 497 l 739 497 l 739 396 l 499 396 l 499 304 l 739 304 l 739 203 l 499 203 l 499 0 l 369 0 l 369 203 l 128 203 l 128 304 l 369 304 l 369 396 l 128 396 l 128 497 l 328 497 z "},"¦":{"ha":449,"x_min":172,"x_max":276,"o":"m 276 1099 l 276 606 l 172 606 l 172 1099 l 276 1099 m 172 -121 l 172 374 l 276 374 l 276 -121 l 172 -121 z "},"§":{"ha":658,"x_min":50,"x_max":608,"o":"m 608 513 q 572 408 608 456 q 475 338 536 360 q 581 181 581 290 q 509 38 581 93 q 325 -17 438 -17 q 147 41 214 -17 q 76 196 79 99 l 200 196 q 236 114 203 143 q 329 85 269 85 q 424 110 390 85 q 457 183 457 136 q 356 278 457 257 l 221 307 q 50 494 50 346 q 85 599 50 551 q 182 669 121 646 q 78 825 78 718 q 149 968 78 913 q 333 1024 221 1024 q 512 966 444 1024 q 582 811 579 908 l 457 811 q 422 893 456 864 q 329 922 389 922 q 235 897 268 922 q 201 824 201 871 q 301 729 201 750 l 436 699 q 608 513 608 658 m 485 503 q 444 588 485 557 q 329 619 404 619 q 214 588 254 619 q 174 503 174 557 q 214 419 174 450 q 329 388 254 388 q 444 419 404 388 q 485 503 485 450 z "},"¨":{"ha":546,"x_min":82,"x_max":465,"o":"m 161 1089 q 105 1112 128 1089 q 82 1168 82 1135 q 106 1224 82 1200 q 161 1249 129 1249 q 217 1224 193 1249 q 242 1168 242 1200 q 217 1113 242 1136 q 161 1089 193 1089 m 385 1089 q 328 1112 351 1089 q 306 1168 306 1135 q 329 1224 306 1200 q 385 1249 353 1249 q 441 1224 417 1249 q 465 1168 465 1200 q 441 1113 465 1136 q 385 1089 417 1089 z "},"©":{"ha":1138,"x_min":56,"x_max":1082,"o":"m 933 132 q 859 56 933 132 q 568 -19 785 -19 q 203 132 351 -19 q 56 503 56 283 q 204 872 56 721 q 568 1022 353 1022 q 933 872 785 1022 q 1082 503 1082 722 q 933 132 1082 283 m 267 191 q 327 128 267 191 q 568 65 388 65 q 870 191 749 65 q 992 503 992 317 q 870 813 992 688 q 568 938 749 938 q 267 813 389 938 q 146 503 146 688 q 267 191 146 317 m 311 500 q 385 701 311 622 q 575 779 460 779 q 738 728 672 779 q 818 588 803 676 l 711 588 q 578 685 686 685 q 460 633 506 685 q 415 501 415 582 q 459 369 415 419 q 574 318 503 318 q 713 415 685 318 l 818 415 q 736 278 804 331 q 574 225 668 225 q 383 301 456 225 q 311 500 311 376 z "},"«":{"ha":908,"x_min":56,"x_max":853,"o":"m 353 0 l 56 339 l 353 679 l 514 679 l 217 339 l 514 0 l 353 0 m 692 0 l 394 339 l 692 679 l 853 679 l 556 339 l 853 0 l 692 0 z "},"¬":{"ha":917,"x_min":96,"x_max":772,"o":"m 772 494 l 772 117 l 647 117 l 647 381 l 96 381 l 96 494 l 772 494 z "},"®":{"ha":683,"x_min":56,"x_max":628,"o":"m 547 534 q 506 493 547 534 q 343 453 465 453 q 138 535 221 453 q 56 738 56 617 q 138 940 56 858 q 343 1022 221 1022 q 547 941 465 1022 q 628 738 628 860 q 547 534 628 615 m 174 567 q 208 534 174 567 q 343 500 242 500 q 511 567 444 500 q 578 738 578 635 q 511 908 578 840 q 343 975 444 975 q 174 908 242 975 q 107 738 107 840 q 174 567 107 635 m 282 582 l 231 582 l 231 901 l 356 901 q 440 876 408 901 q 472 804 472 850 q 406 713 472 736 l 476 582 l 419 582 l 358 699 l 282 699 l 282 582 m 417 801 q 354 853 417 853 l 282 853 l 282 747 l 354 747 q 417 801 417 747 z "},"¯":{"ha":513,"x_min":83,"x_max":429,"o":"m 83 1131 l 83 1226 l 429 1226 l 429 1131 l 83 1131 z "},"°":{"ha":397,"x_min":26,"x_max":371,"o":"m 371 850 q 322 726 371 775 q 199 678 272 678 q 76 726 125 678 q 26 850 26 775 q 76 973 26 924 q 199 1022 125 1022 q 322 973 272 1022 q 371 850 371 924 m 265 782 q 277 795 265 782 q 290 850 290 808 q 265 918 290 892 q 199 944 239 944 q 133 918 158 944 q 107 850 107 892 q 133 782 107 808 q 199 756 158 756 q 265 782 239 756 z "},"±":{"ha":917,"x_min":111,"x_max":806,"o":"m 111 590 l 403 590 l 403 833 l 514 833 l 514 590 l 806 590 l 806 478 l 514 478 l 514 235 l 403 235 l 403 478 l 111 478 l 111 590 m 111 0 l 111 113 l 806 113 l 806 0 l 111 0 z "},"²":{"ha":488,"x_min":36,"x_max":453,"o":"m 453 458 l 39 458 l 39 532 l 258 713 q 351 872 351 789 q 243 989 351 989 q 159 955 189 989 q 129 858 129 921 l 36 858 q 94 1017 39 958 q 243 1075 150 1075 q 392 1022 338 1075 q 446 876 446 969 q 321 656 446 758 l 186 546 l 453 546 l 453 458 z "},"³":{"ha":488,"x_min":29,"x_max":453,"o":"m 197 763 l 156 763 l 156 826 l 325 978 l 57 978 l 57 1065 l 439 1065 l 439 981 l 278 838 q 403 778 354 828 q 453 647 453 728 q 391 503 453 557 q 238 449 329 449 q 88 503 146 449 q 29 650 29 558 l 122 650 q 153 565 122 596 q 239 535 185 535 q 325 565 292 535 q 358 649 358 596 q 330 726 358 696 q 246 761 301 756 q 197 763 231 763 z "},"´":{"ha":342,"x_min":60,"x_max":281,"o":"m 281 1250 l 161 1067 l 60 1067 l 154 1250 l 281 1250 z "},"µ":{"ha":788,"x_min":86,"x_max":693,"o":"m 217 -304 l 86 -304 l 86 679 l 217 679 l 217 300 q 379 99 217 99 q 517 156 469 99 q 564 321 564 213 l 564 679 l 693 679 l 693 0 l 576 0 l 563 103 q 356 -17 497 -17 q 204 54 258 -17 l 217 -304 z "},"¶":{"ha":815,"x_min":39,"x_max":669,"o":"m 39 725 q 113 929 39 854 q 303 1004 186 1004 l 485 1004 l 485 -106 l 369 -106 l 369 443 l 303 443 q 113 519 186 443 q 39 725 39 594 m 669 -108 l 606 -108 l 606 1003 l 669 1003 l 669 -108 z "},"·":{"ha":419,"x_min":75,"x_max":343,"o":"m 303 277 q 284 257 303 277 q 210 238 264 238 q 115 277 156 238 q 75 369 75 317 q 115 465 75 425 q 210 504 154 504 q 304 465 265 504 q 343 369 343 425 q 303 277 343 317 z "},"¸":{"ha":338,"x_min":50,"x_max":282,"o":"m 50 -251 l 50 -185 q 135 -208 97 -208 q 184 -195 165 -208 q 203 -158 203 -182 q 146 -111 203 -111 q 78 -126 113 -111 l 63 -86 l 125 46 l 169 46 l 169 6 l 136 -62 q 179 -56 160 -56 q 252 -82 222 -56 q 282 -156 282 -108 q 242 -243 282 -212 q 143 -274 203 -274 q 50 -251 86 -274 z "},"¹":{"ha":326,"x_min":29,"x_max":263,"o":"m 168 978 l 29 978 l 29 1065 l 263 1065 l 263 458 l 168 458 l 168 978 z "},"»":{"ha":908,"x_min":56,"x_max":853,"o":"m 217 0 l 56 0 l 353 339 l 56 679 l 217 679 l 514 339 l 217 0 m 556 0 l 394 0 l 692 339 l 394 679 l 556 679 l 853 339 l 556 0 z "},"¼":{"ha":906,"x_min":25,"x_max":871,"o":"m 142 928 l 25 928 l 25 1004 l 225 1004 l 225 525 l 142 525 l 142 928 m 822 986 l 174 0 l 64 0 l 710 986 l 822 986 m 731 93 l 489 93 l 489 164 l 710 481 l 811 481 l 811 169 l 871 169 l 871 93 l 811 93 l 811 0 l 731 0 l 731 93 m 581 169 l 731 169 l 731 383 l 581 169 z "},"½":{"ha":951,"x_min":25,"x_max":921,"o":"m 142 928 l 25 928 l 25 1004 l 225 1004 l 225 525 l 142 525 l 142 928 m 822 986 l 174 0 l 64 0 l 710 986 l 822 986 m 921 0 l 581 0 l 581 60 l 738 186 q 822 324 822 256 q 801 389 822 365 q 740 413 779 413 q 677 389 700 413 q 654 325 654 365 l 569 325 q 617 443 569 397 q 742 489 665 489 q 863 445 818 489 q 908 328 908 401 q 792 133 908 226 l 721 76 l 921 76 l 921 0 z "},"¾":{"ha":957,"x_min":28,"x_max":922,"o":"m 28 678 l 113 678 q 135 615 113 638 q 199 592 158 592 q 260 613 238 592 q 283 672 283 635 q 256 738 283 714 q 175 761 228 761 l 126 761 l 126 817 l 249 928 l 51 928 l 51 1004 l 356 1004 l 356 932 l 236 822 q 331 774 294 813 q 367 675 367 736 q 319 558 367 601 q 197 515 272 515 q 76 559 124 515 q 28 678 28 603 m 874 986 l 225 0 l 114 0 l 761 986 l 874 986 m 782 93 l 540 93 l 540 164 l 761 481 l 861 481 l 861 169 l 922 169 l 922 93 l 861 93 l 861 0 l 782 0 l 782 93 m 632 169 l 782 169 l 782 383 l 632 169 z "},"¿":{"ha":740,"x_min":46,"x_max":694,"o":"m 399 1024 q 469 994 440 1024 q 499 925 499 965 q 469 856 499 885 q 399 826 440 826 q 329 856 358 826 q 300 925 300 886 q 329 994 300 964 q 399 1024 358 1024 m 344 761 l 465 761 l 465 726 q 426 594 465 647 q 314 486 388 542 q 249 431 271 451 q 205 372 226 410 q 183 290 183 333 q 233 157 183 208 q 368 106 283 106 q 505 163 450 106 q 560 304 560 219 l 694 304 q 601 74 694 165 q 367 -18 507 -18 q 133 65 219 -18 q 46 283 46 149 q 60 378 46 335 q 105 455 75 421 q 158 509 135 489 q 222 558 182 529 q 315 641 285 604 q 344 726 344 678 l 344 761 z "},"À":{"ha":919,"x_min":17,"x_max":903,"o":"m 507 1078 l 407 1078 l 289 1263 l 415 1263 l 507 1078 m 158 0 l 17 0 l 383 1004 l 535 1004 l 903 0 l 760 0 l 669 250 l 247 250 l 158 0 m 442 788 l 289 368 l 629 368 l 475 788 q 458 846 463 822 q 442 788 454 825 z "},"Á":{"ha":919,"x_min":17,"x_max":903,"o":"m 632 1263 l 513 1078 l 411 1078 l 506 1263 l 632 1263 m 158 0 l 17 0 l 383 1004 l 535 1004 l 903 0 l 760 0 l 669 250 l 247 250 l 158 0 m 442 788 l 289 368 l 629 368 l 475 788 q 458 846 463 822 q 442 788 454 825 z "},"Â":{"ha":919,"x_min":17,"x_max":903,"o":"m 379 1078 l 272 1078 l 386 1269 l 532 1269 l 647 1078 l 539 1078 l 460 1208 l 379 1078 m 158 0 l 17 0 l 383 1004 l 535 1004 l 903 0 l 760 0 l 669 250 l 247 250 l 158 0 m 442 788 l 289 368 l 629 368 l 475 788 q 458 846 463 822 q 442 788 454 825 z "},"Ã":{"ha":919,"x_min":17,"x_max":903,"o":"m 329 1096 l 246 1096 q 270 1219 239 1174 q 360 1265 301 1265 q 460 1226 404 1265 q 542 1188 517 1188 q 589 1265 589 1188 l 674 1265 q 646 1139 678 1182 q 553 1096 614 1096 q 449 1135 504 1096 q 375 1174 394 1174 q 329 1096 329 1174 m 158 0 l 17 0 l 383 1004 l 535 1004 l 903 0 l 760 0 l 669 250 l 247 250 l 158 0 m 442 788 l 289 368 l 629 368 l 475 788 q 458 846 463 822 q 442 788 454 825 z "},"Ä":{"ha":919,"x_min":17,"x_max":903,"o":"m 349 1100 q 292 1124 315 1100 q 268 1181 268 1147 q 292 1237 268 1213 q 349 1261 315 1261 q 404 1237 381 1261 q 428 1181 428 1213 q 404 1124 428 1147 q 349 1100 381 1100 m 572 1100 q 515 1124 539 1100 q 492 1181 492 1147 q 515 1237 492 1213 q 572 1261 539 1261 q 628 1237 604 1261 q 651 1181 651 1213 q 628 1124 651 1147 q 572 1100 604 1100 m 158 0 l 17 0 l 383 1004 l 535 1004 l 903 0 l 760 0 l 669 250 l 247 250 l 158 0 m 442 788 l 289 368 l 629 368 l 475 788 q 458 846 463 822 q 442 788 454 825 z "},"Å":{"ha":919,"x_min":17,"x_max":903,"o":"m 460 1068 q 342 1114 388 1068 q 297 1231 297 1160 q 344 1347 297 1300 q 460 1393 390 1393 q 576 1347 529 1393 q 624 1231 624 1300 q 576 1115 624 1161 q 460 1068 529 1068 m 401 1169 q 413 1158 401 1169 q 460 1146 424 1146 q 518 1169 496 1146 q 540 1232 540 1193 q 517 1292 540 1268 q 460 1317 494 1317 q 401 1293 424 1317 q 379 1232 379 1269 q 401 1169 379 1193 m 158 0 l 17 0 l 383 1004 l 535 1004 l 903 0 l 760 0 l 669 250 l 247 250 l 158 0 m 442 788 l 289 368 l 629 368 l 475 788 q 458 846 463 822 q 442 788 454 825 z "},"Æ":{"ha":1274,"x_min":10,"x_max":1193,"o":"m 10 0 l 413 1004 l 1193 1004 l 1193 879 l 719 879 l 719 565 l 1146 565 l 1146 444 l 719 444 l 719 126 l 1193 126 l 1193 0 l 583 0 l 583 271 l 267 271 l 161 0 l 10 0 m 313 388 l 583 388 l 583 879 l 504 879 l 313 388 z "},"Ç":{"ha":1032,"x_min":57,"x_max":982,"o":"m 443 -251 l 443 -185 q 529 -208 493 -208 q 578 -195 560 -208 q 597 -158 597 -182 q 540 -111 597 -111 q 472 -126 507 -111 l 457 -86 l 492 -14 q 176 141 294 1 q 57 501 57 281 q 191 877 57 733 q 540 1021 325 1021 q 830 928 710 1021 q 978 681 950 835 l 832 681 q 725 834 804 778 q 536 890 646 890 q 292 785 383 890 q 200 503 200 679 q 292 221 200 326 q 536 115 383 115 q 728 170 646 115 q 838 318 810 225 l 982 318 q 834 82 951 172 q 554 -15 717 -8 l 531 -62 q 574 -56 554 -56 q 647 -82 617 -56 q 676 -156 676 -108 q 637 -243 676 -212 q 538 -274 597 -274 q 443 -251 482 -274 z "},"È":{"ha":810,"x_min":117,"x_max":729,"o":"m 465 1078 l 365 1078 l 246 1263 l 374 1263 l 465 1078 m 729 0 l 117 0 l 117 1004 l 729 1004 l 729 879 l 253 879 l 253 565 l 682 565 l 682 444 l 253 444 l 253 126 l 729 126 l 729 0 z "},"É":{"ha":810,"x_min":117,"x_max":729,"o":"m 590 1263 l 469 1078 l 369 1078 l 463 1263 l 590 1263 m 729 0 l 117 0 l 117 1004 l 729 1004 l 729 879 l 253 879 l 253 565 l 682 565 l 682 444 l 253 444 l 253 126 l 729 126 l 729 0 z "},"Ê":{"ha":810,"x_min":117,"x_max":729,"o":"m 338 1078 l 229 1078 l 344 1269 l 490 1269 l 606 1078 l 497 1078 l 418 1208 l 338 1078 m 729 0 l 117 0 l 117 1004 l 729 1004 l 729 879 l 253 879 l 253 565 l 682 565 l 682 444 l 253 444 l 253 126 l 729 126 l 729 0 z "},"Ë":{"ha":810,"x_min":117,"x_max":729,"o":"m 306 1100 q 249 1124 272 1100 q 226 1181 226 1147 q 250 1237 226 1213 q 306 1261 274 1261 q 362 1237 338 1261 q 386 1181 386 1213 q 362 1124 386 1147 q 306 1100 338 1100 m 585 1124 q 573 1112 585 1124 q 529 1100 561 1100 q 474 1124 497 1100 q 450 1181 450 1147 q 474 1237 450 1213 q 529 1261 497 1261 q 585 1237 561 1261 q 610 1181 610 1213 q 585 1124 610 1147 m 729 0 l 117 0 l 117 1004 l 729 1004 l 729 879 l 253 879 l 253 565 l 682 565 l 682 444 l 253 444 l 253 126 l 729 126 l 729 0 z "},"Ì":{"ha":371,"x_min":14,"x_max":253,"o":"m 233 1078 l 132 1078 l 14 1263 l 142 1263 l 233 1078 m 253 1004 l 253 0 l 117 0 l 117 1004 l 253 1004 z "},"Í":{"ha":371,"x_min":117,"x_max":357,"o":"m 357 1263 l 238 1078 l 138 1078 l 231 1263 l 357 1263 m 253 1004 l 253 0 l 117 0 l 117 1004 l 253 1004 z "},"Î":{"ha":371,"x_min":-3,"x_max":372,"o":"m 106 1078 l -3 1078 l 113 1269 l 258 1269 l 372 1078 l 264 1078 l 185 1208 l 106 1078 m 253 1004 l 253 0 l 117 0 l 117 1004 l 253 1004 z "},"Ï":{"ha":371,"x_min":-7,"x_max":376,"o":"m 74 1100 q 17 1124 40 1100 q -7 1181 -7 1147 q 17 1237 -7 1213 q 74 1261 40 1261 q 129 1237 106 1261 q 153 1181 153 1213 q 129 1124 153 1147 q 74 1100 106 1100 m 297 1100 q 240 1124 264 1100 q 217 1181 217 1147 q 241 1237 217 1213 q 297 1261 265 1261 q 353 1237 329 1261 q 376 1181 376 1213 q 353 1124 376 1147 q 297 1100 329 1100 m 253 1004 l 253 0 l 117 0 l 117 1004 l 253 1004 z "},"Ð":{"ha":1003,"x_min":22,"x_max":946,"o":"m 22 446 l 22 560 l 117 560 l 117 1004 l 443 1004 q 807 865 668 1004 q 946 501 946 726 q 808 139 946 278 q 449 0 671 0 l 117 0 l 117 446 l 22 446 m 464 446 l 253 446 l 253 126 l 439 126 q 706 228 607 126 q 804 501 804 329 q 705 778 804 676 q 433 879 606 879 l 253 879 l 253 560 l 464 560 l 464 446 z "},"Ñ":{"ha":1019,"x_min":117,"x_max":903,"o":"m 383 1096 l 299 1096 q 324 1219 293 1174 q 413 1265 354 1265 q 514 1226 458 1265 q 594 1188 569 1188 q 643 1265 643 1188 l 726 1265 q 700 1139 732 1182 q 607 1096 668 1096 q 502 1135 557 1096 q 428 1174 447 1174 q 383 1096 383 1174 m 253 0 l 117 0 l 117 1004 l 253 1004 l 767 228 l 767 1004 l 903 1004 l 903 0 l 767 0 l 253 776 l 253 0 z "},"Ò":{"ha":1079,"x_min":57,"x_max":1022,"o":"m 588 1078 l 486 1078 l 368 1263 l 496 1263 l 588 1078 m 888 877 q 955 805 888 877 q 1022 503 1022 732 q 887 128 1022 274 q 538 -17 751 -17 q 191 128 325 -17 q 57 503 57 274 q 192 876 57 731 q 539 1022 326 1022 q 888 877 753 1022 m 879 503 q 785 784 879 678 q 539 890 692 890 q 293 784 386 890 q 200 503 200 678 q 293 221 200 328 q 539 114 386 114 q 785 222 692 114 q 879 503 879 329 z "},"Ó":{"ha":1079,"x_min":57,"x_max":1022,"o":"m 711 1263 l 592 1078 l 492 1078 l 585 1263 l 711 1263 m 888 877 q 955 805 888 877 q 1022 503 1022 732 q 887 128 1022 274 q 538 -17 751 -17 q 191 128 325 -17 q 57 503 57 274 q 192 876 57 731 q 539 1022 326 1022 q 888 877 753 1022 m 879 503 q 785 784 879 678 q 539 890 692 890 q 293 784 386 890 q 200 503 200 678 q 293 221 200 328 q 539 114 386 114 q 785 222 692 114 q 879 503 879 329 z "},"Ô":{"ha":1079,"x_min":57,"x_max":1022,"o":"m 460 1078 l 351 1078 l 467 1269 l 613 1269 l 726 1078 l 618 1078 l 539 1208 l 460 1078 m 888 877 q 955 805 888 877 q 1022 503 1022 732 q 887 128 1022 274 q 538 -17 751 -17 q 191 128 325 -17 q 57 503 57 274 q 192 876 57 731 q 539 1022 326 1022 q 888 877 753 1022 m 879 503 q 785 784 879 678 q 539 890 692 890 q 293 784 386 890 q 200 503 200 678 q 293 221 200 328 q 539 114 386 114 q 785 222 692 114 q 879 503 879 329 z "},"Õ":{"ha":1079,"x_min":57,"x_max":1022,"o":"m 408 1096 l 325 1096 q 350 1219 319 1174 q 439 1265 381 1265 q 540 1226 483 1265 q 621 1188 596 1188 q 669 1265 669 1188 l 753 1265 q 726 1139 758 1182 q 632 1096 694 1096 q 528 1135 583 1096 q 454 1174 474 1174 q 408 1096 408 1174 m 888 877 q 955 805 888 877 q 1022 503 1022 732 q 887 128 1022 274 q 538 -17 751 -17 q 191 128 325 -17 q 57 503 57 274 q 192 876 57 731 q 539 1022 326 1022 q 888 877 753 1022 m 879 503 q 785 784 879 678 q 539 890 692 890 q 293 784 386 890 q 200 503 200 678 q 293 221 200 328 q 539 114 386 114 q 785 222 692 114 q 879 503 879 329 z "},"Ö":{"ha":1079,"x_min":57,"x_max":1022,"o":"m 428 1100 q 371 1124 394 1100 q 347 1181 347 1147 q 371 1237 347 1213 q 428 1261 394 1261 q 483 1237 460 1261 q 507 1181 507 1213 q 483 1124 507 1147 q 428 1100 460 1100 m 651 1100 q 594 1124 618 1100 q 571 1181 571 1147 q 595 1237 571 1213 q 651 1261 619 1261 q 707 1237 683 1261 q 731 1181 731 1213 q 707 1124 731 1147 q 651 1100 683 1100 m 888 877 q 955 805 888 877 q 1022 503 1022 732 q 887 128 1022 274 q 538 -17 751 -17 q 191 128 325 -17 q 57 503 57 274 q 192 876 57 731 q 539 1022 326 1022 q 888 877 753 1022 m 879 503 q 785 784 879 678 q 539 890 692 890 q 293 784 386 890 q 200 503 200 678 q 293 221 200 328 q 539 114 386 114 q 785 222 692 114 q 879 503 879 329 z "},"×":{"ha":917,"x_min":138,"x_max":779,"o":"m 218 788 l 458 547 l 700 788 l 779 708 l 538 468 l 779 226 l 700 147 l 458 389 l 217 147 l 138 226 l 379 468 l 139 708 l 218 788 z "},"Ø":{"ha":1079,"x_min":57,"x_max":1022,"o":"m 1022 503 q 887 128 1022 274 q 538 -17 751 -17 q 271 60 389 -17 l 225 0 l 93 0 l 190 129 q 57 503 57 274 q 192 876 57 731 q 539 1022 326 1022 q 811 943 693 1022 l 858 1006 l 988 1006 l 889 875 q 1022 503 1022 731 m 200 503 q 276 242 200 346 l 728 835 q 539 890 649 890 q 293 784 386 890 q 200 503 200 678 m 879 503 q 803 763 879 658 l 353 168 q 539 114 433 114 q 785 222 692 114 q 879 503 879 329 z "},"Ù":{"ha":988,"x_min":110,"x_max":878,"o":"m 542 1078 l 442 1078 l 322 1263 l 450 1263 l 542 1078 m 110 357 l 110 1004 l 246 1004 l 246 365 q 310 180 246 244 q 494 115 375 115 q 676 181 613 115 q 740 365 740 246 l 740 1004 l 878 1004 l 878 357 q 775 84 878 185 q 494 -17 672 -17 q 213 83 317 -17 q 110 357 110 183 z "},"Ú":{"ha":988,"x_min":110,"x_max":878,"o":"m 667 1263 l 546 1078 l 446 1078 l 539 1263 l 667 1263 m 110 357 l 110 1004 l 246 1004 l 246 365 q 310 180 246 244 q 494 115 375 115 q 676 181 613 115 q 740 365 740 246 l 740 1004 l 878 1004 l 878 357 q 775 84 878 185 q 494 -17 672 -17 q 213 83 317 -17 q 110 357 110 183 z "},"Û":{"ha":988,"x_min":110,"x_max":878,"o":"m 414 1078 l 306 1078 l 421 1269 l 567 1269 l 682 1078 l 574 1078 l 494 1208 l 414 1078 m 110 357 l 110 1004 l 246 1004 l 246 365 q 310 180 246 244 q 494 115 375 115 q 676 181 613 115 q 740 365 740 246 l 740 1004 l 878 1004 l 878 357 q 775 84 878 185 q 494 -17 672 -17 q 213 83 317 -17 q 110 357 110 183 z "},"Ü":{"ha":988,"x_min":110,"x_max":878,"o":"m 382 1100 q 326 1124 349 1100 q 303 1181 303 1147 q 326 1237 303 1213 q 382 1261 350 1261 q 438 1237 414 1261 q 463 1181 463 1213 q 438 1124 463 1147 q 382 1100 414 1100 m 606 1100 q 549 1124 572 1100 q 526 1181 526 1147 q 550 1237 526 1213 q 606 1261 574 1261 q 662 1237 638 1261 q 686 1181 686 1213 q 662 1124 686 1147 q 606 1100 638 1100 m 110 357 l 110 1004 l 246 1004 l 246 365 q 310 180 246 244 q 494 115 375 115 q 676 181 613 115 q 740 365 740 246 l 740 1004 l 878 1004 l 878 357 q 775 84 878 185 q 494 -17 672 -17 q 213 83 317 -17 q 110 357 110 183 z "},"Ý":{"ha":842,"x_min":14,"x_max":828,"o":"m 594 1263 l 475 1078 l 375 1078 l 468 1263 l 594 1263 m 354 408 l 14 1004 l 167 1004 l 390 603 q 424 536 400 586 l 457 603 l 679 1004 l 828 1004 l 490 408 l 490 0 l 354 0 l 354 408 z "},"Þ":{"ha":868,"x_min":117,"x_max":831,"o":"m 507 196 l 253 196 l 253 0 l 117 0 l 117 1004 l 253 1004 l 253 815 l 507 815 q 742 729 653 815 q 831 507 831 643 q 741 285 831 374 q 507 196 651 196 m 483 693 l 253 693 l 253 318 l 478 318 q 632 371 576 318 q 688 508 688 424 q 633 643 688 593 q 483 693 578 693 z "},"ß":{"ha":803,"x_min":94,"x_max":761,"o":"m 225 0 l 94 0 l 94 717 q 178 940 94 858 q 403 1022 263 1022 q 610 953 533 1022 q 688 769 688 885 q 655 650 688 703 q 565 572 622 597 q 710 473 658 542 q 761 310 761 404 q 669 86 761 172 q 417 0 576 0 q 300 8 340 0 l 300 119 l 417 119 q 574 174 518 119 q 631 314 631 228 q 571 456 631 406 q 400 506 511 506 l 332 506 l 332 614 l 400 614 q 516 655 474 614 q 558 765 558 696 q 517 872 558 831 q 404 913 476 913 q 274 863 324 913 q 225 726 225 813 l 225 0 z "},"à":{"ha":742,"x_min":61,"x_max":656,"o":"m 426 758 l 326 758 l 208 943 l 335 943 l 426 758 m 293 -17 q 123 40 185 -17 q 61 189 61 96 q 127 338 61 282 q 314 404 193 394 l 528 421 l 528 440 q 368 594 528 594 q 241 560 286 594 q 196 464 196 525 l 82 464 q 162 634 82 569 q 374 699 242 699 q 580 629 504 699 q 656 426 656 560 l 656 0 l 544 0 l 531 110 q 440 17 504 51 q 293 -17 375 -17 m 331 85 q 476 141 424 85 q 529 293 529 197 l 529 329 l 356 315 q 193 193 193 300 q 229 113 193 140 q 331 85 265 85 z "},"á":{"ha":742,"x_min":61,"x_max":656,"o":"m 551 943 l 432 758 l 331 758 l 425 943 l 551 943 m 293 -17 q 123 40 185 -17 q 61 189 61 96 q 127 338 61 282 q 314 404 193 394 l 528 421 l 528 440 q 368 594 528 594 q 241 560 286 594 q 196 464 196 525 l 82 464 q 162 634 82 569 q 374 699 242 699 q 580 629 504 699 q 656 426 656 560 l 656 0 l 544 0 l 531 110 q 440 17 504 51 q 293 -17 375 -17 m 331 85 q 476 141 424 85 q 529 293 529 197 l 529 329 l 356 315 q 193 193 193 300 q 229 113 193 140 q 331 85 265 85 z "},"â":{"ha":742,"x_min":61,"x_max":656,"o":"m 300 758 l 192 758 l 306 950 l 451 950 l 567 758 l 458 758 l 379 889 l 300 758 m 293 -17 q 123 40 185 -17 q 61 189 61 96 q 127 338 61 282 q 314 404 193 394 l 528 421 l 528 440 q 368 594 528 594 q 241 560 286 594 q 196 464 196 525 l 82 464 q 162 634 82 569 q 374 699 242 699 q 580 629 504 699 q 656 426 656 560 l 656 0 l 544 0 l 531 110 q 440 17 504 51 q 293 -17 375 -17 m 331 85 q 476 141 424 85 q 529 293 529 197 l 529 329 l 356 315 q 193 193 193 300 q 229 113 193 140 q 331 85 265 85 z "},"ã":{"ha":742,"x_min":61,"x_max":656,"o":"m 249 776 l 165 776 q 190 900 160 854 q 279 946 221 946 q 380 907 324 946 q 461 868 436 868 q 508 946 508 868 l 593 946 q 566 819 599 863 q 472 776 533 776 q 369 815 424 776 q 294 854 314 854 q 249 776 249 854 m 293 -17 q 123 40 185 -17 q 61 189 61 96 q 127 338 61 282 q 314 404 193 394 l 528 421 l 528 440 q 368 594 528 594 q 241 560 286 594 q 196 464 196 525 l 82 464 q 162 634 82 569 q 374 699 242 699 q 580 629 504 699 q 656 426 656 560 l 656 0 l 544 0 l 531 110 q 440 17 504 51 q 293 -17 375 -17 m 331 85 q 476 141 424 85 q 529 293 529 197 l 529 329 l 356 315 q 193 193 193 300 q 229 113 193 140 q 331 85 265 85 z "},"ä":{"ha":742,"x_min":61,"x_max":656,"o":"m 268 781 q 211 804 235 781 q 188 861 188 828 q 211 917 188 893 q 268 942 235 942 q 324 917 300 942 q 347 861 347 893 q 324 804 347 828 q 268 781 300 781 m 492 781 q 435 804 458 781 q 411 861 411 828 q 435 917 411 893 q 492 942 458 942 q 547 917 524 942 q 571 861 571 893 q 547 804 571 828 q 492 781 524 781 m 293 -17 q 123 40 185 -17 q 61 189 61 96 q 127 338 61 282 q 314 404 193 394 l 528 421 l 528 440 q 368 594 528 594 q 241 560 286 594 q 196 464 196 525 l 82 464 q 162 634 82 569 q 374 699 242 699 q 580 629 504 699 q 656 426 656 560 l 656 0 l 544 0 l 531 110 q 440 17 504 51 q 293 -17 375 -17 m 331 85 q 476 141 424 85 q 529 293 529 197 l 529 329 l 356 315 q 193 193 193 300 q 229 113 193 140 q 331 85 265 85 z "},"å":{"ha":742,"x_min":61,"x_max":656,"o":"m 379 749 q 263 794 308 749 q 217 911 217 840 q 263 1027 217 981 q 379 1074 310 1074 q 496 1027 449 1074 q 543 911 543 981 q 496 795 543 842 q 379 749 449 749 m 321 850 q 332 838 321 850 q 379 826 343 826 q 438 850 415 826 q 460 913 460 874 q 437 973 460 949 q 379 997 414 997 q 321 974 343 997 q 299 913 299 950 q 321 850 299 874 m 293 -17 q 123 40 185 -17 q 61 189 61 96 q 127 338 61 282 q 314 404 193 394 l 528 421 l 528 440 q 368 594 528 594 q 241 560 286 594 q 196 464 196 525 l 82 464 q 162 634 82 569 q 374 699 242 699 q 580 629 504 699 q 656 426 656 560 l 656 0 l 544 0 l 531 110 q 440 17 504 51 q 293 -17 375 -17 m 331 85 q 476 141 424 85 q 529 293 529 197 l 529 329 l 356 315 q 193 193 193 300 q 229 113 193 140 q 331 85 265 85 z "},"æ":{"ha":1225,"x_min":61,"x_max":1175,"o":"m 61 190 q 128 340 61 288 q 310 394 194 392 l 528 400 l 528 440 q 484 554 528 514 q 364 594 440 594 q 240 560 285 594 q 196 464 196 525 l 82 464 q 160 634 82 569 q 367 699 239 699 q 511 667 450 699 q 601 579 572 635 q 854 699 692 699 q 1087 606 1000 699 q 1174 364 1174 514 l 1174 315 l 646 314 q 710 151 654 210 q 863 92 765 92 q 1051 211 1019 92 l 1175 211 q 1068 43 1150 103 q 860 -17 986 -17 q 692 25 765 -17 q 576 142 618 67 q 470 26 543 68 q 301 -17 397 -17 q 124 39 188 -17 q 61 190 61 94 m 854 589 q 714 538 768 589 q 647 400 660 486 l 1043 400 q 992 537 1043 485 q 854 589 942 589 m 229 278 q 211 266 229 278 q 193 197 193 253 q 231 113 193 142 q 335 85 268 85 q 476 135 424 85 q 529 271 529 186 l 529 313 l 342 307 q 229 278 265 304 z "},"ç":{"ha":742,"x_min":50,"x_max":699,"o":"m 50 339 q 142 599 50 499 q 383 699 235 699 q 595 631 511 699 q 697 450 679 564 l 567 450 q 502 548 550 514 q 388 582 454 582 q 237 516 294 582 q 179 340 179 450 q 234 165 179 231 q 382 100 289 100 q 501 134 451 100 q 568 229 550 168 l 699 229 q 601 58 681 125 q 408 -15 522 -8 l 386 -62 q 429 -56 410 -56 q 502 -82 472 -56 q 532 -156 532 -108 q 492 -243 532 -212 q 393 -274 451 -274 q 299 -251 338 -274 l 299 -185 q 383 -208 349 -208 q 434 -194 415 -208 q 453 -158 453 -181 q 394 -111 453 -111 q 326 -126 363 -111 l 313 -86 l 346 -15 q 131 93 211 -3 q 50 339 50 189 z "},"è":{"ha":753,"x_min":50,"x_max":703,"o":"m 431 758 l 331 758 l 213 943 l 339 943 l 431 758 m 388 -17 q 144 82 238 -17 q 50 339 50 181 q 142 599 50 499 q 382 699 235 699 q 614 607 526 699 q 701 364 701 515 l 701 315 l 176 314 q 238 149 183 207 q 390 92 293 92 q 581 211 546 92 l 703 211 q 596 42 678 101 q 388 -17 514 -17 m 382 589 q 244 540 297 589 q 179 401 192 492 l 571 401 q 519 538 571 486 q 382 589 468 589 z "},"é":{"ha":753,"x_min":50,"x_max":703,"o":"m 556 943 l 436 758 l 335 758 l 428 943 l 556 943 m 388 -17 q 144 82 238 -17 q 50 339 50 181 q 142 599 50 499 q 382 699 235 699 q 614 607 526 699 q 701 364 701 515 l 701 315 l 176 314 q 238 149 183 207 q 390 92 293 92 q 581 211 546 92 l 703 211 q 596 42 678 101 q 388 -17 514 -17 m 382 589 q 244 540 297 589 q 179 401 192 492 l 571 401 q 519 538 571 486 q 382 589 468 589 z "},"ê":{"ha":753,"x_min":50,"x_max":703,"o":"m 303 758 l 196 758 l 310 950 l 456 950 l 571 758 l 463 758 l 383 889 l 303 758 m 388 -17 q 144 82 238 -17 q 50 339 50 181 q 142 599 50 499 q 382 699 235 699 q 614 607 526 699 q 701 364 701 515 l 701 315 l 176 314 q 238 149 183 207 q 390 92 293 92 q 581 211 546 92 l 703 211 q 596 42 678 101 q 388 -17 514 -17 m 382 589 q 244 540 297 589 q 179 401 192 492 l 571 401 q 519 538 571 486 q 382 589 468 589 z "},"ë":{"ha":753,"x_min":50,"x_max":703,"o":"m 327 804 q 315 792 327 804 q 271 781 303 781 q 215 804 239 781 q 192 861 192 828 q 215 917 192 893 q 271 942 239 942 q 327 917 303 942 q 351 861 351 893 q 327 804 351 828 m 496 781 q 439 804 463 781 q 415 861 415 828 q 439 917 415 893 q 496 942 463 942 q 551 917 528 942 q 575 861 575 893 q 551 804 575 828 q 496 781 528 781 m 388 -17 q 144 82 238 -17 q 50 339 50 181 q 142 599 50 499 q 382 699 235 699 q 614 607 526 699 q 701 364 701 515 l 701 315 l 176 314 q 238 149 183 207 q 390 92 293 92 q 581 211 546 92 l 703 211 q 596 42 678 101 q 388 -17 514 -17 m 382 589 q 244 540 297 589 q 179 401 192 492 l 571 401 q 519 538 571 486 q 382 589 468 589 z "},"ì":{"ha":319,"x_min":-11,"x_max":225,"o":"m 208 758 l 107 758 l -11 943 l 115 943 l 208 758 m 94 0 l 94 679 l 225 679 l 225 0 l 94 0 z "},"í":{"ha":319,"x_min":94,"x_max":332,"o":"m 332 943 l 213 758 l 113 758 l 206 943 l 332 943 m 94 0 l 94 679 l 225 679 l 225 0 l 94 0 z "},"î":{"ha":319,"x_min":-28,"x_max":347,"o":"m 81 758 l -28 758 l 88 950 l 232 950 l 347 758 l 239 758 l 160 889 l 81 758 m 94 0 l 94 679 l 225 679 l 225 0 l 94 0 z "},"ï":{"ha":319,"x_min":-32,"x_max":351,"o":"m 49 781 q -8 804 15 781 q -32 861 -32 828 q -8 917 -32 893 q 49 942 15 942 q 104 917 81 942 q 128 861 128 893 q 104 804 128 828 q 49 781 81 781 m 272 781 q 215 804 239 781 q 192 861 192 828 q 215 917 192 893 q 272 942 239 942 q 328 917 304 942 q 351 861 351 893 q 328 804 351 828 q 272 781 304 781 m 94 0 l 94 679 l 225 679 l 225 0 l 94 0 z "},"ð":{"ha":815,"x_min":50,"x_max":765,"o":"m 50 336 q 151 583 50 485 q 396 682 253 682 q 608 593 528 682 q 454 844 563 718 l 299 771 l 265 847 l 396 910 q 286 1022 343 969 l 439 1022 q 503 960 450 1013 l 615 1013 l 649 935 l 563 894 q 765 376 765 653 q 665 89 765 194 q 406 -17 564 -17 q 149 83 249 -17 q 50 336 50 182 m 182 332 q 243 165 182 231 q 406 100 304 100 q 569 166 507 100 q 632 335 632 232 q 571 499 632 435 q 410 564 510 564 q 244 498 307 564 q 182 332 182 432 z "},"ñ":{"ha":799,"x_min":94,"x_max":713,"o":"m 276 776 l 192 776 q 217 900 186 854 q 306 946 247 946 q 407 907 351 946 q 489 868 463 868 q 536 946 536 868 l 619 946 q 593 819 625 863 q 500 776 561 776 q 396 815 450 776 q 321 854 342 854 q 276 776 276 854 m 225 0 l 94 0 l 94 679 l 213 679 l 226 575 q 319 666 258 633 q 451 699 379 699 q 647 624 582 699 q 713 415 713 550 l 713 0 l 582 0 l 582 386 q 418 579 582 579 q 276 519 328 579 q 225 360 225 460 l 225 0 z "},"ò":{"ha":807,"x_min":50,"x_max":757,"o":"m 451 758 l 351 758 l 232 943 l 360 943 l 451 758 m 150 83 q 100 133 150 83 q 50 340 50 183 q 150 597 50 497 q 404 697 250 697 q 657 597 557 697 q 757 340 757 497 q 657 83 757 183 q 404 -17 557 -17 q 150 83 250 -17 m 244 514 q 213 481 244 514 q 182 340 182 447 q 244 167 182 233 q 404 100 306 100 q 565 167 503 100 q 626 340 626 235 q 565 513 626 446 q 404 581 503 581 q 244 514 306 581 z "},"ó":{"ha":807,"x_min":50,"x_max":757,"o":"m 576 943 l 456 758 l 356 758 l 449 943 l 576 943 m 150 83 q 100 133 150 83 q 50 340 50 183 q 150 597 50 497 q 404 697 250 697 q 657 597 557 697 q 757 340 757 497 q 657 83 757 183 q 404 -17 557 -17 q 150 83 250 -17 m 244 514 q 213 481 244 514 q 182 340 182 447 q 244 167 182 233 q 404 100 306 100 q 565 167 503 100 q 626 340 626 235 q 565 513 626 446 q 404 581 503 581 q 244 514 306 581 z "},"ô":{"ha":807,"x_min":50,"x_max":757,"o":"m 324 758 l 215 758 l 331 950 l 476 950 l 592 758 l 483 758 l 404 889 l 324 758 m 150 83 q 100 133 150 83 q 50 340 50 183 q 150 597 50 497 q 404 697 250 697 q 657 597 557 697 q 757 340 757 497 q 657 83 757 183 q 404 -17 557 -17 q 150 83 250 -17 m 244 514 q 213 481 244 514 q 182 340 182 447 q 244 167 182 233 q 404 100 306 100 q 565 167 503 100 q 626 340 626 235 q 565 513 626 446 q 404 581 503 581 q 244 514 306 581 z "},"õ":{"ha":807,"x_min":50,"x_max":757,"o":"m 274 776 l 190 776 q 215 900 183 854 q 304 946 246 946 q 404 907 349 946 q 486 868 460 868 q 533 946 533 868 l 617 946 q 590 819 622 863 q 497 776 558 776 q 394 815 449 776 q 319 854 339 854 q 274 776 274 854 m 150 83 q 100 133 150 83 q 50 340 50 183 q 150 597 50 497 q 404 697 250 697 q 657 597 557 697 q 757 340 757 497 q 657 83 757 183 q 404 -17 557 -17 q 150 83 250 -17 m 244 514 q 213 481 244 514 q 182 340 182 447 q 244 167 182 233 q 404 100 306 100 q 565 167 503 100 q 626 340 626 235 q 565 513 626 446 q 404 581 503 581 q 244 514 306 581 z "},"ö":{"ha":807,"x_min":50,"x_max":757,"o":"m 292 781 q 235 804 258 781 q 213 861 213 828 q 236 917 213 893 q 292 942 260 942 q 348 917 324 942 q 372 861 372 893 q 348 804 372 828 q 292 781 324 781 m 515 781 q 459 804 482 781 q 436 861 436 828 q 460 917 436 893 q 515 942 483 942 q 572 917 547 942 q 596 861 596 893 q 572 804 596 828 q 515 781 547 781 m 150 83 q 100 133 150 83 q 50 340 50 183 q 150 597 50 497 q 404 697 250 697 q 657 597 557 697 q 757 340 757 497 q 657 83 757 183 q 404 -17 557 -17 q 150 83 250 -17 m 244 514 q 213 481 244 514 q 182 340 182 447 q 244 167 182 233 q 404 100 306 100 q 565 167 503 100 q 626 340 626 235 q 565 513 626 446 q 404 581 503 581 q 244 514 306 581 z "},"÷":{"ha":917,"x_min":111,"x_max":806,"o":"m 458 596 q 392 623 419 596 q 365 688 365 650 q 392 753 365 726 q 458 781 419 781 q 524 753 496 781 q 551 688 551 726 q 524 624 551 651 q 458 596 496 596 m 111 478 l 806 478 l 806 365 l 111 365 l 111 478 m 458 60 q 392 88 419 60 q 365 153 365 115 q 392 217 365 190 q 458 244 419 244 q 524 217 496 244 q 551 153 551 190 q 524 88 551 115 q 458 60 496 60 z "},"ø":{"ha":807,"x_min":50,"x_max":757,"o":"m 50 340 q 150 597 50 497 q 404 697 250 697 q 553 668 486 697 l 596 738 l 710 738 l 635 617 q 757 340 757 514 q 657 83 757 183 q 404 -17 557 -17 q 261 10 329 -17 l 213 -69 l 94 -69 l 175 61 q 50 340 50 161 m 182 340 q 242 168 182 236 l 489 565 q 404 581 447 581 q 244 514 306 581 q 182 340 182 447 m 626 340 q 568 508 626 443 l 325 114 q 404 100 358 100 q 565 167 503 100 q 626 340 626 235 z "},"ù":{"ha":788,"x_min":86,"x_max":693,"o":"m 435 758 l 335 758 l 217 943 l 343 943 l 435 758 m 564 679 l 693 679 l 693 0 l 576 0 l 563 103 q 471 16 533 49 q 333 -17 408 -17 q 151 57 217 -17 q 86 257 86 131 l 86 679 l 217 679 l 217 300 q 379 99 217 99 q 517 156 469 99 q 564 321 564 213 l 564 679 z "},"ú":{"ha":788,"x_min":86,"x_max":693,"o":"m 560 943 l 440 758 l 339 758 l 432 943 l 560 943 m 564 679 l 693 679 l 693 0 l 576 0 l 563 103 q 471 16 533 49 q 333 -17 408 -17 q 151 57 217 -17 q 86 257 86 131 l 86 679 l 217 679 l 217 300 q 379 99 217 99 q 517 156 469 99 q 564 321 564 213 l 564 679 z "},"û":{"ha":788,"x_min":86,"x_max":693,"o":"m 307 758 l 199 758 l 314 950 l 460 950 l 575 758 l 467 758 l 388 889 l 307 758 m 564 679 l 693 679 l 693 0 l 576 0 l 563 103 q 471 16 533 49 q 333 -17 408 -17 q 151 57 217 -17 q 86 257 86 131 l 86 679 l 217 679 l 217 300 q 379 99 217 99 q 517 156 469 99 q 564 321 564 213 l 564 679 z "},"ü":{"ha":788,"x_min":86,"x_max":693,"o":"m 331 804 q 319 792 331 804 q 275 781 307 781 q 219 804 243 781 q 196 861 196 828 q 219 917 196 893 q 275 942 243 942 q 331 917 307 942 q 356 861 356 893 q 331 804 356 828 m 555 804 q 543 792 555 804 q 499 781 531 781 q 443 804 467 781 q 419 861 419 828 q 443 917 419 893 q 499 942 467 942 q 555 917 531 942 q 579 861 579 893 q 555 804 579 828 m 564 679 l 693 679 l 693 0 l 576 0 l 563 103 q 471 16 533 49 q 333 -17 408 -17 q 151 57 217 -17 q 86 257 86 131 l 86 679 l 217 679 l 217 300 q 379 99 217 99 q 517 156 469 99 q 564 321 564 213 l 564 679 z "},"ý":{"ha":692,"x_min":11,"x_max":682,"o":"m 521 943 l 401 758 l 301 758 l 394 943 l 521 943 m 29 -304 l 29 -197 l 117 -197 q 206 -179 172 -197 q 261 -101 239 -161 l 285 -36 l 11 679 l 149 679 l 346 132 l 547 679 l 682 679 l 361 -153 q 274 -278 326 -239 q 143 -318 222 -318 q 29 -304 88 -318 z "},"þ":{"ha":833,"x_min":94,"x_max":783,"o":"m 783 343 q 699 83 783 183 q 468 -18 615 -18 q 322 15 386 -18 q 225 111 258 49 l 225 -304 l 94 -304 l 94 1022 l 225 1022 l 225 563 q 323 663 258 628 q 472 699 388 699 q 699 600 615 699 q 783 343 783 501 m 653 342 q 596 514 653 447 q 440 581 539 581 q 284 514 342 581 q 226 342 226 447 q 284 167 226 235 q 440 100 342 100 q 596 167 539 100 q 653 342 653 235 z "},"ÿ":{"ha":692,"x_min":11,"x_max":682,"o":"m 238 781 q 181 804 204 781 q 157 861 157 828 q 181 917 157 893 q 238 942 204 942 q 293 917 269 942 q 317 861 317 893 q 293 804 317 828 q 238 781 269 781 m 461 781 q 404 804 428 781 q 381 861 381 828 q 404 917 381 893 q 461 942 428 942 q 517 917 493 942 q 540 861 540 893 q 517 804 540 828 q 461 781 493 781 m 29 -304 l 29 -197 l 117 -197 q 206 -179 172 -197 q 261 -101 239 -161 l 285 -36 l 11 679 l 149 679 l 346 132 l 547 679 l 682 679 l 361 -153 q 274 -278 326 -239 q 143 -318 222 -318 q 29 -304 88 -318 z "},"Ā":{"ha":919,"x_min":17,"x_max":903,"o":"m 288 1143 l 288 1239 l 632 1239 l 632 1143 l 288 1143 m 158 0 l 17 0 l 383 1004 l 535 1004 l 903 0 l 760 0 l 669 250 l 247 250 l 158 0 m 442 788 l 289 368 l 629 368 l 475 788 q 458 846 463 822 q 442 788 454 825 z "},"ā":{"ha":742,"x_min":61,"x_max":656,"o":"m 207 824 l 207 919 l 551 919 l 551 824 l 207 824 m 293 -17 q 123 40 185 -17 q 61 189 61 96 q 127 338 61 282 q 314 404 193 394 l 528 421 l 528 440 q 368 594 528 594 q 241 560 286 594 q 196 464 196 525 l 82 464 q 162 634 82 569 q 374 699 242 699 q 580 629 504 699 q 656 426 656 560 l 656 0 l 544 0 l 531 110 q 440 17 504 51 q 293 -17 375 -17 m 331 85 q 476 141 424 85 q 529 293 529 197 l 529 329 l 356 315 q 193 193 193 300 q 229 113 193 140 q 331 85 265 85 z "},"Ă":{"ha":919,"x_min":17,"x_max":903,"o":"m 553 1264 l 651 1264 q 600 1122 651 1174 q 460 1069 549 1069 q 319 1122 371 1069 q 268 1264 268 1174 l 367 1264 q 460 1164 367 1164 q 553 1264 553 1164 m 158 0 l 17 0 l 383 1004 l 535 1004 l 903 0 l 760 0 l 669 250 l 247 250 l 158 0 m 442 788 l 289 368 l 629 368 l 475 788 q 458 846 463 822 q 442 788 454 825 z "},"ă":{"ha":742,"x_min":61,"x_max":656,"o":"m 472 944 l 571 944 q 519 803 571 856 q 381 750 468 750 q 240 802 292 750 q 188 944 188 854 l 286 944 q 381 844 286 844 q 449 871 425 844 q 472 944 472 897 m 293 -17 q 123 40 185 -17 q 61 189 61 96 q 127 338 61 282 q 314 404 193 394 l 528 421 l 528 440 q 368 594 528 594 q 241 560 286 594 q 196 464 196 525 l 82 464 q 162 634 82 569 q 374 699 242 699 q 580 629 504 699 q 656 426 656 560 l 656 0 l 544 0 l 531 110 q 440 17 504 51 q 293 -17 375 -17 m 331 85 q 476 141 424 85 q 529 293 529 197 l 529 329 l 356 315 q 193 193 193 300 q 229 113 193 140 q 331 85 265 85 z "},"Ą":{"ha":919,"x_min":17,"x_max":903,"o":"m 158 0 l 17 0 l 383 1004 l 535 1004 l 903 0 l 901 0 q 836 -43 858 -17 q 814 -97 814 -69 q 865 -144 814 -144 q 897 -137 882 -144 l 897 -231 q 838 -240 872 -240 q 752 -208 785 -240 q 719 -128 719 -176 q 745 -55 719 -89 q 818 0 771 -21 l 760 0 l 669 250 l 247 250 l 158 0 m 442 788 l 289 368 l 629 368 l 475 788 q 458 846 463 822 q 442 788 454 825 z "},"ą":{"ha":742,"x_min":61,"x_max":656,"o":"m 293 -17 q 123 40 185 -17 q 61 189 61 96 q 127 338 61 282 q 314 404 193 394 l 528 421 l 528 440 q 368 594 528 594 q 241 560 286 594 q 196 464 196 525 l 82 464 q 162 634 82 569 q 374 699 242 699 q 580 629 504 699 q 656 426 656 560 l 656 0 q 590 -44 613 -17 q 567 -97 567 -71 q 618 -144 567 -144 q 651 -137 636 -144 l 651 -231 q 592 -240 626 -240 q 506 -208 539 -240 q 474 -128 474 -176 q 571 0 474 -42 l 544 0 l 531 110 q 440 17 504 51 q 293 -17 375 -17 m 331 85 q 476 141 424 85 q 529 293 529 197 l 529 329 l 356 315 q 193 193 193 300 q 229 113 193 140 q 331 85 265 85 z "},"Ć":{"ha":1032,"x_min":57,"x_max":982,"o":"m 711 1263 l 592 1078 l 490 1078 l 583 1263 l 711 1263 m 533 -15 q 188 126 318 -15 q 57 501 57 268 q 191 877 57 733 q 540 1021 325 1021 q 830 928 710 1021 q 978 681 950 835 l 832 681 q 725 834 804 778 q 536 890 646 890 q 292 785 383 890 q 200 503 200 679 q 292 221 200 326 q 536 115 383 115 q 728 170 646 115 q 838 318 810 225 l 982 318 q 826 76 950 168 q 533 -15 703 -15 z "},"ć":{"ha":742,"x_min":50,"x_max":699,"o":"m 549 943 l 428 758 l 328 758 l 421 943 l 549 943 m 50 339 q 142 599 50 499 q 383 699 235 699 q 595 631 511 699 q 697 450 679 564 l 567 450 q 502 548 550 514 q 388 582 454 582 q 237 516 294 582 q 179 340 179 450 q 234 165 179 231 q 382 100 289 100 q 501 134 451 100 q 568 229 550 168 l 699 229 q 592 51 679 118 q 382 -17 504 -17 q 141 81 232 -17 q 50 339 50 178 z "},"Ĉ":{"ha":1032,"x_min":57,"x_max":982,"o":"m 460 1079 l 351 1079 l 467 1269 l 613 1269 l 726 1079 l 618 1079 l 539 1208 l 460 1079 m 533 -15 q 188 126 318 -15 q 57 501 57 268 q 191 877 57 733 q 540 1021 325 1021 q 830 928 710 1021 q 978 681 950 835 l 832 681 q 725 834 804 778 q 536 890 646 890 q 292 785 383 890 q 200 503 200 679 q 292 221 200 326 q 536 115 383 115 q 728 170 646 115 q 838 318 810 225 l 982 318 q 826 76 950 168 q 533 -15 703 -15 z "},"ĉ":{"ha":742,"x_min":50,"x_max":699,"o":"m 296 758 l 188 758 l 303 950 l 449 950 l 564 758 l 456 758 l 376 889 l 296 758 m 50 339 q 142 599 50 499 q 383 699 235 699 q 595 631 511 699 q 697 450 679 564 l 567 450 q 502 548 550 514 q 388 582 454 582 q 237 516 294 582 q 179 340 179 450 q 234 165 179 231 q 382 100 289 100 q 501 134 451 100 q 568 229 550 168 l 699 229 q 592 51 679 118 q 382 -17 504 -17 q 141 81 232 -17 q 50 339 50 178 z "},"Ċ":{"ha":1032,"x_min":57,"x_max":982,"o":"m 539 1100 q 480 1124 504 1100 q 456 1182 456 1149 q 480 1242 456 1217 q 539 1267 504 1267 q 597 1242 572 1267 q 621 1182 621 1217 q 597 1124 621 1149 q 539 1100 572 1100 m 533 -15 q 188 126 318 -15 q 57 501 57 268 q 191 877 57 733 q 540 1021 325 1021 q 830 928 710 1021 q 978 681 950 835 l 832 681 q 725 834 804 778 q 536 890 646 890 q 292 785 383 890 q 200 503 200 679 q 292 221 200 326 q 536 115 383 115 q 728 170 646 115 q 838 318 810 225 l 982 318 q 826 76 950 168 q 533 -15 703 -15 z "},"ċ":{"ha":742,"x_min":50,"x_max":699,"o":"m 433 805 q 421 793 433 805 q 375 781 408 781 q 317 805 342 781 q 293 863 293 829 q 317 922 293 897 q 375 947 342 947 q 433 922 408 947 q 458 863 458 897 q 433 805 458 829 m 50 339 q 142 599 50 499 q 383 699 235 699 q 595 631 511 699 q 697 450 679 564 l 567 450 q 502 548 550 514 q 388 582 454 582 q 237 516 294 582 q 179 340 179 450 q 234 165 179 231 q 382 100 289 100 q 501 134 451 100 q 568 229 550 168 l 699 229 q 592 51 679 118 q 382 -17 504 -17 q 141 81 232 -17 q 50 339 50 178 z "},"Č":{"ha":1032,"x_min":57,"x_max":982,"o":"m 465 1078 l 351 1269 l 458 1269 l 539 1140 l 618 1269 l 726 1269 l 611 1078 l 465 1078 m 533 -15 q 188 126 318 -15 q 57 501 57 268 q 191 877 57 733 q 540 1021 325 1021 q 830 928 710 1021 q 978 681 950 835 l 832 681 q 725 834 804 778 q 536 890 646 890 q 292 785 383 890 q 200 503 200 679 q 292 221 200 326 q 536 115 383 115 q 728 170 646 115 q 838 318 810 225 l 982 318 q 826 76 950 168 q 533 -15 703 -15 z "},"č":{"ha":742,"x_min":50,"x_max":699,"o":"m 303 758 l 188 950 l 296 950 l 376 821 l 456 950 l 564 950 l 449 758 l 303 758 m 50 339 q 142 599 50 499 q 383 699 235 699 q 595 631 511 699 q 697 450 679 564 l 567 450 q 502 548 550 514 q 388 582 454 582 q 237 516 294 582 q 179 340 179 450 q 234 165 179 231 q 382 100 289 100 q 501 134 451 100 q 568 229 550 168 l 699 229 q 592 51 679 118 q 382 -17 504 -17 q 141 81 232 -17 q 50 339 50 178 z "},"Ď":{"ha":1003,"x_min":117,"x_max":946,"o":"m 357 1078 l 242 1268 l 350 1268 l 431 1139 l 510 1268 l 618 1268 l 503 1078 l 357 1078 m 449 0 l 117 0 l 117 1004 l 443 1004 q 807 865 668 1004 q 946 501 946 726 q 808 139 946 278 q 449 0 671 0 m 433 879 l 253 879 l 253 126 l 439 126 q 706 228 607 126 q 804 501 804 329 q 705 778 804 676 q 433 879 606 879 z "},"ď":{"ha":833,"x_min":50,"x_max":925,"o":"m 367 -17 q 135 81 221 -17 q 50 338 50 179 q 137 598 50 497 q 372 699 224 699 q 513 665 451 699 q 610 569 575 632 l 610 1022 l 739 1022 l 739 0 l 622 0 l 611 124 q 514 19 578 56 q 367 -17 450 -17 m 813 790 l 813 1022 l 925 1022 l 896 790 l 813 790 m 238 168 q 266 135 238 168 q 393 101 294 101 q 550 168 492 101 q 608 342 608 235 q 550 514 608 447 q 393 581 492 581 q 238 515 294 581 q 182 342 182 449 q 238 168 182 235 z "},"Đ":{"ha":1003,"x_min":22,"x_max":946,"o":"m 22 446 l 22 560 l 117 560 l 117 1004 l 443 1004 q 807 865 668 1004 q 946 501 946 726 q 808 139 946 278 q 449 0 671 0 l 117 0 l 117 446 l 22 446 m 464 446 l 253 446 l 253 126 l 439 126 q 706 228 607 126 q 804 501 804 329 q 705 778 804 676 q 433 879 606 879 l 253 879 l 253 560 l 464 560 l 464 446 z "},"đ":{"ha":833,"x_min":50,"x_max":825,"o":"m 367 -17 q 135 81 221 -17 q 50 338 50 179 q 137 598 50 497 q 372 699 224 699 q 513 665 451 699 q 610 569 575 632 l 610 801 l 389 801 l 389 885 l 610 885 l 610 1022 l 739 1022 l 739 885 l 825 885 l 825 801 l 739 801 l 739 0 l 622 0 l 611 124 q 514 19 578 56 q 367 -17 450 -17 m 238 168 q 266 135 238 168 q 393 101 294 101 q 550 168 492 101 q 608 342 608 235 q 550 514 608 447 q 393 581 492 581 q 238 515 294 581 q 182 342 182 449 q 238 168 182 235 z "},"Ē":{"ha":810,"x_min":117,"x_max":729,"o":"m 246 1143 l 246 1239 l 590 1239 l 590 1143 l 246 1143 m 729 0 l 117 0 l 117 1004 l 729 1004 l 729 879 l 253 879 l 253 565 l 682 565 l 682 444 l 253 444 l 253 126 l 729 126 l 729 0 z "},"ē":{"ha":753,"x_min":50,"x_max":703,"o":"m 211 824 l 211 919 l 556 919 l 556 824 l 211 824 m 388 -17 q 144 82 238 -17 q 50 339 50 181 q 142 599 50 499 q 382 699 235 699 q 614 607 526 699 q 701 364 701 515 l 701 315 l 176 314 q 238 149 183 207 q 390 92 293 92 q 581 211 546 92 l 703 211 q 596 42 678 101 q 388 -17 514 -17 m 382 589 q 244 540 297 589 q 179 401 192 492 l 571 401 q 519 538 571 486 q 382 589 468 589 z "},"Ĕ":{"ha":810,"x_min":117,"x_max":729,"o":"m 511 1264 l 610 1264 q 558 1122 610 1175 q 418 1069 506 1069 q 277 1122 329 1069 q 225 1264 225 1175 l 325 1264 q 418 1164 325 1164 q 511 1264 511 1164 m 729 0 l 117 0 l 117 1004 l 729 1004 l 729 879 l 253 879 l 253 565 l 682 565 l 682 444 l 253 444 l 253 126 l 729 126 l 729 0 z "},"ĕ":{"ha":753,"x_min":50,"x_max":703,"o":"m 476 944 l 575 944 q 523 803 575 856 q 383 750 471 750 q 243 802 294 750 q 192 944 192 854 l 290 944 q 383 844 290 844 q 476 944 476 844 m 388 -17 q 144 82 238 -17 q 50 339 50 181 q 142 599 50 499 q 382 699 235 699 q 614 607 526 699 q 701 364 701 515 l 701 315 l 176 314 q 238 149 183 207 q 390 92 293 92 q 581 211 546 92 l 703 211 q 596 42 678 101 q 388 -17 514 -17 m 382 589 q 244 540 297 589 q 179 401 192 492 l 571 401 q 519 538 571 486 q 382 589 468 589 z "},"Ė":{"ha":810,"x_min":117,"x_max":729,"o":"m 475 1124 q 463 1112 475 1124 q 417 1100 450 1100 q 359 1124 383 1100 q 335 1182 335 1149 q 359 1242 335 1217 q 417 1267 383 1267 q 475 1242 450 1267 q 500 1182 500 1217 q 475 1124 500 1149 m 729 0 l 117 0 l 117 1004 l 729 1004 l 729 879 l 253 879 l 253 565 l 682 565 l 682 444 l 253 444 l 253 126 l 729 126 l 729 0 z "},"ė":{"ha":753,"x_min":50,"x_max":703,"o":"m 383 781 q 324 805 349 781 q 300 863 300 829 q 324 922 300 897 q 383 947 349 947 q 441 922 417 947 q 465 863 465 897 q 441 805 465 829 q 383 781 417 781 m 388 -17 q 144 82 238 -17 q 50 339 50 181 q 142 599 50 499 q 382 699 235 699 q 614 607 526 699 q 701 364 701 515 l 701 315 l 176 314 q 238 149 183 207 q 390 92 293 92 q 581 211 546 92 l 703 211 q 596 42 678 101 q 388 -17 514 -17 m 382 589 q 244 540 297 589 q 179 401 192 492 l 571 401 q 519 538 571 486 q 382 589 468 589 z "},"Ę":{"ha":810,"x_min":117,"x_max":729,"o":"m 644 0 l 117 0 l 117 1004 l 729 1004 l 729 879 l 253 879 l 253 565 l 682 565 l 682 444 l 253 444 l 253 126 l 729 126 l 729 0 q 663 -43 685 -17 q 640 -97 640 -69 q 692 -144 640 -144 q 725 -137 710 -144 l 725 -231 q 665 -240 700 -240 q 580 -208 613 -240 q 547 -128 547 -176 q 644 0 547 -42 z "},"ę":{"ha":753,"x_min":50,"x_max":703,"o":"m 388 -17 q 144 82 238 -17 q 50 339 50 181 q 142 599 50 499 q 382 699 235 699 q 614 607 526 699 q 701 364 701 515 l 701 315 l 176 314 q 238 149 183 207 q 390 92 293 92 q 581 211 546 92 l 703 211 q 508 0 664 47 l 510 0 q 443 -43 465 -17 q 421 -97 421 -69 q 472 -144 421 -144 q 504 -137 490 -144 l 504 -231 q 446 -240 479 -240 q 360 -208 393 -240 q 326 -128 326 -176 q 393 -17 326 -61 l 388 -17 m 382 589 q 244 540 297 589 q 179 401 192 492 l 571 401 q 519 538 571 486 q 382 589 468 589 z "},"Ě":{"ha":810,"x_min":117,"x_max":729,"o":"m 344 1078 l 229 1269 l 338 1269 l 418 1140 l 497 1269 l 606 1269 l 490 1078 l 344 1078 m 729 0 l 117 0 l 117 1004 l 729 1004 l 729 879 l 253 879 l 253 565 l 682 565 l 682 444 l 253 444 l 253 126 l 729 126 l 729 0 z "},"ě":{"ha":753,"x_min":50,"x_max":703,"o":"m 310 758 l 196 950 l 303 950 l 383 821 l 463 950 l 571 950 l 456 758 l 310 758 m 388 -17 q 144 82 238 -17 q 50 339 50 181 q 142 599 50 499 q 382 699 235 699 q 614 607 526 699 q 701 364 701 515 l 701 315 l 176 314 q 238 149 183 207 q 390 92 293 92 q 581 211 546 92 l 703 211 q 596 42 678 101 q 388 -17 514 -17 m 382 589 q 244 540 297 589 q 179 401 192 492 l 571 401 q 519 538 571 486 q 382 589 468 589 z "},"Ĝ":{"ha":1063,"x_min":57,"x_max":985,"o":"m 469 1079 l 361 1079 l 475 1269 l 621 1269 l 736 1079 l 628 1079 l 549 1208 l 469 1079 m 547 893 q 293 785 386 893 q 200 496 200 676 q 295 215 200 317 q 549 113 390 113 q 771 185 685 113 q 857 403 857 258 l 857 432 l 521 432 l 521 553 l 985 553 l 985 -1 l 871 -1 l 861 135 q 733 25 819 67 q 538 -17 646 -17 q 190 125 324 -17 q 57 499 57 267 q 193 875 57 729 q 550 1021 329 1021 q 832 933 715 1021 q 974 701 949 846 l 829 701 q 726 844 801 794 q 547 893 650 893 z "},"ĝ":{"ha":831,"x_min":51,"x_max":736,"o":"m 313 768 l 204 768 l 319 960 l 464 960 l 579 768 l 471 768 l 392 897 l 313 768 m 51 357 q 140 601 51 504 q 372 699 228 699 q 516 663 454 699 q 610 564 578 628 l 619 679 l 736 679 l 736 28 q 644 -228 736 -133 q 396 -322 551 -322 q 168 -249 257 -322 q 60 -46 79 -175 l 190 -46 q 257 -162 203 -121 q 396 -204 311 -204 q 549 -147 492 -204 q 607 8 607 -89 l 607 144 q 510 51 574 85 q 367 18 447 18 q 138 115 225 18 q 51 357 51 211 m 182 360 q 238 197 182 261 q 389 132 294 132 q 544 195 486 132 q 601 360 601 258 q 545 522 601 460 q 390 585 489 585 q 238 521 294 585 q 182 360 182 457 z "},"Ğ":{"ha":1063,"x_min":57,"x_max":985,"o":"m 642 1265 l 740 1265 q 689 1124 740 1176 q 550 1071 638 1071 q 408 1123 460 1071 q 357 1265 357 1175 l 456 1265 q 480 1190 456 1217 q 550 1164 504 1164 q 642 1265 642 1164 m 547 893 q 293 785 386 893 q 200 496 200 676 q 295 215 200 317 q 549 113 390 113 q 771 185 685 113 q 857 403 857 258 l 857 432 l 521 432 l 521 553 l 985 553 l 985 -1 l 871 -1 l 861 135 q 733 25 819 67 q 538 -17 646 -17 q 190 125 324 -17 q 57 499 57 267 q 193 875 57 729 q 550 1021 329 1021 q 832 933 715 1021 q 974 701 949 846 l 829 701 q 726 844 801 794 q 547 893 650 893 z "},"ğ":{"ha":831,"x_min":51,"x_max":736,"o":"m 486 954 l 585 954 q 533 813 585 865 q 393 760 481 760 q 252 812 304 760 q 200 954 200 864 l 299 954 q 393 854 299 854 q 462 880 438 854 q 486 954 486 906 m 51 357 q 140 601 51 504 q 372 699 228 699 q 516 663 454 699 q 610 564 578 628 l 619 679 l 736 679 l 736 28 q 644 -228 736 -133 q 396 -322 551 -322 q 168 -249 257 -322 q 60 -46 79 -175 l 190 -46 q 257 -162 203 -121 q 396 -204 311 -204 q 549 -147 492 -204 q 607 8 607 -89 l 607 144 q 510 51 574 85 q 367 18 447 18 q 138 115 225 18 q 51 357 51 211 m 182 360 q 238 197 182 261 q 389 132 294 132 q 544 195 486 132 q 601 360 601 258 q 545 522 601 460 q 390 585 489 585 q 238 521 294 585 q 182 360 182 457 z "},"Ġ":{"ha":1063,"x_min":57,"x_max":985,"o":"m 549 1101 q 490 1125 514 1101 q 465 1183 465 1149 q 490 1242 465 1218 q 549 1267 514 1267 q 606 1242 582 1267 q 631 1183 631 1217 q 606 1126 631 1150 q 549 1101 582 1101 m 547 893 q 293 785 386 893 q 200 496 200 676 q 295 215 200 317 q 549 113 390 113 q 771 185 685 113 q 857 403 857 258 l 857 432 l 521 432 l 521 553 l 985 553 l 985 -1 l 871 -1 l 861 135 q 733 25 819 67 q 538 -17 646 -17 q 190 125 324 -17 q 57 499 57 267 q 193 875 57 729 q 550 1021 329 1021 q 832 933 715 1021 q 974 701 949 846 l 829 701 q 726 844 801 794 q 547 893 650 893 z "},"ġ":{"ha":831,"x_min":51,"x_max":736,"o":"m 392 790 q 333 815 357 790 q 310 872 310 839 q 334 931 310 907 q 392 956 358 956 q 449 931 425 956 q 474 872 474 906 q 449 815 474 839 q 392 790 425 790 m 51 357 q 140 601 51 504 q 372 699 228 699 q 516 663 454 699 q 610 564 578 628 l 619 679 l 736 679 l 736 28 q 644 -228 736 -133 q 396 -322 551 -322 q 168 -249 257 -322 q 60 -46 79 -175 l 190 -46 q 257 -162 203 -121 q 396 -204 311 -204 q 549 -147 492 -204 q 607 8 607 -89 l 607 144 q 510 51 574 85 q 367 18 447 18 q 138 115 225 18 q 51 357 51 211 m 182 360 q 238 197 182 261 q 389 132 294 132 q 544 195 486 132 q 601 360 601 258 q 545 522 601 460 q 390 585 489 585 q 238 521 294 585 q 182 360 182 457 z "},"Ģ":{"ha":1063,"x_min":57,"x_max":985,"o":"m 547 893 q 293 785 386 893 q 200 496 200 676 q 295 215 200 317 q 549 113 390 113 q 771 185 685 113 q 857 403 857 258 l 857 432 l 521 432 l 521 553 l 985 553 l 985 -1 l 871 -1 l 861 135 q 733 25 819 67 q 538 -17 646 -17 q 190 125 324 -17 q 57 499 57 267 q 193 875 57 729 q 550 1021 329 1021 q 832 933 715 1021 q 974 701 949 846 l 829 701 q 726 844 801 794 q 547 893 650 893 m 613 -147 q 572 -256 613 -215 q 469 -290 532 -296 l 469 -243 q 526 -231 506 -246 q 550 -187 547 -217 q 524 -193 539 -193 q 475 -174 494 -193 q 456 -125 456 -154 q 477 -71 456 -92 q 531 -50 499 -50 q 590 -76 568 -50 q 613 -147 613 -101 z "},"ģ":{"ha":831,"x_min":51,"x_max":736,"o":"m 464 844 q 442 791 464 813 q 389 769 421 769 q 329 795 351 769 q 307 867 307 821 q 348 976 307 935 q 450 1011 389 1017 l 450 963 q 369 908 374 969 q 396 914 379 914 q 444 894 425 914 q 464 844 464 874 m 51 357 q 140 601 51 504 q 372 699 228 699 q 516 663 454 699 q 610 564 578 628 l 619 679 l 736 679 l 736 28 q 644 -228 736 -133 q 396 -322 551 -322 q 168 -249 257 -322 q 60 -46 79 -175 l 190 -46 q 257 -162 203 -121 q 396 -204 311 -204 q 549 -147 492 -204 q 607 8 607 -89 l 607 144 q 510 51 574 85 q 367 18 447 18 q 138 115 225 18 q 51 357 51 211 m 182 360 q 238 197 182 261 q 389 132 294 132 q 544 195 486 132 q 601 360 601 258 q 545 522 601 460 q 390 585 489 585 q 238 521 294 585 q 182 360 182 457 z "},"Ħ":{"ha":1003,"x_min":4,"x_max":1000,"o":"m 253 0 l 117 0 l 117 750 l 4 750 l 4 867 l 117 867 l 117 1004 l 253 1004 l 253 867 l 750 867 l 750 1004 l 886 1004 l 886 867 l 1000 867 l 1000 750 l 886 750 l 886 0 l 750 0 l 750 446 l 253 446 l 253 0 m 253 572 l 750 572 l 750 750 l 253 750 l 253 572 z "},"ħ":{"ha":799,"x_min":8,"x_max":713,"o":"m 225 1 l 94 1 l 94 801 l 8 801 l 8 885 l 94 885 l 94 1022 l 225 1022 l 225 885 l 444 885 l 444 801 l 225 801 l 225 575 q 318 665 258 632 q 456 699 378 699 q 648 624 583 699 q 713 415 713 549 l 713 0 l 582 0 l 582 386 q 419 579 582 579 q 276 520 328 579 q 225 371 225 461 l 225 1 z "},"Ĩ":{"ha":371,"x_min":-29,"x_max":399,"o":"m 54 1096 l -29 1096 q -4 1219 -35 1174 q 85 1265 26 1265 q 185 1226 129 1265 q 267 1188 242 1188 q 315 1265 315 1188 l 399 1265 q 372 1139 404 1182 q 278 1096 340 1096 q 174 1135 229 1096 q 100 1174 119 1174 q 54 1096 54 1174 m 253 1004 l 253 0 l 117 0 l 117 1004 l 253 1004 z "},"ĩ":{"ha":319,"x_min":-54,"x_max":374,"o":"m 29 776 l -54 776 q -29 900 -60 854 q 60 946 1 946 q 160 907 104 946 q 242 868 217 868 q 290 946 290 868 l 374 946 q 347 819 379 863 q 253 776 314 776 q 149 815 204 776 q 75 854 94 854 q 29 776 29 854 m 94 0 l 94 679 l 225 679 l 225 0 l 94 0 z "},"Ī":{"ha":371,"x_min":13,"x_max":358,"o":"m 13 1143 l 13 1239 l 358 1239 l 358 1143 l 13 1143 m 253 1004 l 253 0 l 117 0 l 117 1004 l 253 1004 z "},"ī":{"ha":319,"x_min":-12,"x_max":333,"o":"m -12 824 l -12 919 l 333 919 l 333 824 l -12 824 m 94 0 l 94 679 l 225 679 l 225 0 l 94 0 z "},"Į":{"ha":371,"x_min":71,"x_max":253,"o":"m 168 0 l 117 0 l 117 1004 l 253 1004 l 253 0 q 187 -44 210 -17 q 164 -97 164 -71 q 215 -144 164 -144 q 249 -137 233 -144 l 249 -231 q 189 -240 224 -240 q 103 -208 136 -240 q 71 -128 71 -176 q 168 0 71 -42 z "},"į":{"ha":319,"x_min":42,"x_max":244,"o":"m 219 866 q 207 853 219 866 q 158 840 194 840 q 97 866 122 840 q 72 926 72 892 q 97 988 72 963 q 158 1013 122 1013 q 219 988 194 1013 q 244 926 244 963 q 219 866 244 892 m 94 0 l 94 679 l 225 679 l 225 0 l 224 0 q 158 -44 181 -17 q 135 -97 135 -71 q 186 -144 135 -144 q 219 -137 204 -144 l 219 -231 q 160 -240 194 -240 q 74 -208 107 -240 q 42 -128 42 -176 q 67 -55 42 -89 q 139 0 92 -21 l 94 0 z "},"İ":{"ha":371,"x_min":103,"x_max":268,"o":"m 185 1100 q 126 1124 150 1100 q 103 1182 103 1149 q 127 1242 103 1217 q 185 1267 151 1267 q 243 1242 218 1267 q 268 1182 268 1217 q 243 1124 268 1149 q 185 1100 218 1100 m 253 1004 l 253 0 l 117 0 l 117 1004 l 253 1004 z "},"ı":{"ha":319,"x_min":94,"x_max":225,"o":"m 94 0 l 94 679 l 225 679 l 225 0 l 94 0 z "},"Ĵ":{"ha":735,"x_min":28,"x_max":744,"o":"m 476 1079 l 369 1079 l 483 1269 l 629 1269 l 744 1079 l 636 1079 l 557 1208 l 476 1079 m 28 279 l 28 329 l 160 329 l 160 279 q 202 156 160 203 q 325 110 244 110 q 449 156 408 110 q 489 283 489 201 l 489 1004 l 625 1004 l 625 278 q 542 63 625 143 q 325 -17 460 -17 q 106 65 185 -17 q 28 279 28 146 z "},"ĵ":{"ha":319,"x_min":-78,"x_max":349,"o":"m 81 758 l -28 758 l 88 950 l 233 950 l 349 758 l 240 758 l 161 889 l 81 758 m -78 -308 l -56 -190 q 7 -200 -18 -200 q 74 -173 53 -200 q 94 -87 94 -146 l 94 679 l 225 679 l 225 -100 q 171 -262 225 -203 q 18 -321 117 -321 q -78 -308 -33 -321 z "},"Ķ":{"ha":893,"x_min":117,"x_max":868,"o":"m 253 1004 l 253 435 l 700 1004 l 863 1004 l 526 578 l 868 0 l 710 0 l 436 463 l 253 231 l 253 0 l 117 0 l 117 1004 l 253 1004 m 551 -147 q 510 -256 551 -215 q 408 -290 469 -296 l 408 -243 q 465 -231 444 -246 q 488 -189 486 -217 q 463 -193 478 -193 q 414 -174 433 -193 q 394 -125 394 -154 q 415 -71 394 -92 q 469 -50 436 -50 q 529 -76 507 -50 q 551 -147 551 -101 z "},"ķ":{"ha":706,"x_min":97,"x_max":693,"o":"m 228 0 l 97 0 l 97 1022 l 228 1022 l 228 360 l 529 679 l 693 679 l 433 408 l 692 0 l 542 0 l 343 314 l 228 193 l 228 0 m 439 -147 q 399 -256 439 -215 q 296 -290 358 -296 l 296 -243 q 353 -231 332 -246 q 376 -187 374 -217 q 350 -193 367 -193 q 301 -174 321 -193 q 282 -125 282 -154 q 303 -71 282 -92 q 358 -50 325 -50 q 417 -76 396 -50 q 439 -147 439 -101 z "},"Ĺ":{"ha":725,"x_min":117,"x_max":694,"o":"m 358 1250 l 238 1067 l 138 1067 l 231 1250 l 358 1250 m 253 1004 l 253 126 l 694 126 l 694 0 l 117 0 l 117 1004 l 253 1004 z "},"ĺ":{"ha":325,"x_min":97,"x_max":335,"o":"m 335 1260 l 215 1076 l 114 1076 l 208 1260 l 335 1260 m 228 0 l 97 0 l 97 1022 l 228 1022 l 228 0 z "},"Ļ":{"ha":725,"x_min":117,"x_max":694,"o":"m 253 1004 l 253 126 l 694 126 l 694 0 l 117 0 l 117 1004 l 253 1004 m 479 -147 q 439 -256 479 -215 q 336 -290 399 -296 l 336 -243 q 393 -231 372 -246 q 417 -187 414 -217 q 390 -193 407 -193 q 342 -174 361 -193 q 322 -125 322 -154 q 344 -71 322 -92 q 397 -50 365 -50 q 457 -76 435 -50 q 479 -147 479 -101 z "},"ļ":{"ha":325,"x_min":82,"x_max":239,"o":"m 228 0 l 97 0 l 97 1022 l 228 1022 l 228 0 m 239 -147 q 199 -256 239 -215 q 96 -290 158 -296 l 96 -243 q 153 -231 132 -246 q 176 -187 174 -217 q 150 -193 167 -193 q 101 -174 121 -193 q 82 -125 82 -154 q 103 -71 82 -92 q 158 -50 125 -50 q 217 -76 196 -50 q 239 -147 239 -101 z "},"Ľ":{"ha":725,"x_min":117,"x_max":694,"o":"m 253 1004 l 253 126 l 694 126 l 694 0 l 117 0 l 117 1004 l 253 1004 m 326 772 l 326 1004 l 440 1004 l 410 772 l 326 772 z "},"ľ":{"ha":325,"x_min":97,"x_max":414,"o":"m 228 0 l 97 0 l 97 1022 l 228 1022 l 228 0 m 300 790 l 300 1022 l 414 1022 l 385 790 l 300 790 z "},"Ŀ":{"ha":725,"x_min":117,"x_max":694,"o":"m 253 1004 l 253 126 l 694 126 l 694 0 l 117 0 l 117 1004 l 253 1004 m 515 450 q 503 438 515 450 q 460 426 492 426 q 403 450 428 426 q 379 506 379 474 q 403 562 379 539 q 460 585 426 585 q 515 561 492 585 q 539 506 539 538 q 515 450 539 474 z "},"ŀ":{"ha":493,"x_min":97,"x_max":492,"o":"m 228 0 l 97 0 l 97 1022 l 228 1022 l 228 0 m 410 422 q 351 446 375 422 q 326 503 326 469 q 351 562 326 538 q 410 586 375 586 q 467 562 443 586 q 492 503 492 538 q 467 447 492 471 q 410 422 443 422 z "},"Ł":{"ha":725,"x_min":22,"x_max":694,"o":"m 22 356 l 22 467 l 117 511 l 117 1004 l 253 1004 l 253 576 l 490 690 l 490 579 l 253 465 l 253 126 l 694 126 l 694 0 l 117 0 l 117 400 l 22 356 z "},"ł":{"ha":325,"x_min":17,"x_max":310,"o":"m 228 0 l 97 0 l 97 453 l 17 414 l 17 513 l 97 551 l 97 1022 l 228 1022 l 228 614 l 310 653 l 310 554 l 228 515 l 228 0 z "},"Ń":{"ha":1019,"x_min":117,"x_max":903,"o":"m 685 1263 l 565 1078 l 465 1078 l 558 1263 l 685 1263 m 253 0 l 117 0 l 117 1004 l 253 1004 l 767 228 l 767 1004 l 903 1004 l 903 0 l 767 0 l 253 776 l 253 0 z "},"ń":{"ha":799,"x_min":94,"x_max":713,"o":"m 578 943 l 458 758 l 358 758 l 451 943 l 578 943 m 225 0 l 94 0 l 94 679 l 213 679 l 226 575 q 319 666 258 633 q 451 699 379 699 q 647 624 582 699 q 713 415 713 550 l 713 0 l 582 0 l 582 386 q 418 579 582 579 q 276 519 328 579 q 225 360 225 460 l 225 0 z "},"Ņ":{"ha":1019,"x_min":117,"x_max":903,"o":"m 253 0 l 117 0 l 117 1004 l 253 1004 l 767 228 l 767 1004 l 903 1004 l 903 0 l 767 0 l 253 776 l 253 0 m 593 -147 q 553 -256 593 -215 q 450 -290 513 -296 l 450 -243 q 507 -231 486 -246 q 531 -187 528 -217 q 504 -193 521 -193 q 456 -174 475 -193 q 436 -125 436 -154 q 458 -71 436 -92 q 513 -50 479 -50 q 572 -76 550 -50 q 593 -147 593 -101 z "},"ņ":{"ha":799,"x_min":94,"x_max":713,"o":"m 225 0 l 94 0 l 94 679 l 213 679 l 226 575 q 319 666 258 633 q 451 699 379 699 q 647 624 582 699 q 713 415 713 550 l 713 0 l 582 0 l 582 386 q 418 579 582 579 q 276 519 328 579 q 225 360 225 460 l 225 0 m 478 -147 q 437 -256 478 -215 q 335 -290 396 -296 l 335 -243 q 391 -231 371 -246 q 414 -187 411 -217 q 389 -193 404 -193 q 340 -174 360 -193 q 319 -125 319 -154 q 341 -71 319 -92 q 396 -50 363 -50 q 456 -76 433 -50 q 478 -147 478 -101 z "},"Ň":{"ha":1019,"x_min":117,"x_max":903,"o":"m 440 1078 l 325 1269 l 433 1269 l 513 1140 l 592 1269 l 700 1269 l 586 1078 l 440 1078 m 253 0 l 117 0 l 117 1004 l 253 1004 l 767 228 l 767 1004 l 903 1004 l 903 0 l 767 0 l 253 776 l 253 0 z "},"ň":{"ha":799,"x_min":94,"x_max":713,"o":"m 333 758 l 218 950 l 326 950 l 406 821 l 485 950 l 593 950 l 479 758 l 333 758 m 225 0 l 94 0 l 94 679 l 213 679 l 226 575 q 319 666 258 633 q 451 699 379 699 q 647 624 582 699 q 713 415 713 550 l 713 0 l 582 0 l 582 386 q 418 579 582 579 q 276 519 328 579 q 225 360 225 460 l 225 0 z "},"Ŋ":{"ha":1019,"x_min":117,"x_max":903,"o":"m 696 -321 q 579 -304 633 -321 l 603 -187 q 679 -200 642 -200 q 772 -87 772 -200 l 772 -8 l 253 778 l 253 0 l 117 0 l 117 1004 l 253 1004 l 767 228 l 767 1004 l 903 1004 l 903 -100 q 849 -262 903 -203 q 696 -321 794 -321 z "},"ŋ":{"ha":799,"x_min":94,"x_max":713,"o":"m 225 0 l 94 0 l 94 679 l 213 679 l 226 575 q 319 666 258 633 q 451 699 379 699 q 647 624 582 699 q 713 415 713 550 l 713 -100 q 658 -262 713 -203 q 506 -321 604 -321 q 410 -308 453 -321 l 432 -190 q 494 -200 469 -200 q 561 -173 540 -200 q 582 -87 582 -146 l 582 386 q 418 579 582 579 q 276 519 328 579 q 225 360 225 460 l 225 0 z "},"Ō":{"ha":1079,"x_min":57,"x_max":1022,"o":"m 367 1143 l 367 1239 l 713 1239 l 713 1143 l 367 1143 m 888 877 q 955 805 888 877 q 1022 503 1022 732 q 887 128 1022 274 q 538 -17 751 -17 q 191 128 325 -17 q 57 503 57 274 q 192 876 57 731 q 539 1022 326 1022 q 888 877 753 1022 m 879 503 q 785 784 879 678 q 539 890 692 890 q 293 784 386 890 q 200 503 200 678 q 293 221 200 328 q 539 114 386 114 q 785 222 692 114 q 879 503 879 329 z "},"ō":{"ha":807,"x_min":50,"x_max":757,"o":"m 231 824 l 231 919 l 576 919 l 576 824 l 231 824 m 150 83 q 100 133 150 83 q 50 340 50 183 q 150 597 50 497 q 404 697 250 697 q 657 597 557 697 q 757 340 757 497 q 657 83 757 183 q 404 -17 557 -17 q 150 83 250 -17 m 244 514 q 213 481 244 514 q 182 340 182 447 q 244 167 182 233 q 404 100 306 100 q 565 167 503 100 q 626 340 626 235 q 565 513 626 446 q 404 581 503 581 q 244 514 306 581 z "},"Ő":{"ha":1079,"x_min":57,"x_max":1022,"o":"m 622 1263 l 503 1078 l 407 1078 l 506 1263 l 622 1263 m 810 1263 l 678 1078 l 581 1078 l 690 1263 l 810 1263 m 888 877 q 955 805 888 877 q 1022 503 1022 732 q 887 128 1022 274 q 538 -17 751 -17 q 191 128 325 -17 q 57 503 57 274 q 192 876 57 731 q 539 1022 326 1022 q 888 877 753 1022 m 879 503 q 785 784 879 678 q 539 890 692 890 q 293 784 386 890 q 200 503 200 678 q 293 221 200 328 q 539 114 386 114 q 785 222 692 114 q 879 503 879 329 z "},"ő":{"ha":807,"x_min":50,"x_max":757,"o":"m 486 943 l 368 758 l 272 758 l 369 943 l 486 943 m 674 943 l 542 758 l 444 758 l 554 943 l 674 943 m 150 83 q 100 133 150 83 q 50 340 50 183 q 150 597 50 497 q 404 697 250 697 q 657 597 557 697 q 757 340 757 497 q 657 83 757 183 q 404 -17 557 -17 q 150 83 250 -17 m 244 514 q 213 481 244 514 q 182 340 182 447 q 244 167 182 233 q 404 100 306 100 q 565 167 503 100 q 626 340 626 235 q 565 513 626 446 q 404 581 503 581 q 244 514 306 581 z "},"Œ":{"ha":1589,"x_min":57,"x_max":1507,"o":"m 57 504 q 193 876 57 731 q 544 1022 329 1022 q 749 978 653 1022 q 897 857 844 933 l 897 1004 l 1507 1004 l 1507 879 l 1033 879 l 1033 565 l 1461 565 l 1461 444 l 1033 444 l 1033 126 l 1507 126 l 1507 0 l 897 0 l 897 163 q 756 33 853 82 q 543 -17 660 -17 q 192 130 328 -17 q 57 504 57 276 m 200 506 q 299 222 200 331 q 549 114 397 114 q 797 222 700 114 q 894 504 894 329 q 797 785 894 678 q 547 892 700 892 q 298 785 396 892 q 200 506 200 679 z "},"œ":{"ha":1333,"x_min":50,"x_max":1283,"o":"m 150 83 q 100 133 150 83 q 50 340 50 183 q 150 597 50 497 q 404 697 250 697 q 689 554 590 697 q 963 699 781 699 q 1194 607 1107 699 q 1282 364 1282 515 l 1282 315 l 757 314 q 819 149 764 207 q 971 92 874 92 q 1161 211 1126 92 l 1283 211 q 1176 42 1258 101 q 968 -17 1094 -17 q 690 128 782 -17 q 404 -17 593 -17 q 150 83 250 -17 m 963 589 q 825 540 878 589 q 760 401 772 492 l 1153 401 q 1101 538 1153 486 q 963 589 1049 589 m 244 514 q 213 481 244 514 q 182 340 182 447 q 244 167 182 233 q 404 100 306 100 q 565 167 503 100 q 626 340 626 235 q 565 513 626 446 q 404 581 503 581 q 244 514 306 581 z "},"Ŕ":{"ha":908,"x_min":117,"x_max":849,"o":"m 601 1263 l 482 1079 l 381 1079 l 475 1263 l 601 1263 m 253 0 l 117 0 l 117 1004 l 496 1004 q 748 924 657 1004 q 839 703 839 843 q 788 526 839 599 q 644 424 738 454 l 849 0 l 697 0 l 510 397 l 253 397 l 253 0 m 253 882 l 253 518 l 497 518 q 644 567 592 518 q 696 701 696 615 q 643 835 696 789 q 496 882 590 882 l 253 882 z "},"ŕ":{"ha":511,"x_min":94,"x_max":483,"o":"m 442 949 l 322 764 l 221 764 l 314 949 l 442 949 m 483 685 l 483 565 l 425 565 q 278 511 332 565 q 225 360 225 457 l 225 0 l 94 0 l 94 678 l 217 678 l 225 575 q 296 661 246 629 q 414 693 346 693 q 483 685 444 693 z "},"Ŗ":{"ha":908,"x_min":117,"x_max":849,"o":"m 253 0 l 117 0 l 117 1004 l 496 1004 q 748 924 657 1004 q 839 703 839 843 q 788 526 839 599 q 644 424 738 454 l 849 0 l 697 0 l 510 397 l 253 397 l 253 0 m 253 882 l 253 518 l 497 518 q 644 567 592 518 q 696 701 696 615 q 643 835 696 789 q 496 882 590 882 l 253 882 m 553 -147 q 512 -256 553 -215 q 410 -290 471 -296 l 410 -243 q 466 -231 446 -246 q 489 -187 486 -217 q 464 -193 479 -193 q 415 -174 435 -193 q 394 -125 394 -154 q 416 -71 394 -92 q 471 -50 438 -50 q 531 -76 508 -50 q 553 -147 553 -101 z "},"ŗ":{"ha":511,"x_min":79,"x_max":483,"o":"m 483 685 l 483 565 l 425 565 q 278 511 332 565 q 225 360 225 457 l 225 0 l 94 0 l 94 678 l 217 678 l 225 575 q 296 661 246 629 q 414 693 346 693 q 483 685 444 693 m 236 -147 q 196 -256 236 -215 q 93 -290 156 -296 l 93 -243 q 150 -231 129 -246 q 174 -187 171 -217 q 147 -193 164 -193 q 99 -174 118 -193 q 79 -125 79 -154 q 101 -71 79 -92 q 156 -50 122 -50 q 215 -76 193 -50 q 236 -147 236 -101 z "},"Ř":{"ha":908,"x_min":117,"x_max":849,"o":"m 356 1079 l 242 1269 l 350 1269 l 429 1140 l 508 1269 l 617 1269 l 501 1079 l 356 1079 m 253 0 l 117 0 l 117 1004 l 496 1004 q 748 924 657 1004 q 839 703 839 843 q 788 526 839 599 q 644 424 738 454 l 849 0 l 697 0 l 510 397 l 253 397 l 253 0 m 253 882 l 253 518 l 497 518 q 644 567 592 518 q 696 701 696 615 q 643 835 696 789 q 496 882 590 882 l 253 882 z "},"ř":{"ha":511,"x_min":81,"x_max":483,"o":"m 196 764 l 81 956 l 189 956 l 269 825 l 349 956 l 457 956 l 342 764 l 196 764 m 483 685 l 483 565 l 425 565 q 278 511 332 565 q 225 360 225 457 l 225 0 l 94 0 l 94 678 l 217 678 l 225 575 q 296 661 246 629 q 414 693 346 693 q 483 685 444 693 z "},"Ś":{"ha":801,"x_min":44,"x_max":747,"o":"m 569 1263 l 450 1078 l 350 1078 l 443 1263 l 569 1263 m 58 733 q 153 942 58 863 q 404 1022 249 1022 q 635 947 547 1022 q 731 742 722 872 l 593 742 q 538 858 588 817 q 403 900 488 900 q 251 856 308 900 q 194 738 194 811 q 335 586 194 619 l 500 547 q 747 279 747 490 q 651 64 747 144 q 393 -17 554 -17 q 144 58 239 -17 q 44 263 50 133 l 183 263 q 242 148 186 190 q 393 106 299 106 q 552 149 493 106 q 611 268 611 193 q 472 419 611 388 l 307 457 q 58 733 58 514 z "},"ś":{"ha":622,"x_min":39,"x_max":572,"o":"m 485 967 l 365 782 l 264 782 l 357 967 l 485 967 m 39 197 l 164 197 q 201 116 164 146 q 303 86 238 86 q 409 113 371 86 q 447 186 447 139 q 426 244 447 222 q 354 278 406 265 l 235 306 q 57 494 57 349 q 128 643 57 588 q 313 699 199 699 q 491 641 424 699 q 561 486 558 583 l 436 486 q 400 567 433 538 q 308 597 367 597 q 214 572 247 597 q 181 499 181 546 q 281 406 181 431 l 400 376 q 531 313 489 356 q 572 194 572 269 q 497 41 572 99 q 300 -17 422 -17 q 110 42 181 -17 q 39 197 39 100 z "},"Ŝ":{"ha":801,"x_min":44,"x_max":747,"o":"m 318 1078 l 210 1078 l 325 1269 l 469 1269 l 585 1078 l 476 1078 l 397 1208 l 318 1078 m 58 733 q 153 942 58 863 q 404 1022 249 1022 q 635 947 547 1022 q 731 742 722 872 l 593 742 q 538 858 588 817 q 403 900 488 900 q 251 856 308 900 q 194 738 194 811 q 335 586 194 619 l 500 547 q 747 279 747 490 q 651 64 747 144 q 393 -17 554 -17 q 144 58 239 -17 q 44 263 50 133 l 183 263 q 242 148 186 190 q 393 106 299 106 q 552 149 493 106 q 611 268 611 193 q 472 419 611 388 l 307 457 q 58 733 58 514 z "},"ŝ":{"ha":622,"x_min":39,"x_max":572,"o":"m 232 782 l 124 782 l 239 974 l 385 974 l 500 782 l 392 782 l 313 911 l 232 782 m 39 197 l 164 197 q 201 116 164 146 q 303 86 238 86 q 409 113 371 86 q 447 186 447 139 q 426 244 447 222 q 354 278 406 265 l 235 306 q 57 494 57 349 q 128 643 57 588 q 313 699 199 699 q 491 641 424 699 q 561 486 558 583 l 436 486 q 400 567 433 538 q 308 597 367 597 q 214 572 247 597 q 181 499 181 546 q 281 406 181 431 l 400 376 q 531 313 489 356 q 572 194 572 269 q 497 41 572 99 q 300 -17 422 -17 q 110 42 181 -17 q 39 197 39 100 z "},"Ş":{"ha":801,"x_min":44,"x_max":747,"o":"m 307 -251 l 307 -185 q 392 -208 357 -208 q 442 -195 424 -208 q 461 -158 461 -182 q 404 -111 461 -111 q 336 -126 371 -111 l 321 -86 l 354 -15 q 133 68 217 -6 q 44 263 50 142 l 183 263 q 242 148 186 190 q 393 106 299 106 q 552 149 493 106 q 611 268 611 193 q 472 419 611 388 l 307 457 q 58 733 58 514 q 153 942 58 863 q 404 1022 249 1022 q 635 947 547 1022 q 731 742 722 872 l 593 742 q 538 858 588 817 q 403 900 488 900 q 251 856 308 900 q 194 738 194 811 q 335 586 194 619 l 500 547 q 747 279 747 490 q 658 69 747 149 q 417 -17 568 -10 l 394 -62 q 438 -56 418 -56 q 510 -82 481 -56 q 540 -156 540 -108 q 500 -243 540 -212 q 401 -274 460 -274 q 307 -251 346 -274 z "},"ş":{"ha":622,"x_min":39,"x_max":572,"o":"m 39 197 l 164 197 q 201 116 164 146 q 303 86 238 86 q 409 113 371 86 q 447 186 447 139 q 426 244 447 222 q 354 278 406 265 l 235 306 q 57 494 57 349 q 128 643 57 588 q 313 699 199 699 q 491 641 424 699 q 561 486 558 583 l 436 486 q 400 567 433 538 q 308 597 367 597 q 214 572 247 597 q 181 499 181 546 q 281 406 181 431 l 400 376 q 531 313 489 356 q 572 194 572 269 q 504 47 572 104 q 325 -15 436 -10 l 303 -62 q 346 -56 326 -56 q 419 -82 389 -56 q 449 -156 449 -108 q 409 -243 449 -212 q 310 -274 369 -274 q 215 -251 254 -274 l 215 -185 q 301 -208 265 -208 q 351 -195 332 -208 q 369 -158 369 -182 q 313 -111 369 -111 q 244 -126 279 -111 l 229 -86 l 263 -15 q 99 51 160 -6 q 39 197 39 108 z "},"Š":{"ha":801,"x_min":44,"x_max":747,"o":"m 325 1078 l 210 1269 l 318 1269 l 397 1140 l 476 1269 l 585 1269 l 469 1078 l 325 1078 m 58 733 q 153 942 58 863 q 404 1022 249 1022 q 635 947 547 1022 q 731 742 722 872 l 593 742 q 538 858 588 817 q 403 900 488 900 q 251 856 308 900 q 194 738 194 811 q 335 586 194 619 l 500 547 q 747 279 747 490 q 651 64 747 144 q 393 -17 554 -17 q 144 58 239 -17 q 44 263 50 133 l 183 263 q 242 148 186 190 q 393 106 299 106 q 552 149 493 106 q 611 268 611 193 q 472 419 611 388 l 307 457 q 58 733 58 514 z "},"š":{"ha":622,"x_min":39,"x_max":572,"o":"m 239 782 l 124 974 l 232 974 l 313 843 l 392 974 l 500 974 l 385 782 l 239 782 m 39 197 l 164 197 q 201 116 164 146 q 303 86 238 86 q 409 113 371 86 q 447 186 447 139 q 426 244 447 222 q 354 278 406 265 l 235 306 q 57 494 57 349 q 128 643 57 588 q 313 699 199 699 q 491 641 424 699 q 561 486 558 583 l 436 486 q 400 567 433 538 q 308 597 367 597 q 214 572 247 597 q 181 499 181 546 q 281 406 181 431 l 400 376 q 531 313 489 356 q 572 194 572 269 q 497 41 572 99 q 300 -17 422 -17 q 110 42 181 -17 q 39 197 39 100 z "},"Ţ":{"ha":781,"x_min":19,"x_max":760,"o":"m 303 -251 l 303 -185 q 389 -208 353 -208 q 438 -195 419 -208 q 457 -158 457 -182 q 400 -111 457 -111 q 332 -126 367 -111 l 317 -86 l 357 0 l 322 0 l 322 879 l 19 879 l 19 1004 l 760 1004 l 760 879 l 458 879 l 458 0 l 421 0 l 390 -62 q 433 -56 414 -56 q 506 -82 476 -56 q 536 -156 536 -108 q 497 -243 536 -212 q 397 -274 457 -274 q 303 -251 342 -274 z "},"ţ":{"ha":442,"x_min":22,"x_max":419,"o":"m 136 -251 l 136 -185 q 222 -208 186 -208 q 272 -195 253 -208 q 290 -158 290 -182 q 233 -111 290 -111 q 165 -126 200 -111 l 150 -86 l 190 0 l 156 0 l 156 569 l 22 569 l 22 679 l 156 679 l 156 892 l 286 892 l 286 679 l 419 679 l 419 569 l 286 569 l 286 0 l 254 0 l 224 -62 q 267 -56 247 -56 q 340 -82 310 -56 q 369 -156 369 -108 q 330 -243 369 -212 q 231 -274 290 -274 q 136 -251 175 -274 z "},"Ť":{"ha":781,"x_min":19,"x_max":760,"o":"m 317 1078 l 201 1269 l 310 1269 l 390 1140 l 469 1269 l 578 1269 l 463 1078 l 317 1078 m 19 879 l 19 1004 l 760 1004 l 760 879 l 458 879 l 458 0 l 322 0 l 322 879 l 19 879 z "},"ť":{"ha":442,"x_min":22,"x_max":460,"o":"m 346 774 l 346 1006 l 460 1006 l 431 774 l 346 774 m 286 0 l 156 0 l 156 569 l 22 569 l 22 679 l 156 679 l 156 892 l 286 892 l 286 679 l 419 679 l 419 569 l 286 569 l 286 0 z "},"Ŧ":{"ha":781,"x_min":19,"x_max":760,"o":"m 169 483 l 169 597 l 322 597 l 322 879 l 19 879 l 19 1004 l 760 1004 l 760 879 l 458 879 l 458 597 l 611 597 l 611 483 l 458 483 l 458 0 l 322 0 l 322 483 l 169 483 z "},"ŧ":{"ha":442,"x_min":22,"x_max":419,"o":"m 286 0 l 156 0 l 156 315 l 57 315 l 57 417 l 156 417 l 156 569 l 22 569 l 22 679 l 156 679 l 156 892 l 286 892 l 286 679 l 419 679 l 419 569 l 286 569 l 286 417 l 385 417 l 385 315 l 286 315 l 286 0 z "},"Ũ":{"ha":988,"x_min":110,"x_max":878,"o":"m 364 1096 l 281 1096 q 305 1219 274 1174 q 394 1265 336 1265 q 494 1226 439 1265 q 576 1188 550 1188 q 624 1265 624 1188 l 707 1265 q 681 1139 713 1182 q 588 1096 649 1096 q 484 1135 539 1096 q 410 1174 429 1174 q 364 1096 364 1174 m 110 357 l 110 1004 l 246 1004 l 246 365 q 310 180 246 244 q 494 115 375 115 q 676 181 613 115 q 740 365 740 246 l 740 1004 l 878 1004 l 878 357 q 775 84 878 185 q 494 -17 672 -17 q 213 83 317 -17 q 110 357 110 183 z "},"ũ":{"ha":788,"x_min":86,"x_max":693,"o":"m 257 776 l 174 776 q 198 900 167 854 q 288 946 229 946 q 388 907 332 946 q 469 868 444 868 q 517 946 517 868 l 601 946 q 574 819 606 863 q 481 776 542 776 q 377 815 432 776 q 303 854 322 854 q 257 776 257 854 m 564 679 l 693 679 l 693 0 l 576 0 l 563 103 q 471 16 533 49 q 333 -17 408 -17 q 151 57 217 -17 q 86 257 86 131 l 86 679 l 217 679 l 217 300 q 379 99 217 99 q 517 156 469 99 q 564 321 564 213 l 564 679 z "},"Ū":{"ha":988,"x_min":110,"x_max":878,"o":"m 321 1143 l 321 1239 l 667 1239 l 667 1143 l 321 1143 m 110 357 l 110 1004 l 246 1004 l 246 365 q 310 180 246 244 q 494 115 375 115 q 676 181 613 115 q 740 365 740 246 l 740 1004 l 878 1004 l 878 357 q 775 84 878 185 q 494 -17 672 -17 q 213 83 317 -17 q 110 357 110 183 z "},"ū":{"ha":788,"x_min":86,"x_max":693,"o":"m 215 824 l 215 919 l 560 919 l 560 824 l 215 824 m 564 679 l 693 679 l 693 0 l 576 0 l 563 103 q 471 16 533 49 q 333 -17 408 -17 q 151 57 217 -17 q 86 257 86 131 l 86 679 l 217 679 l 217 300 q 379 99 217 99 q 517 156 469 99 q 564 321 564 213 l 564 679 z "},"Ů":{"ha":988,"x_min":110,"x_max":878,"o":"m 494 1068 q 376 1114 422 1068 q 331 1231 331 1160 q 378 1347 331 1300 q 494 1393 425 1393 q 610 1347 564 1393 q 657 1231 657 1300 q 610 1115 657 1161 q 494 1068 564 1068 m 436 1169 q 447 1158 436 1169 q 494 1146 458 1146 q 553 1169 531 1146 q 575 1232 575 1193 q 552 1292 575 1268 q 494 1317 529 1317 q 436 1293 458 1317 q 414 1232 414 1269 q 436 1169 414 1193 m 110 357 l 110 1004 l 246 1004 l 246 365 q 310 180 246 244 q 494 115 375 115 q 676 181 613 115 q 740 365 740 246 l 740 1004 l 878 1004 l 878 357 q 775 84 878 185 q 494 -17 672 -17 q 213 83 317 -17 q 110 357 110 183 z "},"ů":{"ha":788,"x_min":86,"x_max":693,"o":"m 388 749 q 269 794 315 749 q 224 911 224 840 q 271 1027 224 981 q 388 1074 318 1074 q 503 1027 457 1074 q 550 911 550 981 q 503 795 550 842 q 388 749 457 749 m 329 850 q 340 838 329 850 q 388 826 351 826 q 446 850 424 826 q 468 913 468 874 q 445 973 468 949 q 388 997 422 997 q 329 974 351 997 q 307 913 307 950 q 329 850 307 874 m 564 679 l 693 679 l 693 0 l 576 0 l 563 103 q 471 16 533 49 q 333 -17 408 -17 q 151 57 217 -17 q 86 257 86 131 l 86 679 l 217 679 l 217 300 q 379 99 217 99 q 517 156 469 99 q 564 321 564 213 l 564 679 z "},"Ű":{"ha":988,"x_min":110,"x_max":878,"o":"m 576 1263 l 458 1078 l 363 1078 l 460 1263 l 576 1263 m 764 1263 l 632 1078 l 535 1078 l 644 1263 l 764 1263 m 110 357 l 110 1004 l 246 1004 l 246 365 q 310 180 246 244 q 494 115 375 115 q 676 181 613 115 q 740 365 740 246 l 740 1004 l 878 1004 l 878 357 q 775 84 878 185 q 494 -17 672 -17 q 213 83 317 -17 q 110 357 110 183 z "},"ű":{"ha":788,"x_min":86,"x_max":693,"o":"m 469 943 l 351 758 l 256 758 l 353 943 l 469 943 m 657 943 l 525 758 l 428 758 l 538 943 l 657 943 m 564 679 l 693 679 l 693 0 l 576 0 l 563 103 q 471 16 533 49 q 333 -17 408 -17 q 151 57 217 -17 q 86 257 86 131 l 86 679 l 217 679 l 217 300 q 379 99 217 99 q 517 156 469 99 q 564 321 564 213 l 564 679 z "},"Ų":{"ha":988,"x_min":110,"x_max":878,"o":"m 110 357 l 110 1004 l 246 1004 l 246 365 q 310 180 246 244 q 494 115 375 115 q 676 181 613 115 q 740 365 740 246 l 740 1004 l 878 1004 l 878 357 q 809 124 878 217 q 618 -1 740 31 q 555 -44 576 -18 q 533 -97 533 -71 q 585 -144 533 -144 q 618 -137 603 -144 l 618 -231 q 558 -240 593 -240 q 473 -208 506 -240 q 440 -128 440 -176 q 507 -17 440 -61 l 494 -17 q 213 83 317 -17 q 110 357 110 183 z "},"ų":{"ha":788,"x_min":86,"x_max":693,"o":"m 608 0 l 576 0 l 563 103 q 471 16 533 49 q 333 -17 408 -17 q 151 57 217 -17 q 86 257 86 131 l 86 679 l 217 679 l 217 300 q 379 99 217 99 q 517 156 469 99 q 564 321 564 213 l 564 679 l 693 679 l 693 0 q 627 -44 650 -17 q 604 -97 604 -71 q 656 -144 604 -144 q 689 -137 674 -144 l 689 -231 q 629 -240 664 -240 q 544 -208 576 -240 q 511 -128 511 -176 q 608 0 511 -42 z "},"Ŵ":{"ha":1396,"x_min":21,"x_max":1375,"o":"m 618 1078 l 510 1078 l 625 1269 l 771 1269 l 885 1078 l 778 1078 l 699 1208 l 618 1078 m 319 0 l 21 1004 l 163 1004 l 346 390 q 388 208 374 285 q 435 390 401 274 l 625 1004 l 772 1004 l 961 390 q 1007 208 988 306 q 1051 389 1028 311 l 1236 1004 l 1375 1004 l 1072 0 l 942 0 l 699 794 l 453 0 l 319 0 z "},"ŵ":{"ha":1067,"x_min":18,"x_max":1049,"o":"m 454 758 l 346 758 l 461 950 l 607 950 l 721 758 l 614 758 l 535 889 l 454 758 m 240 0 l 18 679 l 153 679 l 265 326 q 307 165 290 244 q 351 326 319 235 l 465 679 l 599 679 l 711 326 q 756 165 735 254 q 799 326 772 243 l 913 679 l 1049 679 l 817 0 l 693 0 l 575 364 q 532 522 543 461 q 488 363 522 478 l 369 0 l 240 0 z "},"Ŷ":{"ha":842,"x_min":14,"x_max":828,"o":"m 343 1078 l 235 1078 l 350 1269 l 496 1269 l 610 1078 l 501 1078 l 422 1208 l 343 1078 m 354 408 l 14 1004 l 167 1004 l 390 603 q 424 536 400 586 l 457 603 l 679 1004 l 828 1004 l 490 408 l 490 0 l 354 0 l 354 408 z "},"ŷ":{"ha":692,"x_min":11,"x_max":682,"o":"m 269 758 l 161 758 l 276 950 l 421 950 l 536 758 l 428 758 l 349 889 l 269 758 m 29 -304 l 29 -197 l 117 -197 q 206 -179 172 -197 q 261 -101 239 -161 l 285 -36 l 11 679 l 149 679 l 346 132 l 547 679 l 682 679 l 361 -153 q 274 -278 326 -239 q 143 -318 222 -318 q 29 -304 88 -318 z "},"Ÿ":{"ha":842,"x_min":14,"x_max":828,"o":"m 311 1100 q 254 1124 278 1100 q 231 1181 231 1147 q 254 1237 231 1213 q 311 1261 278 1261 q 367 1237 343 1261 q 390 1181 390 1213 q 367 1124 390 1147 q 311 1100 343 1100 m 535 1100 q 478 1124 501 1100 q 454 1181 454 1147 q 478 1237 454 1213 q 535 1261 503 1261 q 590 1237 567 1261 q 614 1181 614 1213 q 590 1124 614 1147 q 535 1100 567 1100 m 354 408 l 14 1004 l 167 1004 l 390 603 q 424 536 400 586 l 457 603 l 679 1004 l 828 1004 l 490 408 l 490 0 l 354 0 l 354 408 z "},"Ź":{"ha":810,"x_min":50,"x_max":760,"o":"m 567 1263 l 447 1078 l 346 1078 l 440 1263 l 567 1263 m 760 0 l 50 0 l 50 126 l 589 879 l 58 879 l 58 1004 l 758 1004 l 758 882 l 215 126 l 760 126 l 760 0 z "},"ź":{"ha":635,"x_min":53,"x_max":582,"o":"m 490 943 l 369 758 l 269 758 l 363 943 l 490 943 m 582 0 l 53 0 l 53 106 l 419 569 l 53 569 l 53 679 l 582 679 l 582 572 l 213 110 l 582 110 l 582 0 z "},"Ż":{"ha":810,"x_min":50,"x_max":760,"o":"m 394 1100 q 336 1124 360 1100 q 313 1182 313 1149 q 337 1242 313 1217 q 394 1267 361 1267 q 452 1242 428 1267 q 476 1182 476 1217 q 452 1124 476 1149 q 394 1100 428 1100 m 760 0 l 50 0 l 50 126 l 589 879 l 58 879 l 58 1004 l 758 1004 l 758 882 l 215 126 l 760 126 l 760 0 z "},"ż":{"ha":635,"x_min":53,"x_max":582,"o":"m 375 805 q 363 793 375 805 q 317 781 350 781 q 259 805 283 781 q 235 863 235 829 q 259 922 235 897 q 317 947 283 947 q 375 922 350 947 q 400 863 400 897 q 375 805 400 829 m 582 0 l 53 0 l 53 106 l 419 569 l 53 569 l 53 679 l 582 679 l 582 572 l 213 110 l 582 110 l 582 0 z "},"Ž":{"ha":810,"x_min":50,"x_max":760,"o":"m 321 1078 l 207 1269 l 315 1269 l 394 1140 l 474 1269 l 582 1269 l 467 1078 l 321 1078 m 760 0 l 50 0 l 50 126 l 589 879 l 58 879 l 58 1004 l 758 1004 l 758 882 l 215 126 l 760 126 l 760 0 z "},"ž":{"ha":635,"x_min":53,"x_max":582,"o":"m 244 758 l 129 950 l 238 950 l 318 821 l 397 950 l 506 950 l 390 758 l 244 758 m 582 0 l 53 0 l 53 106 l 419 569 l 53 569 l 53 679 l 582 679 l 582 572 l 213 110 l 582 110 l 582 0 z "},"ƒ":{"ha":818,"x_min":63,"x_max":740,"o":"m 101 561 l 353 561 l 388 811 q 459 960 400 907 q 617 1013 518 1013 l 740 1013 l 740 888 l 607 888 q 524 806 533 888 l 490 561 l 735 561 l 735 439 l 474 439 l 410 -26 q 189 -211 386 -211 l 63 -211 l 63 -86 l 190 -86 q 247 -67 224 -86 q 274 -11 269 -47 l 336 439 l 101 439 l 101 561 z "},"Ǻ":{"ha":919,"x_min":17,"x_max":903,"o":"m 632 1467 l 513 1282 l 413 1282 l 506 1467 l 632 1467 m 158 0 l 17 0 l 367 957 q 296 1093 296 1001 q 342 1209 296 1163 q 458 1256 389 1256 q 575 1209 528 1256 q 622 1093 622 1163 q 551 958 622 1007 l 903 0 l 760 0 l 669 250 l 247 250 l 158 0 m 401 1032 q 411 1020 401 1032 q 458 1008 422 1008 q 517 1032 494 1008 q 539 1094 539 1056 q 516 1155 539 1131 q 458 1179 493 1179 q 401 1156 424 1179 q 379 1094 379 1132 q 401 1032 379 1056 m 442 788 l 289 368 l 629 368 l 475 788 q 458 846 463 822 q 442 788 454 825 z "},"ǻ":{"ha":742,"x_min":61,"x_max":656,"o":"m 538 1138 l 422 968 l 328 968 l 417 1138 l 538 1138 m 293 -17 q 123 40 185 -17 q 61 189 61 96 q 127 338 61 282 q 314 404 193 394 l 528 421 l 528 440 q 368 594 528 594 q 241 560 286 594 q 196 464 196 525 l 82 464 q 125 597 82 542 q 246 679 168 653 q 213 783 213 724 q 259 899 213 853 q 375 946 306 946 q 492 899 444 946 q 539 783 539 853 q 501 678 539 722 q 656 426 656 618 l 656 0 l 544 0 l 531 110 q 440 17 504 51 q 293 -17 375 -17 m 317 722 q 328 710 317 722 q 375 699 339 699 q 433 722 411 699 q 456 783 456 746 q 433 844 456 819 q 375 868 410 868 q 317 844 339 868 q 294 783 294 821 q 317 722 294 746 m 331 85 q 476 141 424 85 q 529 293 529 197 l 529 329 l 356 315 q 193 193 193 300 q 229 113 193 140 q 331 85 265 85 z "},"Ǽ":{"ha":1274,"x_min":10,"x_max":1193,"o":"m 953 1263 l 833 1078 l 732 1078 l 826 1263 l 953 1263 m 10 0 l 413 1004 l 1193 1004 l 1193 879 l 719 879 l 719 565 l 1146 565 l 1146 444 l 719 444 l 719 126 l 1193 126 l 1193 0 l 583 0 l 583 271 l 267 271 l 161 0 l 10 0 m 313 388 l 583 388 l 583 879 l 504 879 l 313 388 z "},"ǽ":{"ha":1225,"x_min":61,"x_max":1175,"o":"m 771 943 l 651 758 l 550 758 l 643 943 l 771 943 m 61 190 q 128 340 61 288 q 310 394 194 392 l 528 400 l 528 440 q 484 554 528 514 q 364 594 440 594 q 240 560 285 594 q 196 464 196 525 l 82 464 q 160 634 82 569 q 367 699 239 699 q 511 667 450 699 q 601 579 572 635 q 854 699 692 699 q 1087 606 1000 699 q 1174 364 1174 514 l 1174 315 l 646 314 q 710 151 654 210 q 863 92 765 92 q 1051 211 1019 92 l 1175 211 q 1068 43 1150 103 q 860 -17 986 -17 q 692 25 765 -17 q 576 142 618 67 q 470 26 543 68 q 301 -17 397 -17 q 124 39 188 -17 q 61 190 61 94 m 854 589 q 714 538 768 589 q 647 400 660 486 l 1043 400 q 992 537 1043 485 q 854 589 942 589 m 229 278 q 211 266 229 278 q 193 197 193 253 q 231 113 193 142 q 335 85 268 85 q 476 135 424 85 q 529 271 529 186 l 529 313 l 342 307 q 229 278 265 304 z "},"Ǿ":{"ha":1079,"x_min":57,"x_max":1022,"o":"m 706 1253 l 585 1069 l 485 1069 l 578 1253 l 706 1253 m 1022 503 q 887 128 1022 274 q 538 -17 751 -17 q 271 60 389 -17 l 225 0 l 93 0 l 190 129 q 57 503 57 274 q 192 876 57 731 q 539 1022 326 1022 q 811 943 693 1022 l 858 1006 l 988 1006 l 889 875 q 1022 503 1022 731 m 200 503 q 276 242 200 346 l 728 835 q 539 890 649 890 q 293 784 386 890 q 200 503 200 678 m 879 503 q 803 763 879 658 l 353 168 q 539 114 433 114 q 785 222 692 114 q 879 503 879 329 z "},"ǿ":{"ha":807,"x_min":50,"x_max":757,"o":"m 576 943 l 456 758 l 356 758 l 449 943 l 576 943 m 50 340 q 150 597 50 497 q 404 697 250 697 q 553 668 486 697 l 596 738 l 710 738 l 635 617 q 757 340 757 514 q 657 83 757 183 q 404 -17 557 -17 q 261 10 329 -17 l 213 -69 l 94 -69 l 175 61 q 50 340 50 161 m 182 340 q 242 168 182 236 l 489 565 q 404 581 447 581 q 244 514 306 581 q 182 340 182 447 m 626 340 q 568 508 626 443 l 325 114 q 404 100 358 100 q 565 167 503 100 q 626 340 626 235 z "},"Ș":{"ha":801,"x_min":44,"x_max":747,"o":"m 58 733 q 153 942 58 863 q 404 1022 249 1022 q 635 947 547 1022 q 731 742 722 872 l 593 742 q 538 858 588 817 q 403 900 488 900 q 251 856 308 900 q 194 738 194 811 q 335 586 194 619 l 500 547 q 747 279 747 490 q 651 64 747 144 q 393 -17 554 -17 q 144 58 239 -17 q 44 263 50 133 l 183 263 q 242 148 186 190 q 393 106 299 106 q 552 149 493 106 q 611 268 611 193 q 472 419 611 388 l 307 457 q 58 733 58 514 m 471 -147 q 430 -256 471 -215 q 328 -290 389 -296 l 328 -243 q 407 -189 403 -249 q 382 -193 397 -193 q 333 -174 353 -193 q 314 -125 314 -154 q 335 -71 314 -92 q 389 -50 356 -50 q 449 -76 426 -50 q 471 -147 471 -101 z "},"ș":{"ha":622,"x_min":39,"x_max":572,"o":"m 39 197 l 164 197 q 201 116 164 146 q 303 86 238 86 q 409 113 371 86 q 447 186 447 139 q 426 244 447 222 q 354 278 406 265 l 235 306 q 57 494 57 349 q 128 643 57 588 q 313 699 199 699 q 491 641 424 699 q 561 486 558 583 l 436 486 q 400 567 433 538 q 308 597 367 597 q 214 572 247 597 q 181 499 181 546 q 281 406 181 431 l 400 376 q 531 313 489 356 q 572 194 572 269 q 497 41 572 99 q 300 -17 422 -17 q 110 42 181 -17 q 39 197 39 100 m 379 -147 q 338 -256 379 -215 q 236 -290 297 -296 l 236 -243 q 293 -231 272 -246 q 315 -189 314 -217 q 290 -193 306 -193 q 242 -174 261 -193 q 222 -125 222 -154 q 243 -71 222 -92 q 297 -50 264 -50 q 357 -76 335 -50 q 379 -147 379 -101 z "},"Ț":{"ha":781,"x_min":19,"x_max":760,"o":"m 19 879 l 19 1004 l 760 1004 l 760 879 l 458 879 l 458 0 l 322 0 l 322 879 l 19 879 m 467 -147 q 426 -256 467 -215 q 324 -290 386 -296 l 324 -243 q 381 -231 360 -246 q 404 -187 401 -217 q 378 -193 393 -193 q 329 -174 349 -193 q 310 -125 310 -154 q 331 -71 310 -92 q 385 -50 353 -50 q 444 -76 422 -50 q 467 -147 467 -101 z "},"ț":{"ha":442,"x_min":22,"x_max":419,"o":"m 286 0 l 156 0 l 156 569 l 22 569 l 22 679 l 156 679 l 156 892 l 286 892 l 286 679 l 419 679 l 419 569 l 286 569 l 286 0 m 300 -147 q 260 -256 300 -215 q 157 -290 219 -296 l 157 -243 q 214 -231 193 -246 q 238 -187 235 -217 q 211 -193 228 -193 q 163 -174 182 -193 q 143 -125 143 -154 q 165 -71 143 -92 q 218 -50 186 -50 q 278 -76 256 -50 q 300 -147 300 -101 z "},"ȷ":{"ha":319,"x_min":-78,"x_max":225,"o":"m -78 -308 l -56 -190 q 7 -200 -18 -200 q 74 -173 53 -200 q 94 -87 94 -146 l 94 679 l 225 679 l 225 -100 q 171 -262 225 -203 q 18 -321 117 -321 q -78 -308 -33 -321 z "},"ˆ":{"ha":486,"x_min":56,"x_max":431,"o":"m 164 1067 l 56 1067 l 171 1257 l 317 1257 l 431 1067 l 322 1067 l 243 1196 l 164 1067 z "},"ˇ":{"ha":486,"x_min":56,"x_max":431,"o":"m 171 1067 l 56 1257 l 164 1257 l 243 1128 l 322 1257 l 431 1257 l 317 1067 l 171 1067 z "},"˘":{"ha":528,"x_min":71,"x_max":456,"o":"m 357 1251 l 456 1251 q 403 1110 456 1163 q 264 1058 351 1058 q 123 1110 175 1058 q 71 1251 71 1163 l 171 1251 q 264 1151 171 1151 q 357 1251 357 1151 z "},"˙":{"ha":293,"x_min":64,"x_max":229,"o":"m 204 1113 q 192 1101 204 1113 q 146 1089 179 1089 q 88 1113 113 1089 q 64 1171 64 1136 q 88 1229 64 1204 q 146 1254 113 1254 q 204 1229 179 1254 q 229 1171 229 1204 q 204 1113 229 1138 z "},"˚":{"ha":433,"x_min":54,"x_max":381,"o":"m 217 1056 q 100 1101 146 1056 q 54 1218 54 1147 q 101 1334 54 1288 q 217 1381 147 1381 q 333 1334 286 1381 q 381 1218 381 1288 q 333 1102 381 1149 q 217 1056 286 1056 m 158 1157 q 169 1145 158 1157 q 217 1133 181 1133 q 275 1157 253 1133 q 297 1219 297 1181 q 274 1280 297 1256 q 217 1304 251 1304 q 158 1281 181 1304 q 136 1219 136 1257 q 158 1157 136 1181 z "},"˛":{"ha":293,"x_min":58,"x_max":240,"o":"m 157 0 l 240 0 q 175 -43 197 -17 q 153 -97 153 -69 q 204 -144 153 -144 q 236 -137 222 -144 l 236 -231 q 178 -240 211 -240 q 92 -208 125 -240 q 58 -128 58 -176 q 84 -55 58 -89 q 157 0 110 -21 z "},"˜":{"ha":554,"x_min":64,"x_max":490,"o":"m 147 1083 l 64 1083 q 88 1208 57 1161 q 178 1254 119 1254 q 278 1215 222 1254 q 360 1175 335 1175 q 407 1254 407 1175 l 490 1254 q 464 1127 496 1171 q 371 1083 432 1083 q 267 1122 322 1083 q 193 1161 213 1161 q 147 1083 147 1161 z "},"˝":{"ha":533,"x_min":57,"x_max":460,"o":"m 271 1250 l 153 1067 l 57 1067 l 156 1250 l 271 1250 m 460 1250 l 328 1067 l 231 1067 l 339 1250 l 460 1250 z "},"̀":{"ha":340,"x_min":61,"x_max":281,"o":"m 281 1067 l 181 1067 l 61 1251 l 189 1251 l 281 1067 z "},"́":{"ha":342,"x_min":60,"x_max":281,"o":"m 281 1250 l 161 1067 l 60 1067 l 154 1250 l 281 1250 z "},"̂":{"ha":486,"x_min":56,"x_max":431,"o":"m 164 1067 l 56 1067 l 171 1257 l 317 1257 l 431 1067 l 322 1067 l 243 1196 l 164 1067 z "},"̃":{"ha":554,"x_min":64,"x_max":490,"o":"m 147 1083 l 64 1083 q 88 1208 57 1161 q 178 1254 119 1254 q 278 1215 222 1254 q 360 1175 335 1175 q 407 1254 407 1175 l 490 1254 q 464 1127 496 1171 q 371 1083 432 1083 q 267 1122 322 1083 q 193 1161 213 1161 q 147 1083 147 1161 z "},"̄":{"ha":513,"x_min":83,"x_max":429,"o":"m 83 1131 l 83 1226 l 429 1226 l 429 1131 l 83 1131 z "},"̆":{"ha":528,"x_min":71,"x_max":456,"o":"m 357 1251 l 456 1251 q 403 1110 456 1163 q 264 1058 351 1058 q 123 1110 175 1058 q 71 1251 71 1163 l 171 1251 q 264 1151 171 1151 q 357 1251 357 1151 z "},"̇":{"ha":293,"x_min":64,"x_max":229,"o":"m 204 1113 q 192 1101 204 1113 q 146 1089 179 1089 q 88 1113 113 1089 q 64 1171 64 1136 q 88 1229 64 1204 q 146 1254 113 1254 q 204 1229 179 1254 q 229 1171 229 1204 q 204 1113 229 1138 z "},"̈":{"ha":546,"x_min":82,"x_max":465,"o":"m 161 1089 q 105 1112 128 1089 q 82 1168 82 1135 q 106 1224 82 1200 q 161 1249 129 1249 q 217 1224 193 1249 q 242 1168 242 1200 q 217 1113 242 1136 q 161 1089 193 1089 m 385 1089 q 328 1112 351 1089 q 306 1168 306 1135 q 329 1224 306 1200 q 385 1249 353 1249 q 441 1224 417 1249 q 465 1168 465 1200 q 441 1113 465 1136 q 385 1089 417 1089 z "},"̊":{"ha":433,"x_min":54,"x_max":381,"o":"m 217 1056 q 100 1101 146 1056 q 54 1218 54 1147 q 101 1334 54 1288 q 217 1381 147 1381 q 333 1334 286 1381 q 381 1218 381 1288 q 333 1102 381 1149 q 217 1056 286 1056 m 158 1157 q 169 1145 158 1157 q 217 1133 181 1133 q 275 1157 253 1133 q 297 1219 297 1181 q 274 1280 297 1256 q 217 1304 251 1304 q 158 1281 181 1304 q 136 1219 136 1257 q 158 1157 136 1181 z "},"̋":{"ha":533,"x_min":57,"x_max":460,"o":"m 271 1250 l 153 1067 l 57 1067 l 156 1250 l 271 1250 m 460 1250 l 328 1067 l 231 1067 l 339 1250 l 460 1250 z "},"̌":{"ha":486,"x_min":56,"x_max":431,"o":"m 171 1067 l 56 1257 l 164 1257 l 243 1128 l 322 1257 l 431 1257 l 317 1067 l 171 1067 z "},"̒":{"ha":274,"x_min":58,"x_max":215,"o":"m 215 1143 q 194 1089 215 1110 q 140 1068 174 1068 q 81 1094 103 1068 q 58 1165 58 1119 q 99 1274 58 1233 q 201 1308 140 1314 l 201 1261 q 122 1207 125 1265 q 147 1211 133 1211 q 196 1192 176 1211 q 215 1143 215 1172 z "},"̦":{"ha":274,"x_min":56,"x_max":213,"o":"m 213 -128 q 172 -237 213 -196 q 69 -272 131 -278 l 69 -224 q 150 -169 146 -231 q 124 -175 140 -175 q 75 -155 94 -175 q 56 -106 56 -135 q 77 -52 56 -74 q 132 -31 99 -31 q 191 -56 169 -31 q 213 -128 213 -82 z "},"̧":{"ha":338,"x_min":50,"x_max":282,"o":"m 50 -251 l 50 -185 q 135 -208 97 -208 q 184 -195 165 -208 q 203 -158 203 -182 q 146 -111 203 -111 q 78 -126 113 -111 l 63 -86 l 125 46 l 169 46 l 169 6 l 136 -62 q 179 -56 160 -56 q 252 -82 222 -56 q 282 -156 282 -108 q 242 -243 282 -212 q 143 -274 203 -274 q 50 -251 86 -274 z "},"̵":{"ha":739,"x_min":71,"x_max":507,"o":"m 71 868 l 507 868 l 507 783 l 71 783 l 71 868 z "},"̷":{"ha":346,"x_min":28,"x_max":321,"o":"m 28 431 l 28 528 l 321 668 l 321 571 l 28 431 z "},"̸":{"ha":728,"x_min":56,"x_max":672,"o":"m 672 749 l 174 -58 l 56 -58 l 557 749 l 672 749 z "},"Ω":{"ha":900,"x_min":96,"x_max":804,"o":"m 396 0 l 96 0 l 96 103 l 228 103 q 103 372 103 210 q 201 606 103 513 q 451 699 300 699 q 701 606 604 699 q 799 374 799 513 q 671 103 799 208 l 804 103 l 804 0 l 504 0 l 504 103 q 636 208 590 136 q 682 363 682 279 q 616 524 682 463 q 450 586 550 586 q 285 524 351 586 q 218 361 218 461 q 266 204 218 275 q 396 103 314 133 l 396 0 z "},"π":{"ha":863,"x_min":24,"x_max":811,"o":"m 154 0 l 154 569 l 24 569 l 24 679 l 811 679 l 811 569 l 669 569 l 669 188 q 740 114 669 117 l 811 113 l 811 6 q 697 -3 750 -3 q 578 37 617 -3 q 540 167 540 76 l 540 569 l 285 569 l 285 0 l 154 0 z "},"Ẁ":{"ha":1396,"x_min":21,"x_max":1375,"o":"m 746 1078 l 644 1078 l 526 1263 l 654 1263 l 746 1078 m 319 0 l 21 1004 l 163 1004 l 346 390 q 388 208 374 285 q 435 390 401 274 l 625 1004 l 772 1004 l 961 390 q 1007 208 988 306 q 1051 389 1028 311 l 1236 1004 l 1375 1004 l 1072 0 l 942 0 l 699 794 l 453 0 l 319 0 z "},"ẁ":{"ha":1067,"x_min":18,"x_max":1049,"o":"m 582 758 l 481 758 l 363 943 l 490 943 l 582 758 m 240 0 l 18 679 l 153 679 l 265 326 q 307 165 290 244 q 351 326 319 235 l 465 679 l 599 679 l 711 326 q 756 165 735 254 q 799 326 772 243 l 913 679 l 1049 679 l 817 0 l 693 0 l 575 364 q 532 522 543 461 q 488 363 522 478 l 369 0 l 240 0 z "},"Ẃ":{"ha":1396,"x_min":21,"x_max":1375,"o":"m 871 1263 l 750 1078 l 650 1078 l 743 1263 l 871 1263 m 319 0 l 21 1004 l 163 1004 l 346 390 q 388 208 374 285 q 435 390 401 274 l 625 1004 l 772 1004 l 961 390 q 1007 208 988 306 q 1051 389 1028 311 l 1236 1004 l 1375 1004 l 1072 0 l 942 0 l 699 794 l 453 0 l 319 0 z "},"ẃ":{"ha":1067,"x_min":18,"x_max":1049,"o":"m 707 943 l 586 758 l 486 758 l 579 943 l 707 943 m 240 0 l 18 679 l 153 679 l 265 326 q 307 165 290 244 q 351 326 319 235 l 465 679 l 599 679 l 711 326 q 756 165 735 254 q 799 326 772 243 l 913 679 l 1049 679 l 817 0 l 693 0 l 575 364 q 532 522 543 461 q 488 363 522 478 l 369 0 l 240 0 z "},"Ẅ":{"ha":1396,"x_min":21,"x_max":1375,"o":"m 586 1100 q 530 1124 553 1100 q 507 1181 507 1147 q 531 1237 507 1213 q 586 1261 554 1261 q 642 1237 618 1261 q 665 1181 665 1213 q 642 1124 665 1147 q 586 1100 618 1100 m 810 1100 q 753 1124 776 1100 q 731 1181 731 1147 q 754 1237 731 1213 q 810 1261 778 1261 q 865 1237 842 1261 q 889 1181 889 1213 q 865 1124 889 1147 q 810 1100 842 1100 m 319 0 l 21 1004 l 163 1004 l 346 390 q 388 208 374 285 q 435 390 401 274 l 625 1004 l 772 1004 l 961 390 q 1007 208 988 306 q 1051 389 1028 311 l 1236 1004 l 1375 1004 l 1072 0 l 942 0 l 699 794 l 453 0 l 319 0 z "},"ẅ":{"ha":1067,"x_min":18,"x_max":1049,"o":"m 422 781 q 366 804 389 781 q 343 861 343 828 q 367 917 343 893 q 422 942 390 942 q 478 917 454 942 q 501 861 501 893 q 478 804 501 828 q 422 781 454 781 m 646 781 q 590 804 613 781 q 567 861 567 828 q 590 917 567 893 q 646 942 614 942 q 701 917 678 942 q 725 861 725 893 q 701 804 725 828 q 646 781 678 781 m 240 0 l 18 679 l 153 679 l 265 326 q 307 165 290 244 q 351 326 319 235 l 465 679 l 599 679 l 711 326 q 756 165 735 254 q 799 326 772 243 l 913 679 l 1049 679 l 817 0 l 693 0 l 575 364 q 532 522 543 461 q 488 363 522 478 l 369 0 l 240 0 z "},"Ỳ":{"ha":842,"x_min":14,"x_max":828,"o":"m 471 1078 l 369 1078 l 251 1263 l 379 1263 l 471 1078 m 354 408 l 14 1004 l 167 1004 l 390 603 q 424 536 400 586 l 457 603 l 679 1004 l 828 1004 l 490 408 l 490 0 l 354 0 l 354 408 z "},"ỳ":{"ha":692,"x_min":11,"x_max":682,"o":"m 397 758 l 296 758 l 178 943 l 304 943 l 397 758 m 29 -304 l 29 -197 l 117 -197 q 206 -179 172 -197 q 261 -101 239 -161 l 285 -36 l 11 679 l 149 679 l 346 132 l 547 679 l 682 679 l 361 -153 q 274 -278 326 -239 q 143 -318 222 -318 q 29 -304 88 -318 z "},"–":{"ha":1321,"x_min":93,"x_max":1228,"o":"m 93 308 l 93 425 l 1228 425 l 1228 308 l 93 308 z "},"—":{"ha":1629,"x_min":93,"x_max":1535,"o":"m 93 308 l 93 425 l 1535 425 l 1535 308 l 93 308 z "},"‘":{"ha":364,"x_min":86,"x_max":278,"o":"m 278 799 q 253 733 278 758 q 186 707 228 707 q 115 740 143 707 q 86 828 86 772 q 133 958 86 903 q 254 1024 181 1013 l 254 965 q 187 932 213 957 q 161 874 161 907 q 200 883 178 883 q 256 860 233 883 q 278 799 278 838 z "},"’":{"ha":364,"x_min":86,"x_max":278,"o":"m 278 903 q 231 772 278 826 q 110 707 183 717 l 110 765 q 177 797 151 772 q 203 856 203 822 q 164 847 189 847 q 108 870 131 847 q 86 932 86 893 q 111 998 86 972 q 178 1024 136 1024 q 249 991 221 1024 q 278 903 278 958 z "},"‚":{"ha":364,"x_min":86,"x_max":278,"o":"m 278 47 q 231 -83 278 -28 q 110 -149 183 -137 l 110 -89 q 177 -57 151 -82 q 203 1 203 -32 q 164 -8 186 -8 q 108 15 131 -8 q 86 76 86 38 q 111 142 86 117 q 178 168 136 168 q 249 135 221 168 q 278 47 278 103 z "},"“":{"ha":613,"x_min":86,"x_max":526,"o":"m 278 799 q 253 733 278 758 q 186 707 228 707 q 115 740 143 707 q 86 828 86 772 q 133 958 86 903 q 254 1024 181 1013 l 254 965 q 187 932 213 957 q 161 874 161 907 q 200 883 178 883 q 256 860 233 883 q 278 799 278 838 m 526 799 q 501 733 526 758 q 435 707 475 707 q 362 740 390 707 q 333 828 333 772 q 381 958 333 903 q 503 1024 429 1013 l 503 965 q 435 932 461 957 q 410 875 410 907 q 447 883 425 883 q 503 860 481 883 q 526 799 526 838 z "},"”":{"ha":613,"x_min":86,"x_max":526,"o":"m 278 903 q 231 772 278 826 q 110 707 183 717 l 110 765 q 177 797 151 772 q 203 856 203 822 q 164 847 189 847 q 108 870 131 847 q 86 932 86 893 q 111 998 86 972 q 178 1024 136 1024 q 249 991 221 1024 q 278 903 278 958 m 526 903 q 478 772 526 826 q 357 707 431 717 l 357 765 q 424 797 399 772 q 450 856 450 822 q 413 847 436 847 q 356 870 379 847 q 333 932 333 893 q 359 998 333 972 q 425 1024 385 1024 q 498 991 469 1024 q 526 903 526 958 z "},"„":{"ha":613,"x_min":86,"x_max":526,"o":"m 278 47 q 231 -83 278 -28 q 110 -149 183 -137 l 110 -89 q 177 -57 151 -82 q 203 1 203 -32 q 164 -8 186 -8 q 108 15 131 -8 q 86 76 86 38 q 111 142 86 117 q 178 168 136 168 q 249 135 221 168 q 278 47 278 103 m 526 47 q 478 -83 526 -29 q 357 -149 431 -137 l 357 -89 q 424 -57 397 -82 q 450 0 450 -32 q 413 -8 436 -8 q 356 15 379 -8 q 333 76 333 38 q 359 142 333 117 q 425 168 385 168 q 498 135 469 168 q 526 47 526 103 z "},"†":{"ha":438,"x_min":32,"x_max":404,"o":"m 175 385 l 175 783 l 32 783 l 32 865 l 175 865 l 175 1004 l 261 1004 l 261 865 l 404 865 l 404 783 l 261 783 l 261 385 l 175 385 z "},"‡":{"ha":439,"x_min":32,"x_max":407,"o":"m 175 385 l 175 547 l 35 547 l 35 629 l 175 629 l 175 760 l 32 760 l 32 842 l 175 842 l 175 1004 l 261 1004 l 261 842 l 404 842 l 404 760 l 261 760 l 261 629 l 407 629 l 407 547 l 261 547 l 261 385 l 175 385 z "},"•":{"ha":560,"x_min":75,"x_max":483,"o":"m 281 168 q 136 228 197 168 q 75 369 75 288 q 136 513 75 451 q 281 574 197 574 q 424 513 364 574 q 483 369 483 453 q 423 228 483 288 q 281 168 363 168 z "},"…":{"ha":1024,"x_min":92,"x_max":932,"o":"m 261 13 q 247 -2 261 13 q 192 -17 232 -17 q 122 13 151 -17 q 92 81 92 42 q 122 150 92 121 q 192 179 151 179 q 261 150 232 179 q 290 81 290 121 q 261 13 290 42 m 513 -17 q 442 12 471 -17 q 413 81 413 40 q 442 150 413 121 q 513 179 471 179 q 582 150 553 179 q 611 81 611 121 q 582 13 611 42 q 513 -17 553 -17 m 902 13 q 887 -2 902 13 q 832 -17 872 -17 q 763 12 792 -17 q 733 81 733 40 q 763 150 733 121 q 832 179 792 179 q 902 150 872 179 q 932 81 932 121 q 902 13 932 42 z "},"‰":{"ha":1851,"x_min":58,"x_max":1794,"o":"m 565 767 q 494 583 565 656 q 311 511 422 511 q 130 583 201 511 q 58 767 58 656 q 129 951 58 879 q 311 1024 200 1024 q 494 951 422 1024 q 565 767 565 879 m 1094 1003 l 332 0 l 199 0 l 961 1003 l 1094 1003 m 458 767 q 417 877 458 835 q 311 919 376 919 q 206 877 246 919 q 165 767 165 835 q 206 658 165 700 q 311 615 247 615 q 417 658 376 615 q 458 767 458 700 m 1238 238 q 1166 54 1238 126 q 983 -18 1094 -18 q 801 54 872 -18 q 729 238 729 126 q 801 422 729 350 q 983 493 872 493 q 1166 422 1094 493 q 1238 238 1238 350 m 1794 238 q 1723 54 1794 126 q 1540 -18 1651 -18 q 1358 54 1429 -18 q 1286 238 1286 126 q 1358 422 1286 350 q 1540 493 1429 493 q 1723 422 1651 493 q 1794 238 1794 350 m 1129 238 q 1089 348 1129 306 q 983 390 1049 390 q 878 348 918 390 q 838 238 838 306 q 878 128 838 171 q 983 86 919 86 q 1088 128 1047 86 q 1129 238 1129 171 m 1686 238 q 1646 348 1686 306 q 1540 390 1606 390 q 1435 348 1475 390 q 1394 238 1394 306 q 1435 128 1394 171 q 1540 86 1476 86 q 1645 128 1604 86 q 1686 238 1686 171 z "},"′":{"ha":251,"x_min":64,"x_max":186,"o":"m 186 949 l 160 690 l 90 690 l 64 949 q 79 1004 60 985 q 125 1024 99 1024 q 172 1004 153 1024 q 186 949 190 985 z "},"‹":{"ha":569,"x_min":56,"x_max":514,"o":"m 353 0 l 56 339 l 353 679 l 514 679 l 217 339 l 514 0 l 353 0 z "},"›":{"ha":569,"x_min":56,"x_max":514,"o":"m 217 0 l 56 0 l 353 339 l 56 679 l 217 679 l 514 339 l 217 0 z "},"⁂":{"ha":1256,"x_min":38,"x_max":1219,"o":"m 469 792 l 381 825 l 408 896 l 494 868 q 601 815 553 847 q 589 933 589 868 l 589 1028 l 665 1028 l 665 933 q 654 815 665 868 q 760 868 703 847 l 847 897 l 876 825 l 785 792 q 671 765 738 774 q 749 678 707 733 l 801 599 l 738 554 l 683 631 q 626 735 643 688 q 572 631 610 685 l 517 554 l 451 599 l 507 678 q 585 765 544 729 q 469 792 521 774 m 128 257 l 38 290 l 65 364 l 153 333 q 258 282 217 308 q 246 399 246 360 l 246 494 l 324 494 l 324 399 q 313 282 324 333 q 418 333 356 310 l 506 364 l 535 290 l 443 258 q 328 232 394 240 q 406 143 365 196 l 458 65 l 394 21 l 340 97 q 283 200 308 140 q 231 97 268 151 l 174 21 l 110 65 l 164 144 q 242 232 204 199 q 128 257 171 242 m 813 257 l 722 290 l 750 363 l 836 333 q 943 282 890 315 q 931 399 931 344 l 931 494 l 1008 494 l 1008 399 q 997 282 1008 333 q 1101 333 1038 310 l 1190 364 l 1219 290 l 1128 258 q 1013 232 1078 240 q 1090 143 1050 196 l 1143 65 l 1079 21 l 1025 97 q 968 200 993 140 q 915 97 953 151 l 858 21 l 794 65 l 849 144 q 928 232 890 200 q 813 257 857 242 z "},"⁄":{"ha":192,"x_min":-283,"x_max":475,"o":"m 475 986 l -172 0 l -283 0 l 364 986 l 475 986 z "},"⁰":{"ha":583,"x_min":39,"x_max":546,"o":"m 106 524 q 73 567 106 524 q 39 751 39 610 q 108 981 39 893 q 293 1068 178 1068 q 478 981 411 1068 q 546 751 546 894 q 477 524 546 610 q 292 439 408 439 q 106 524 174 439 m 133 751 q 175 585 133 644 q 293 525 217 525 q 409 585 368 525 q 450 751 450 644 q 409 922 450 861 q 293 982 368 982 q 175 922 217 982 q 133 751 133 861 z "},"⁴":{"ha":521,"x_min":28,"x_max":507,"o":"m 507 575 l 435 575 l 435 458 l 343 458 l 343 575 l 28 575 l 28 661 l 314 1065 l 435 1065 l 435 660 l 507 660 l 507 575 m 135 660 l 343 660 l 343 958 l 135 660 z "},"⁵":{"ha":496,"x_min":28,"x_max":468,"o":"m 28 656 l 121 656 q 156 568 121 601 q 247 535 192 535 q 339 569 304 535 q 374 663 374 604 q 339 756 374 721 q 247 792 304 792 q 133 736 176 792 l 46 750 l 122 1065 l 433 1065 l 433 978 l 193 978 l 157 840 q 263 871 197 871 q 410 812 351 871 q 468 663 468 753 q 407 508 468 568 q 249 449 346 449 q 90 507 153 449 q 28 656 28 565 z "},"⁶":{"ha":526,"x_min":36,"x_max":490,"o":"m 122 883 l 261 1071 l 368 1071 l 219 872 q 276 882 244 882 q 431 823 372 882 q 490 671 490 764 q 426 511 490 574 q 265 449 363 449 q 102 513 168 449 q 36 671 36 576 q 55 772 36 725 q 122 883 74 818 m 170 764 q 152 745 170 764 q 133 668 133 726 q 170 572 133 610 q 265 533 207 533 q 358 572 321 533 q 394 668 394 610 q 358 763 394 725 q 265 801 321 801 q 170 764 207 801 z "},"⁷":{"ha":458,"x_min":22,"x_max":436,"o":"m 436 978 l 224 458 l 129 458 l 346 978 l 22 978 l 22 1065 l 436 1065 l 436 978 z "},"⁸":{"ha":522,"x_min":36,"x_max":485,"o":"m 36 624 q 67 722 36 679 q 150 782 97 764 q 64 914 64 817 q 118 1031 64 988 q 261 1075 172 1075 q 404 1031 350 1075 q 458 914 458 988 q 371 781 458 817 q 454 723 424 767 q 485 624 485 679 q 423 497 485 544 q 261 449 361 449 q 98 497 160 449 q 36 624 36 544 m 177 970 q 161 959 177 970 q 146 907 146 947 q 176 842 146 867 q 261 817 207 817 q 344 841 314 817 q 374 906 374 865 q 343 970 374 947 q 261 993 313 993 q 177 970 208 993 m 132 636 q 167 561 132 588 q 261 535 203 535 q 355 561 319 535 q 390 636 390 588 q 354 710 390 683 q 260 738 318 738 q 167 710 203 738 q 132 636 132 683 z "},"⁹":{"ha":526,"x_min":36,"x_max":490,"o":"m 404 647 l 265 458 l 158 458 l 311 660 q 251 649 281 649 q 96 708 156 649 q 36 858 36 767 q 101 1019 36 956 q 263 1082 165 1082 q 425 1017 360 1082 q 490 858 490 953 q 472 758 490 804 q 404 647 453 713 m 393 861 q 357 958 393 919 q 263 996 321 996 q 169 958 206 996 q 133 861 133 919 q 169 766 133 804 q 263 728 206 728 q 356 766 319 728 q 393 861 393 804 z "},"₀":{"ha":585,"x_min":39,"x_max":546,"o":"m 106 -65 q 73 -22 106 -65 q 39 163 39 21 q 108 391 39 304 q 293 478 178 478 q 478 392 411 478 q 546 163 546 306 q 477 -65 546 21 q 292 -150 408 -150 q 106 -65 174 -150 m 133 163 q 175 -4 133 56 q 293 -64 217 -64 q 409 -4 368 -64 q 450 163 450 56 q 409 332 450 272 q 293 392 368 392 q 175 332 217 392 q 133 163 133 272 z "},"₁":{"ha":326,"x_min":29,"x_max":263,"o":"m 168 381 l 29 381 l 29 468 l 263 468 l 263 -139 l 168 -139 l 168 381 z "},"₂":{"ha":488,"x_min":36,"x_max":453,"o":"m 453 -139 l 39 -139 l 39 -65 l 258 115 q 351 275 351 192 q 243 392 351 392 q 159 358 189 392 q 129 261 129 324 l 36 261 q 94 419 39 361 q 243 478 150 478 q 392 425 338 478 q 446 279 446 372 q 321 58 446 161 l 186 -51 l 453 -51 l 453 -139 z "},"₃":{"ha":488,"x_min":29,"x_max":453,"o":"m 197 165 l 156 165 l 156 229 l 325 381 l 57 381 l 57 468 l 439 468 l 439 383 l 278 240 q 403 181 354 231 q 453 50 453 131 q 391 -94 453 -40 q 238 -149 329 -149 q 88 -94 146 -149 q 29 53 29 -39 l 122 53 q 153 -32 122 -1 q 239 -62 185 -62 q 325 -32 292 -62 q 358 51 358 -1 q 330 128 358 99 q 246 164 301 158 q 197 165 231 165 z "},"₄":{"ha":529,"x_min":28,"x_max":507,"o":"m 507 -22 l 435 -22 l 435 -139 l 343 -139 l 343 -22 l 28 -22 l 28 64 l 314 468 l 435 468 l 435 63 l 507 63 l 507 -22 m 135 63 l 343 63 l 343 361 l 135 63 z "},"₅":{"ha":496,"x_min":28,"x_max":468,"o":"m 28 58 l 121 58 q 156 -29 121 4 q 247 -62 192 -62 q 339 -28 304 -62 q 374 65 374 7 q 339 159 374 124 q 247 194 304 194 q 133 139 176 194 l 46 153 l 122 468 l 433 468 l 433 381 l 193 381 l 157 243 q 263 274 197 274 q 410 215 351 274 q 468 65 468 156 q 407 -89 468 -29 q 249 -149 346 -149 q 90 -90 153 -149 q 28 58 28 -32 z "},"₆":{"ha":526,"x_min":36,"x_max":490,"o":"m 122 286 l 261 474 l 368 474 l 219 275 q 276 285 244 285 q 431 226 372 285 q 490 74 490 167 q 426 -86 490 -24 q 265 -149 363 -149 q 102 -85 168 -149 q 36 74 36 -21 q 55 174 36 128 q 122 286 74 221 m 170 167 q 152 148 170 167 q 133 71 133 129 q 170 -26 133 13 q 265 -64 207 -64 q 358 -26 321 -64 q 394 71 394 13 q 358 166 394 128 q 265 204 321 204 q 170 167 207 204 z "},"₇":{"ha":458,"x_min":22,"x_max":436,"o":"m 436 381 l 224 -139 l 129 -139 l 346 381 l 22 381 l 22 468 l 436 468 l 436 381 z "},"₈":{"ha":522,"x_min":36,"x_max":485,"o":"m 36 26 q 67 124 36 82 q 150 185 97 167 q 64 317 64 219 q 118 434 64 390 q 261 478 172 478 q 404 434 350 478 q 458 317 458 390 q 371 183 458 219 q 454 126 424 169 q 485 26 485 82 q 423 -101 485 -53 q 261 -149 361 -149 q 98 -101 160 -149 q 36 26 36 -53 m 177 373 q 161 361 177 373 q 146 310 146 350 q 176 244 146 269 q 261 219 207 219 q 344 244 314 219 q 374 308 374 268 q 343 373 374 350 q 261 396 313 396 q 177 373 208 396 m 132 39 q 167 -36 132 -10 q 261 -62 203 -62 q 355 -36 319 -62 q 390 39 390 -10 q 354 113 390 86 q 260 140 318 140 q 167 113 203 140 q 132 39 132 86 z "},"₉":{"ha":526,"x_min":36,"x_max":490,"o":"m 404 50 l 265 -139 l 158 -139 l 311 63 q 251 51 281 51 q 96 110 156 51 q 36 261 36 169 q 101 422 36 358 q 263 485 165 485 q 425 420 360 485 q 490 261 490 356 q 472 161 490 207 q 404 50 453 115 m 393 264 q 357 360 393 322 q 263 399 321 399 q 169 360 206 399 q 133 264 133 322 q 169 169 133 207 q 263 131 206 131 q 356 169 319 131 q 393 264 393 207 z "},"€":{"ha":886,"x_min":32,"x_max":817,"o":"m 633 -17 q 315 79 447 -17 q 139 346 182 175 l 32 346 l 32 447 l 124 447 q 121 501 121 483 q 124 557 121 521 l 32 557 l 32 658 l 140 658 q 318 925 185 828 q 643 1022 451 1022 q 811 997 736 1022 l 811 869 q 647 893 738 893 q 413 833 507 893 q 281 658 318 772 l 665 658 l 665 557 l 260 557 q 257 503 257 524 q 260 447 257 483 l 665 447 l 665 346 l 281 346 q 412 172 318 232 q 640 111 506 111 q 817 139 736 111 l 817 7 q 633 -17 725 -17 z "},"№":{"ha":1750,"x_min":117,"x_max":1683,"o":"m 1588 931 q 1636 884 1588 931 q 1683 697 1683 838 q 1588 463 1683 557 q 1350 369 1493 369 q 1113 465 1210 369 q 1015 697 1015 560 q 1112 930 1015 836 q 1350 1024 1208 1024 q 1588 931 1493 1024 m 253 0 l 117 0 l 117 1004 l 253 1004 l 767 228 l 767 1004 l 903 1004 l 903 0 l 767 0 l 253 776 l 253 0 m 1560 696 q 1501 847 1560 788 q 1350 906 1442 906 q 1199 847 1258 906 q 1139 696 1139 788 q 1200 546 1139 607 q 1350 485 1261 485 q 1500 545 1440 485 q 1560 696 1560 606 m 1649 167 l 1051 167 l 1051 282 l 1649 282 l 1649 167 z "},"℗":{"ha":683,"x_min":56,"x_max":628,"o":"m 547 534 q 506 493 547 534 q 343 453 465 453 q 138 535 221 453 q 56 738 56 617 q 138 940 56 858 q 343 1022 221 1022 q 547 941 465 1022 q 628 738 628 860 q 547 534 628 615 m 174 567 q 208 534 174 567 q 343 500 242 500 q 511 567 444 500 q 578 738 578 635 q 511 908 578 840 q 343 975 444 975 q 174 908 242 975 q 107 738 107 840 q 174 567 107 635 m 299 575 l 247 575 l 247 894 l 369 894 q 455 865 422 894 q 488 786 488 836 q 456 703 488 733 q 369 672 424 672 l 299 672 l 299 575 m 299 846 l 299 721 l 368 721 q 433 785 433 721 q 368 846 433 846 l 299 846 z "},"™":{"ha":892,"x_min":36,"x_max":808,"o":"m 167 946 l 36 946 l 36 1004 l 360 1004 l 360 946 l 229 946 l 229 615 l 167 615 l 167 946 m 467 615 l 408 615 l 408 1004 l 467 1004 l 610 678 l 750 1004 l 808 1004 l 808 615 l 750 615 l 750 878 l 636 615 l 582 615 l 467 874 l 467 615 z "},"℮":{"ha":1082,"x_min":83,"x_max":999,"o":"m 83 490 q 212 848 83 710 q 542 986 340 986 q 872 863 746 986 q 999 529 999 740 q 997 456 999 476 l 222 456 l 222 206 q 558 43 336 43 q 755 94 665 43 q 889 228 844 144 l 942 208 q 788 47 890 106 q 556 -12 685 -12 q 213 126 343 -12 q 83 490 83 265 m 222 758 l 222 506 l 860 506 l 860 783 q 725 892 808 854 q 542 931 642 931 q 358 884 440 931 q 222 758 275 838 z "},"⅛":{"ha":969,"x_min":25,"x_max":931,"o":"m 142 928 l 25 928 l 25 1004 l 225 1004 l 225 525 l 142 525 l 142 928 m 822 986 l 174 0 l 64 0 l 710 986 l 822 986 m 576 132 q 601 208 576 175 q 665 256 625 242 q 599 361 599 286 q 642 453 599 418 q 754 489 685 489 q 866 454 824 489 q 908 361 908 419 q 840 256 908 283 q 906 210 882 243 q 931 132 931 176 q 882 31 931 68 q 754 -7 833 -7 q 625 31 674 -7 q 576 132 576 68 m 694 398 q 683 389 694 398 q 672 351 672 381 q 694 305 672 322 q 754 288 715 288 q 813 306 792 288 q 835 353 835 324 q 813 398 835 381 q 754 415 790 415 q 694 398 717 415 m 687 196 q 674 186 687 196 q 661 142 661 176 q 687 88 661 107 q 754 68 713 68 q 821 88 796 68 q 846 142 846 107 q 821 196 846 176 q 754 215 796 215 q 687 196 713 215 z "},"⅜":{"ha":1021,"x_min":28,"x_max":982,"o":"m 28 678 l 113 678 q 135 615 113 638 q 199 592 158 592 q 260 613 238 592 q 283 672 283 635 q 256 738 283 714 q 175 761 228 761 l 126 761 l 126 817 l 249 928 l 51 928 l 51 1004 l 356 1004 l 356 932 l 236 822 q 331 774 294 813 q 367 675 367 736 q 319 558 367 601 q 197 515 272 515 q 76 559 124 515 q 28 678 28 603 m 874 986 l 225 0 l 114 0 l 761 986 l 874 986 m 628 132 q 652 208 628 175 q 717 256 676 242 q 650 361 650 286 q 693 453 650 418 q 806 489 736 489 q 917 454 875 489 q 960 361 960 419 q 892 256 960 283 q 958 210 933 243 q 982 132 982 176 q 933 31 982 68 q 804 -7 885 -7 q 676 31 725 -7 q 628 132 628 68 m 746 398 q 735 389 746 398 q 724 351 724 381 q 744 305 724 322 q 804 288 765 288 q 864 306 842 288 q 886 353 886 324 q 864 398 886 381 q 804 415 842 415 q 746 398 768 415 m 738 196 q 725 186 738 196 q 713 142 713 176 q 738 88 713 107 q 804 68 764 68 q 872 88 846 68 q 897 142 897 107 q 872 196 897 176 q 804 215 846 215 q 738 196 764 215 z "},"⅝":{"ha":1042,"x_min":35,"x_max":1004,"o":"m 207 517 q 84 562 133 517 q 35 682 35 607 l 119 682 q 144 617 119 640 q 208 593 168 593 q 275 619 250 593 q 300 688 300 646 q 275 757 300 731 q 207 783 250 783 q 122 740 150 783 l 43 753 l 106 1004 l 361 1004 l 361 928 l 164 928 l 138 828 q 219 853 169 853 q 340 806 296 853 q 385 688 385 758 q 335 565 385 613 q 207 517 286 517 m 894 986 l 247 0 l 136 0 l 783 986 l 894 986 m 650 132 q 674 208 650 175 q 738 256 697 242 q 671 361 671 286 q 715 453 671 418 q 828 489 758 489 q 939 454 896 489 q 982 361 982 419 q 914 256 982 283 q 980 210 956 243 q 1004 132 1004 176 q 955 31 1004 69 q 826 -7 906 -7 q 699 31 747 -7 q 650 132 650 68 m 767 398 q 756 389 767 398 q 744 351 744 381 q 766 305 744 322 q 826 288 788 288 q 886 306 864 288 q 908 353 908 324 q 885 398 908 381 q 826 415 863 415 q 767 398 789 415 m 760 196 q 747 186 760 196 q 735 142 735 176 q 760 88 735 107 q 826 68 786 68 q 894 88 868 68 q 919 142 919 107 q 894 196 919 176 q 826 215 868 215 q 760 196 785 215 z "},"⅞":{"ha":939,"x_min":17,"x_max":901,"o":"m 271 926 l 17 926 l 17 1004 l 356 1004 l 356 926 l 178 525 l 92 525 l 271 926 m 792 986 l 144 0 l 33 0 l 681 986 l 792 986 m 547 132 q 572 208 547 175 q 636 256 596 242 q 569 361 569 286 q 613 453 569 418 q 725 489 656 489 q 837 454 794 489 q 879 361 879 419 q 811 256 879 283 q 877 210 853 243 q 901 132 901 176 q 852 31 901 69 q 724 -7 803 -7 q 596 31 644 -7 q 547 132 547 68 m 665 398 q 653 389 665 398 q 642 351 642 381 q 663 305 642 322 q 724 288 685 288 q 783 306 761 288 q 806 353 806 324 q 783 398 806 381 q 724 415 760 415 q 665 398 688 415 m 657 196 q 644 186 657 196 q 632 142 632 176 q 658 88 632 107 q 724 68 683 68 q 791 88 765 68 q 817 142 817 107 q 791 196 817 176 q 724 215 765 215 q 657 196 682 215 z "},"←":{"ha":1307,"x_min":83,"x_max":1224,"o":"m 615 -10 l 542 -85 l 83 372 l 542 831 l 615 757 l 285 425 l 1224 425 l 1224 321 l 285 321 l 615 -10 z "},"↑":{"ha":1089,"x_min":83,"x_max":1006,"o":"m 158 554 l 83 629 l 544 1083 l 1006 629 l 932 554 l 596 883 l 596 0 l 493 0 l 493 883 l 158 554 z "},"→":{"ha":1307,"x_min":83,"x_max":1224,"o":"m 692 800 l 765 872 l 1224 415 l 765 -42 l 692 32 l 1022 364 l 83 364 l 83 467 l 1022 468 l 692 800 z "},"↓":{"ha":1081,"x_min":83,"x_max":997,"o":"m 925 379 l 997 306 l 540 -153 l 83 306 l 157 379 l 489 49 l 489 1021 l 593 1021 l 593 49 l 925 379 z "},"↔":{"ha":1513,"x_min":83,"x_max":1429,"o":"m 83 367 l 422 707 l 422 556 l 283 418 l 603 419 l 603 421 l 914 421 l 1229 419 l 1090 556 l 1090 707 l 1429 368 l 1092 25 l 1092 178 l 1229 315 l 606 314 l 606 315 l 283 314 l 424 175 l 424 25 l 83 367 z "},"↕":{"ha":849,"x_min":83,"x_max":765,"o":"m 422 -239 l 83 100 l 233 100 l 371 -39 l 369 282 l 369 592 l 371 907 l 233 768 l 83 768 l 422 1107 l 765 768 l 614 768 l 476 907 l 476 -39 l 614 100 l 765 100 l 422 -239 z "},"↖":{"ha":1156,"x_min":83,"x_max":1072,"o":"m 83 1004 l 731 1004 l 731 900 l 261 899 l 1072 74 l 1000 0 l 188 825 l 188 357 l 83 357 l 83 1004 z "},"↗":{"ha":1172,"x_min":83,"x_max":1089,"o":"m 442 900 l 442 1004 l 1089 1004 l 1089 358 l 983 358 l 983 826 l 157 0 l 83 74 l 910 900 l 442 900 z "},"↘":{"ha":1169,"x_min":83,"x_max":1086,"o":"m 982 650 l 1086 649 l 1086 1 l 439 3 l 439 107 l 907 107 l 83 932 l 157 1004 l 981 181 l 982 650 z "},"↙":{"ha":1174,"x_min":83,"x_max":1090,"o":"m 732 103 l 731 -1 l 83 -1 l 83 646 l 189 646 l 189 178 l 1017 1006 l 1090 933 l 263 104 l 732 103 z "},"∂":{"ha":879,"x_min":75,"x_max":804,"o":"m 75 347 q 177 606 75 504 q 426 708 279 708 q 643 615 561 708 q 532 813 606 719 q 332 1014 458 906 l 499 1014 q 804 399 804 738 q 699 93 804 203 q 432 -17 593 -17 q 178 84 281 -17 q 75 347 75 185 m 206 346 q 271 168 206 238 q 438 99 336 99 q 605 169 539 99 q 671 349 671 239 q 607 523 671 456 q 442 590 543 590 q 272 522 339 590 q 206 346 206 453 z "},"∅":{"ha":1140,"x_min":42,"x_max":1099,"o":"m 567 -17 q 224 125 363 -17 l 107 18 l 42 88 l 164 199 q 78 503 78 333 q 217 874 78 726 q 567 1022 357 1022 q 913 879 774 1022 l 1035 990 l 1099 921 l 971 806 q 1057 503 1057 674 q 917 131 1057 279 q 567 -17 776 -17 m 208 503 q 261 286 208 383 l 819 794 q 567 899 719 899 q 310 788 411 899 q 208 503 208 676 m 567 107 q 826 218 724 107 q 928 503 928 329 q 876 718 928 626 l 318 210 q 567 107 417 107 z "},"∆":{"ha":946,"x_min":61,"x_max":885,"o":"m 885 0 l 61 0 l 61 117 l 400 1004 l 543 1004 l 885 114 l 885 0 m 457 803 l 197 114 l 749 114 l 485 803 q 471 844 475 826 q 463 821 469 838 q 457 803 457 804 z "},"∏":{"ha":956,"x_min":117,"x_max":838,"o":"m 253 0 l 117 0 l 117 1004 l 838 1004 l 838 0 l 701 0 l 701 879 l 253 879 l 253 0 z "},"∑":{"ha":767,"x_min":46,"x_max":704,"o":"m 704 0 l 46 0 l 46 139 l 347 504 l 46 865 l 46 1004 l 704 1004 l 704 879 l 200 879 l 510 503 l 199 126 l 704 126 l 704 0 z "},"−":{"ha":917,"x_min":111,"x_max":806,"o":"m 111 524 l 806 524 l 806 413 l 111 413 l 111 524 z "},"√":{"ha":989,"x_min":0,"x_max":946,"o":"m 274 0 l 0 678 l 136 678 l 338 167 l 653 1006 l 946 1006 l 946 885 l 742 885 l 400 0 l 274 0 z "},"∞":{"ha":1219,"x_min":71,"x_max":1147,"o":"m 71 394 q 145 584 71 510 q 336 658 219 658 q 484 617 419 658 q 610 485 549 575 q 735 617 671 575 q 883 658 800 658 q 1073 584 999 658 q 1147 394 1147 510 q 1073 206 1147 281 q 883 132 999 132 q 735 174 799 132 q 610 306 672 215 q 484 174 549 215 q 336 132 419 132 q 146 206 221 132 q 71 394 71 281 m 193 394 q 233 288 193 328 q 340 247 274 247 q 531 394 454 247 q 340 542 456 542 q 233 502 272 542 q 193 394 193 463 m 689 394 q 879 247 763 247 q 986 288 946 247 q 1026 394 1026 328 q 986 501 1026 461 q 879 542 946 542 q 689 394 761 542 z "},"∫":{"ha":563,"x_min":42,"x_max":521,"o":"m 153 -18 l 42 -18 l 42 100 l 144 100 q 197 121 178 100 q 215 181 215 142 l 215 822 q 270 967 215 911 q 411 1024 325 1024 l 521 1024 l 521 906 l 418 906 q 366 885 385 906 q 347 825 347 864 l 347 183 q 292 38 347 94 q 153 -18 238 -18 z "},"≈":{"ha":917,"x_min":111,"x_max":806,"o":"m 701 657 l 806 657 q 756 496 806 558 q 624 433 706 433 q 506 464 567 433 q 391 526 444 494 q 300 557 338 557 q 238 530 257 557 q 215 447 218 503 l 111 447 q 161 604 111 543 q 293 665 211 665 q 406 635 346 665 q 520 574 465 604 q 617 543 575 543 q 701 657 697 543 m 701 393 l 806 393 q 756 232 806 294 q 624 169 706 169 q 506 200 567 169 q 391 261 444 231 q 300 292 338 292 q 238 265 257 292 q 215 182 218 238 l 111 182 q 161 340 111 279 q 293 401 211 401 q 406 371 346 401 q 520 309 465 340 q 617 278 575 278 q 701 393 697 278 z "},"≠":{"ha":917,"x_min":111,"x_max":806,"o":"m 185 26 l 286 213 l 111 213 l 111 325 l 347 325 l 444 504 l 111 504 l 111 617 l 506 617 l 607 803 l 732 803 l 631 617 l 806 617 l 806 504 l 569 504 l 472 325 l 806 325 l 806 213 l 411 213 l 310 26 l 185 26 z "},"≤":{"ha":917,"x_min":111,"x_max":806,"o":"m 806 292 l 806 164 l 111 404 l 111 540 l 806 781 l 806 651 l 246 472 l 806 292 m 111 0 l 111 113 l 806 113 l 806 0 l 111 0 z "},"≥":{"ha":917,"x_min":111,"x_max":806,"o":"m 806 404 l 111 164 l 111 292 l 671 472 l 111 651 l 111 781 l 806 540 l 806 404 m 111 113 l 806 113 l 806 0 l 111 0 l 111 113 z "},"■":{"ha":1153,"x_min":83,"x_max":1069,"o":"m 83 0 l 83 986 l 1069 986 l 1069 0 l 83 0 z "},"□":{"ha":1153,"x_min":83,"x_max":1069,"o":"m 83 0 l 83 986 l 1069 986 l 1069 0 l 83 0 m 965 882 l 188 882 l 188 104 l 965 104 l 965 882 z "},"▲":{"ha":1342,"x_min":83,"x_max":1258,"o":"m 83 0 l 671 986 l 1258 0 l 83 0 z "},"△":{"ha":1343,"x_min":83,"x_max":1260,"o":"m 672 990 l 1260 3 l 83 3 l 672 990 m 258 99 l 1085 99 l 672 792 l 258 99 z "},"◊":{"ha":863,"x_min":83,"x_max":779,"o":"m 779 493 l 496 0 l 367 0 l 83 493 l 367 986 l 496 986 l 779 493 m 646 493 l 432 872 l 218 493 l 432 114 l 646 493 z "},"○":{"ha":1247,"x_min":83,"x_max":1164,"o":"m 1006 81 q 926 1 1006 81 q 624 -78 847 -78 q 242 81 400 -78 q 83 463 83 239 q 242 844 83 686 q 624 1003 400 1003 q 1006 844 847 1003 q 1164 463 1164 686 q 1006 81 1164 239 m 624 25 q 933 153 806 25 q 1061 463 1061 281 q 933 772 1061 643 q 624 900 804 900 q 315 772 443 900 q 186 463 186 643 q 315 153 186 282 q 624 25 443 25 z "},"●":{"ha":1247,"x_min":83,"x_max":1164,"o":"m 1006 81 q 926 1 1006 81 q 624 -78 847 -78 q 242 81 400 -78 q 83 463 83 239 q 242 844 83 686 q 624 1003 400 1003 q 1006 844 847 1003 q 1164 463 1164 686 q 1006 81 1164 239 z "},"☮":{"ha":1247,"x_min":83,"x_max":1164,"o":"m 1006 81 q 926 1 1006 81 q 624 -78 847 -78 q 242 81 400 -78 q 83 463 83 239 q 242 844 83 686 q 624 1003 400 1003 q 1006 844 847 1003 q 1164 463 1164 686 q 1006 81 1164 239 m 186 463 q 224 285 186 371 l 578 519 l 578 897 q 299 756 413 881 q 186 463 186 632 m 1061 463 q 949 753 1061 629 q 672 897 836 878 l 672 519 l 1024 286 q 1061 463 1061 372 m 271 204 q 578 28 388 47 l 578 407 l 271 204 m 672 407 l 672 28 q 844 85 765 38 q 976 204 924 132 l 672 407 z "},"✓":{"ha":1006,"x_min":47,"x_max":881,"o":"m 347 10 l 47 333 l 126 417 l 342 185 l 792 725 l 881 651 l 347 10 z "},"":{"ha":2415,"x_min":122,"x_max":2232,"o":"m 122 0 l 122 972 l 422 972 l 422 0 l 122 0 m 485 689 l 485 972 l 785 972 l 785 689 l 485 689 m 846 0 l 846 972 l 1147 972 l 1147 0 l 846 0 m 1208 689 l 1208 972 l 1508 972 l 1508 689 l 1208 689 m 1569 0 l 1569 972 l 1871 972 l 1871 0 l 1569 0 m 1932 689 l 1932 972 l 2232 972 l 2232 689 l 1932 689 m 1932 343 l 1932 628 l 2232 628 l 2232 343 l 1932 343 z "},"ﬀ":{"ha":871,"x_min":22,"x_max":849,"o":"m 22 679 l 122 679 l 122 788 q 181 965 122 907 q 338 1022 239 1022 q 417 1017 383 1022 l 417 904 l 358 904 q 276 876 299 904 q 253 788 253 847 l 253 679 l 554 679 l 554 788 q 612 965 554 907 q 768 1022 669 1022 q 849 1017 815 1022 l 849 904 l 790 904 q 707 876 731 904 q 683 788 683 847 l 683 679 l 844 679 l 844 569 l 683 569 l 683 0 l 554 0 l 554 569 l 253 569 l 253 0 l 122 0 l 122 569 l 22 569 l 22 679 z "},"ﬁ":{"ha":776,"x_min":22,"x_max":701,"o":"m 554 0 l 554 569 l 253 569 l 253 0 l 122 0 l 122 569 l 22 569 l 22 679 l 122 679 l 122 788 q 179 965 122 907 q 331 1022 236 1022 q 411 1017 378 1022 l 411 904 l 353 904 q 274 876 296 904 q 253 788 253 847 l 253 679 l 685 679 l 685 0 l 554 0 m 619 846 q 560 870 583 846 q 536 929 536 894 q 560 988 536 964 q 619 1013 583 1013 q 678 988 654 1013 q 701 929 701 964 q 678 870 701 894 q 619 846 654 846 z "},"ﬂ":{"ha":769,"x_min":22,"x_max":672,"o":"m 672 0 l 543 0 l 543 569 l 253 569 l 253 0 l 122 0 l 122 569 l 22 569 l 22 679 l 122 679 l 122 788 q 178 965 122 907 q 329 1022 235 1022 q 410 1017 375 1022 l 410 904 l 351 904 q 274 876 294 904 q 253 788 253 847 l 253 679 l 543 679 l 543 1022 l 672 1022 l 672 0 z "},"ﬃ":{"ha":1207,"x_min":22,"x_max":1133,"o":"m 22 679 l 122 679 l 122 788 q 181 965 122 907 q 338 1022 239 1022 q 417 1017 383 1022 l 417 904 l 358 904 q 276 876 299 904 q 253 788 253 847 l 253 679 l 554 679 l 554 788 q 611 965 554 907 q 763 1022 668 1022 q 843 1017 808 1022 l 843 904 l 785 904 q 706 875 728 904 q 683 788 683 846 l 683 679 l 1115 679 l 1115 0 l 986 0 l 986 569 l 683 569 l 683 0 l 554 0 l 554 569 l 253 569 l 253 0 l 122 0 l 122 569 l 22 569 l 22 679 m 1050 856 q 992 879 1015 856 q 968 939 968 903 q 992 998 968 974 q 1050 1022 1015 1022 q 1109 998 1085 1022 q 1133 939 1133 974 q 1110 879 1133 903 q 1050 856 1086 856 z "},"ﬄ":{"ha":1201,"x_min":22,"x_max":1104,"o":"m 22 679 l 122 679 l 122 788 q 181 965 122 907 q 338 1022 239 1022 q 417 1017 383 1022 l 417 904 l 358 904 q 276 876 299 904 q 253 788 253 847 l 253 679 l 554 679 l 554 788 q 612 965 554 907 q 768 1022 669 1022 q 849 1017 815 1022 l 849 904 l 790 904 q 707 876 731 904 q 683 788 683 847 l 683 679 l 974 679 l 974 1022 l 1104 1022 l 1104 0 l 974 0 l 974 569 l 683 569 l 683 0 l 554 0 l 554 569 l 253 569 l 253 0 l 122 0 l 122 569 l 22 569 l 22 679 z "}}}
